<svg width="121" height="77" viewBox="0 0 121 77" fill="none" xmlns="http://www.w3.org/2000/svg">
<path d="M-6.10352e-05 75.7152L1.75529 71.8694H2.15694L3.91229 75.7152H3.48833L1.8743 72.1079H2.03793L0.423902 75.7152H-6.10352e-05ZM0.691665 74.6941L0.810675 74.3662H3.04205L3.16106 74.6941H0.691665Z" fill="#212121"/>
<path d="M6.73127 75.7152V72.2197H5.38501V71.8694H8.48663V72.2197H7.14036V75.7152H6.73127Z" fill="#212121"/>
<path d="M9.96678 75.745C9.66926 75.745 9.4015 75.6854 9.17836 75.5587C8.94778 75.432 8.77671 75.2606 8.65026 75.037C8.52382 74.8134 8.45688 74.56 8.45688 74.2767C8.45688 73.9935 8.51638 73.7401 8.64283 73.5165C8.76183 73.3004 8.93291 73.1215 9.14861 72.9948C9.3643 72.8681 9.60232 72.8085 9.87009 72.8085C10.1379 72.8085 10.3833 72.8681 10.5916 72.9948C10.7998 73.1141 10.9635 73.2929 11.0899 73.5091C11.2089 73.7327 11.2684 73.9861 11.2684 74.2767C11.2684 74.2916 11.2684 74.314 11.2684 74.3364C11.2684 74.3587 11.2684 74.3736 11.2684 74.396H8.76183V74.1053H11.0602L10.904 74.2171C10.904 74.0084 10.8593 73.8221 10.7701 73.6581C10.6808 73.4942 10.5618 73.3675 10.4056 73.278C10.2494 73.1886 10.0783 73.1439 9.87752 73.1439C9.6767 73.1439 9.50563 73.1886 9.34199 73.278C9.1858 73.3675 9.05935 73.4942 8.97753 73.6656C8.89572 73.837 8.84365 74.0159 8.84365 74.232V74.2917C8.84365 74.5078 8.89572 74.7016 8.99241 74.873C9.0891 75.037 9.22299 75.1711 9.4015 75.2606C9.57257 75.3574 9.77339 75.4022 9.99653 75.4022C10.175 75.4022 10.3387 75.3723 10.4874 75.3053C10.6362 75.2456 10.7701 75.1488 10.8816 75.0221L11.0973 75.2755C10.9709 75.432 10.8073 75.5438 10.6213 75.6258C10.4056 75.7077 10.1974 75.745 9.96678 75.745Z" fill="#212121"/>
<path d="M11.5362 75.7152L12.756 74.1351L12.7485 74.3289L11.5882 72.8383H12.0271L12.9791 74.0755L12.8155 74.068L13.7675 72.8383H14.1915L13.0237 74.3513L13.0312 74.1426L14.2584 75.7226H13.8122L12.808 74.4034L12.9642 74.4258L11.975 75.7226H11.5362V75.7152Z" fill="#212121"/>
<path d="M14.4518 73.1588V72.8308H16.2369V73.1588H14.4518ZM15.813 75.745C15.5452 75.745 15.337 75.6705 15.1882 75.5289C15.0394 75.3798 14.9725 75.1786 14.9725 74.9103V72.2048H15.3593V74.8879C15.3593 75.0593 15.4039 75.186 15.4857 75.2755C15.5675 75.3649 15.694 75.4096 15.8576 75.4096C16.0287 75.4096 16.17 75.3574 16.2816 75.2606L16.4155 75.5438C16.3411 75.6108 16.2444 75.663 16.1403 75.7003C16.0361 75.7301 15.9246 75.745 15.813 75.745Z" fill="#212121"/>
<path d="M17.3229 72.1973C17.2411 72.1973 17.1741 72.1675 17.1221 72.1153C17.07 72.0632 17.0403 71.9961 17.0403 71.9141C17.0403 71.8321 17.07 71.7725 17.1221 71.7203C17.1741 71.6682 17.2411 71.6384 17.3229 71.6384C17.4047 71.6384 17.4717 71.6607 17.5237 71.7129C17.5758 71.7651 17.6055 71.8247 17.6055 71.9067C17.6055 71.9886 17.5758 72.0557 17.5237 72.1079C17.4791 72.1675 17.4047 72.1973 17.3229 72.1973ZM17.1295 75.7152V72.8308H17.5163V75.7152H17.1295Z" fill="#212121"/>
<path d="M18.6022 75.7152V71.6384H18.989V75.7152H18.6022Z" fill="#212121"/>
<path d="M21.2947 75.745C20.9972 75.745 20.7295 75.6854 20.5063 75.5587C20.2758 75.432 20.1047 75.2606 19.9782 75.037C19.8518 74.8134 19.7849 74.56 19.7849 74.2767C19.7849 73.9935 19.8444 73.7401 19.9708 73.5165C20.0898 73.3004 20.2609 73.1215 20.4766 72.9948C20.6923 72.8681 20.9303 72.8085 21.1981 72.8085C21.4658 72.8085 21.7113 72.8681 21.9195 72.9948C22.1278 73.1141 22.2914 73.2929 22.4179 73.5091C22.5369 73.7327 22.5964 73.9861 22.5964 74.2767C22.5964 74.2916 22.5964 74.314 22.5964 74.3364C22.5964 74.3587 22.5964 74.3736 22.5964 74.396H20.0898V74.1053H22.3881L22.2319 74.2171C22.2319 74.0084 22.1873 73.8221 22.098 73.6581C22.0088 73.4942 21.8898 73.3675 21.7336 73.278C21.5774 73.1886 21.4063 73.1439 21.2055 73.1439C21.0047 73.1439 20.8336 73.1886 20.67 73.278C20.5138 73.3675 20.3873 73.4942 20.3055 73.6656C20.2163 73.8296 20.1716 74.0159 20.1716 74.232V74.2917C20.1716 74.5078 20.2237 74.7016 20.3204 74.873C20.4171 75.037 20.551 75.1711 20.7295 75.2606C20.9005 75.3574 21.1014 75.4022 21.3245 75.4022C21.503 75.4022 21.6666 75.3723 21.8154 75.3053C21.9642 75.2456 22.098 75.1488 22.2096 75.0221L22.4253 75.2755C22.2989 75.432 22.1352 75.5438 21.9493 75.6258C21.741 75.7077 21.5253 75.745 21.2947 75.745Z" fill="#212121"/>
<path d="M25.9658 75.7525C25.6831 75.7525 25.4079 75.7077 25.1476 75.6108C24.8873 75.514 24.6865 75.3947 24.5451 75.2531L24.7013 74.9401C24.8352 75.0742 25.0212 75.186 25.2443 75.2755C25.4749 75.3649 25.7129 75.4096 25.9658 75.4096C26.2038 75.4096 26.4046 75.3798 26.5534 75.3202C26.7021 75.2606 26.8137 75.1786 26.8881 75.0742C26.9625 74.9699 26.9922 74.8581 26.9922 74.7314C26.9922 74.5823 26.9476 74.4631 26.8658 74.3662C26.7765 74.2768 26.6649 74.2022 26.5311 74.15C26.3897 74.0979 26.241 74.0532 26.0699 74.0084C25.8988 73.9637 25.7352 73.9265 25.5641 73.8817C25.3931 73.837 25.2443 73.7774 25.103 73.6954C24.9617 73.6209 24.8501 73.5165 24.7608 73.3898C24.6716 73.2631 24.6344 73.0992 24.6344 72.8905C24.6344 72.6967 24.6865 72.5253 24.7831 72.3688C24.8798 72.2122 25.036 72.0781 25.2443 71.9812C25.4526 71.8843 25.7203 71.8321 26.0476 71.8321C26.2633 71.8321 26.479 71.8619 26.6873 71.9216C26.903 71.9812 27.0815 72.0632 27.2377 72.175L27.1038 72.5029C26.9401 72.3911 26.7616 72.3091 26.5831 72.2644C26.3972 72.2122 26.2187 72.1899 26.0476 72.1899C25.817 72.1899 25.6236 72.2197 25.4749 72.2868C25.3261 72.3464 25.2145 72.4358 25.1402 72.5402C25.0658 72.6445 25.036 72.7638 25.036 72.8905C25.036 73.0395 25.0807 73.1588 25.1625 73.2557C25.2443 73.3526 25.3633 73.4196 25.5046 73.4718C25.6459 73.524 25.8021 73.5687 25.9658 73.606C26.1369 73.6432 26.3005 73.688 26.4641 73.7401C26.6277 73.7848 26.784 73.8519 26.9253 73.9265C27.0666 74.001 27.1782 74.0979 27.2674 74.2246C27.3492 74.3513 27.3939 74.5152 27.3939 74.7165C27.3939 74.9028 27.3418 75.0742 27.2377 75.2382C27.1335 75.3947 26.9773 75.5289 26.7691 75.6258C26.5608 75.7003 26.293 75.7525 25.9658 75.7525Z" fill="#212121"/>
<path d="M29.3649 75.745C29.0823 75.745 28.8368 75.6854 28.6137 75.5587C28.398 75.432 28.2195 75.2605 28.093 75.037C27.9666 74.8134 27.8996 74.56 27.8996 74.2767C27.8996 73.9861 27.9666 73.7327 28.093 73.5165C28.2195 73.3004 28.398 73.1215 28.6137 73.0023C28.8294 72.8756 29.0823 72.8159 29.3649 72.8159C29.6475 72.8159 29.9004 72.8756 30.1236 73.0023C30.3467 73.129 30.5178 73.3004 30.6442 73.5165C30.7707 73.7327 30.8302 73.9861 30.8302 74.2767C30.8302 74.56 30.7707 74.8134 30.6442 75.037C30.5178 75.2605 30.3467 75.432 30.1236 75.5587C29.9004 75.6854 29.6475 75.745 29.3649 75.745ZM29.3649 75.4022C29.5732 75.4022 29.7591 75.3574 29.9153 75.2605C30.0789 75.1637 30.2054 75.037 30.2946 74.8655C30.3913 74.6941 30.436 74.5003 30.436 74.2767C30.436 74.0531 30.3913 73.8519 30.2946 73.6805C30.1979 73.5091 30.0715 73.3824 29.9153 73.2855C29.7517 73.1886 29.5732 73.1439 29.3649 73.1439C29.1566 73.1439 28.9781 73.1886 28.8145 73.2855C28.6509 73.3824 28.5244 73.5091 28.4277 73.6805C28.331 73.8519 28.2864 74.0457 28.2864 74.2767C28.2864 74.5003 28.331 74.6941 28.4277 74.8655C28.5244 75.037 28.6509 75.1711 28.8071 75.2605C28.9781 75.3574 29.1641 75.4022 29.3649 75.4022Z" fill="#212121"/>
<path d="M32.8235 75.745C32.5781 75.745 32.3624 75.7003 32.1839 75.6108C31.9979 75.5214 31.8566 75.3798 31.7599 75.2009C31.6558 75.0146 31.6111 74.791 31.6111 74.5152V72.8383H31.9979V74.4705C31.9979 74.7761 32.0723 75.0071 32.2285 75.1637C32.3772 75.3202 32.5929 75.3947 32.8681 75.3947C33.069 75.3947 33.24 75.3574 33.3888 75.268C33.5376 75.186 33.6491 75.0668 33.731 74.9102C33.8128 74.7537 33.85 74.5674 33.85 74.3438V72.8308H34.2367V75.7152H33.8648V74.9326L33.9243 75.0742C33.8351 75.2829 33.6938 75.4543 33.5004 75.5736C33.2995 75.6854 33.0764 75.745 32.8235 75.745Z" fill="#212121"/>
<path d="M35.3152 75.7152V72.8308H35.6871V73.6134L35.65 73.4793C35.7318 73.2631 35.8657 73.0917 36.059 72.9799C36.2524 72.8681 36.483 72.8085 36.7656 72.8085V73.1886C36.7508 73.1886 36.7359 73.1886 36.721 73.1886C36.7061 73.1886 36.6913 73.1886 36.6764 73.1886C36.3714 73.1886 36.1334 73.278 35.9624 73.4644C35.7913 73.6507 35.702 73.9115 35.702 74.2544V75.7301L35.3152 75.7152Z" fill="#212121"/>
<path d="M38.6325 75.745C38.3499 75.745 38.0896 75.6854 37.8664 75.5587C37.6433 75.432 37.4648 75.2605 37.3384 75.037C37.2119 74.8134 37.145 74.56 37.145 74.2767C37.145 73.9861 37.2119 73.7327 37.3384 73.5165C37.4648 73.3004 37.6433 73.1215 37.8664 73.0023C38.0896 72.8756 38.3425 72.8159 38.6325 72.8159C38.878 72.8159 39.1011 72.8607 39.2945 72.9575C39.4953 73.0544 39.6441 73.196 39.7631 73.3824L39.473 73.5836C39.3763 73.4345 39.2499 73.3302 39.1086 73.2557C38.9598 73.1886 38.8036 73.1513 38.6325 73.1513C38.4243 73.1513 38.2458 73.196 38.0821 73.2929C37.9185 73.3898 37.7846 73.5165 37.6954 73.6879C37.5987 73.8594 37.554 74.0532 37.554 74.2842C37.554 74.5152 37.5987 74.709 37.6954 74.8804C37.7921 75.0519 37.9185 75.1786 38.0821 75.2755C38.2458 75.3723 38.4317 75.4171 38.6325 75.4171C38.8036 75.4171 38.9598 75.3798 39.1086 75.3127C39.2573 75.2456 39.3763 75.1338 39.473 74.9922L39.7631 75.1935C39.6515 75.3798 39.4953 75.5214 39.2945 75.6183C39.1011 75.7003 38.878 75.745 38.6325 75.745Z" fill="#212121"/>
<path d="M40.678 72.1973C40.5961 72.1973 40.5292 72.1675 40.4771 72.1153C40.4251 72.0632 40.3953 71.9961 40.3953 71.9141C40.3953 71.8321 40.4251 71.7725 40.4771 71.7203C40.5292 71.6682 40.5961 71.6384 40.678 71.6384C40.7598 71.6384 40.8267 71.6607 40.8788 71.7129C40.9309 71.7651 40.9606 71.8247 40.9606 71.9067C40.9606 71.9886 40.9309 72.0557 40.8788 72.1079C40.8342 72.1675 40.7672 72.1973 40.678 72.1973ZM40.4846 75.7152V72.8308H40.8714V75.7152H40.4846Z" fill="#212121"/>
<path d="M43.43 72.8085C43.6606 72.8085 43.8689 72.8532 44.0474 72.9426C44.2259 73.0321 44.3672 73.1662 44.4639 73.3526C44.568 73.5389 44.6126 73.7699 44.6126 74.0457V75.7226H44.2259V74.083C44.2259 73.7774 44.1515 73.5463 43.9953 73.3973C43.8465 73.2408 43.6308 73.1662 43.3556 73.1662C43.1474 73.1662 42.9763 73.2035 42.8201 73.2929C42.6713 73.3749 42.5523 73.4942 42.4705 73.6507C42.3887 73.8072 42.3441 73.9935 42.3441 74.2171V75.7301H41.9573V72.8458H42.3292V73.6358L42.2697 73.4867C42.359 73.278 42.5077 73.1141 42.7085 72.9948C42.9094 72.8681 43.1474 72.8085 43.43 72.8085Z" fill="#212121"/>
<path d="M46.8217 75.6108C46.5465 75.6108 46.3011 75.5512 46.0854 75.432C45.8697 75.3127 45.6911 75.1487 45.5647 74.9326C45.4383 74.7239 45.3788 74.478 45.3788 74.2022C45.3788 73.9264 45.4383 73.6879 45.5647 73.4718C45.6911 73.2631 45.8622 73.0992 46.0854 72.9799C46.3011 72.8607 46.5539 72.801 46.8217 72.801C47.0746 72.801 47.3052 72.8532 47.5134 72.9575C47.7217 73.0619 47.8779 73.2184 48.0043 73.4271C48.1233 73.6358 48.1828 73.8892 48.1828 74.1873C48.1828 74.4854 48.1233 74.7388 48.0043 74.9475C47.8853 75.1562 47.7217 75.3127 47.5134 75.4245C47.3052 75.5512 47.0746 75.6108 46.8217 75.6108ZM46.8886 76.8108C46.6283 76.8108 46.3754 76.7735 46.13 76.699C45.8845 76.6245 45.6911 76.5127 45.5424 76.3711L45.7432 76.0729C45.8771 76.1922 46.0482 76.2891 46.2416 76.3636C46.4424 76.4381 46.6506 76.4679 46.8738 76.4679C47.2382 76.4679 47.506 76.386 47.6771 76.2145C47.8481 76.0431 47.9374 75.7823 47.9374 75.4245V74.7016L47.9895 74.2097L47.9523 73.7177V72.8457H48.3242V75.3798C48.3242 75.8791 48.2052 76.2443 47.9597 76.4754C47.7217 76.699 47.3647 76.8108 46.8886 76.8108ZM46.8589 75.2605C47.0672 75.2605 47.2605 75.2158 47.4242 75.1264C47.5878 75.0369 47.7217 74.9102 47.811 74.7537C47.9002 74.5972 47.9523 74.4109 47.9523 74.2022C47.9523 73.9935 47.9076 73.8072 47.811 73.6507C47.7143 73.4942 47.5878 73.3675 47.4242 73.278C47.2605 73.1886 47.0746 73.1439 46.8589 73.1439C46.6506 73.1439 46.4647 73.1886 46.2936 73.278C46.13 73.3675 45.9961 73.4942 45.9068 73.6507C45.8102 73.8072 45.7655 73.9935 45.7655 74.2022C45.7655 74.4109 45.8102 74.5972 45.9068 74.7537C46.0035 74.9102 46.13 75.0369 46.2936 75.1264C46.4647 75.2158 46.6506 75.2605 46.8589 75.2605Z" fill="#212121"/>
<path d="M51.8721 75.7525C51.6266 75.7525 51.4035 75.7152 51.2101 75.6258C51.0167 75.5363 50.8605 75.432 50.7489 75.2829C50.6374 75.1338 50.5853 74.9624 50.5853 74.7687C50.5853 74.6047 50.6225 74.4556 50.6969 74.314C50.7712 74.1799 50.8902 74.0382 51.0464 73.9041C51.2101 73.7699 51.4258 73.6283 51.6935 73.4867C51.9241 73.36 52.1026 73.2482 52.2365 73.1513C52.363 73.0544 52.4597 72.965 52.5117 72.883C52.5638 72.801 52.5935 72.7041 52.5935 72.6073C52.5935 72.4656 52.5415 72.3464 52.4448 72.2644C52.3481 72.175 52.2068 72.1303 52.0283 72.1303C51.8349 72.1303 51.6861 72.1824 51.582 72.2793C51.4778 72.3762 51.4258 72.5029 51.4258 72.652C51.4258 72.7265 51.4407 72.801 51.463 72.8681C51.4853 72.9352 51.5299 73.0172 51.5969 73.0992C51.6638 73.1811 51.7605 73.2929 51.8795 73.4196L53.91 75.514L53.6869 75.7748L51.5745 73.5911C51.4481 73.4569 51.344 73.3377 51.2696 73.2408C51.1952 73.1439 51.1431 73.047 51.1134 72.9501C51.0836 72.8607 51.0688 72.7638 51.0688 72.6594C51.0688 72.4955 51.1059 72.3538 51.1878 72.2271C51.2696 72.1079 51.3812 72.011 51.5225 71.9439C51.6712 71.8769 51.8423 71.8396 52.0357 71.8396C52.2142 71.8396 52.3704 71.8694 52.5043 71.929C52.6382 71.9886 52.7423 72.0781 52.8167 72.1899C52.8911 72.3017 52.9282 72.4433 52.9282 72.5998C52.9282 72.7414 52.8911 72.8681 52.8241 72.9874C52.7572 73.1066 52.6456 73.2259 52.4894 73.3377C52.3332 73.4494 52.1249 73.5836 51.8646 73.7252C51.634 73.8519 51.4555 73.9712 51.3217 74.0755C51.1878 74.1799 51.0911 74.2842 51.039 74.3885C50.9869 74.4929 50.9572 74.5972 50.9572 74.7239C50.9572 74.8655 50.9944 74.9848 51.0762 75.0891C51.158 75.1935 51.2621 75.2755 51.4035 75.3276C51.5448 75.3873 51.7084 75.4096 51.8869 75.4096C52.1398 75.4096 52.3704 75.3574 52.5712 75.2531C52.772 75.1488 52.9431 74.9848 53.077 74.7687C53.2109 74.5525 53.315 74.2842 53.3745 73.9563L53.6869 74.0531C53.62 74.4183 53.501 74.7239 53.3299 74.9773C53.1588 75.2307 52.9506 75.4171 52.7051 75.5438C52.4671 75.6854 52.1844 75.7525 51.8721 75.7525Z" fill="#212121"/>
<path d="M56.0373 75.7152V71.8768H56.372L58.1274 74.873H57.9488L59.6893 71.8768H60.024V75.7226H59.6373V72.488H59.7339L58.1348 75.2307H57.9414L56.3274 72.488H56.4315V75.7226H56.0373V75.7152Z" fill="#212121"/>
<path d="M62.0025 75.745C61.7868 75.745 61.6009 75.7077 61.4372 75.6407C61.281 75.5661 61.1546 75.4692 61.0728 75.3425C60.991 75.2158 60.9463 75.0668 60.9463 74.9028C60.9463 74.7537 60.9835 74.6196 61.0505 74.4929C61.1248 74.3736 61.2364 74.2693 61.4 74.1948C61.5637 74.1202 61.7794 74.083 62.0546 74.083H63.0438V74.3736H62.062C61.7868 74.3736 61.5934 74.4258 61.4819 74.5227C61.3703 74.6196 61.3182 74.7463 61.3182 74.8879C61.3182 75.0519 61.3852 75.186 61.5116 75.2829C61.6381 75.3798 61.8166 75.432 62.0471 75.432C62.2628 75.432 62.4562 75.3798 62.6124 75.2829C62.7686 75.1786 62.8876 75.037 62.962 74.8432L63.0513 75.1115C62.9769 75.3053 62.8504 75.4543 62.6719 75.5661C62.5083 75.6928 62.2777 75.745 62.0025 75.745ZM62.9992 75.7152V75.0742L62.9843 74.9699V73.9041C62.9843 73.6581 62.9174 73.4718 62.7761 73.3376C62.6422 73.2035 62.4339 73.1364 62.1661 73.1364C61.9802 73.1364 61.8017 73.1662 61.6381 73.2333C61.467 73.2929 61.3257 73.3749 61.2141 73.4793L61.0356 73.1886C61.1843 73.0619 61.3554 72.965 61.5637 72.8979C61.7719 72.8308 61.9876 72.7936 62.2108 72.7936C62.5827 72.7936 62.8728 72.883 63.0736 73.0693C63.2744 73.2557 63.3785 73.5389 63.3785 73.9115V75.7003L62.9992 75.7152Z" fill="#212121"/>
<path d="M65.9 72.8085C66.1306 72.8085 66.3389 72.8532 66.5174 72.9426C66.6959 73.0321 66.8372 73.1662 66.9339 73.3526C67.038 73.5389 67.0826 73.7699 67.0826 74.0457V75.7226H66.6959V74.083C66.6959 73.7774 66.6215 73.5463 66.4653 73.3973C66.3165 73.2408 66.1008 73.1662 65.8256 73.1662C65.6174 73.1662 65.4463 73.2035 65.2901 73.2929C65.1339 73.3824 65.0223 73.4942 64.9405 73.6507C64.8587 73.8072 64.8141 73.9935 64.8141 74.2171V75.7301H64.4273V72.8458H64.7992V73.6358L64.7397 73.4867C64.829 73.278 64.9777 73.1141 65.1785 72.9948C65.3794 72.8681 65.6174 72.8085 65.9 72.8085Z" fill="#212121"/>
<path d="M69.3215 75.745C69.076 75.745 68.8603 75.7003 68.6818 75.6108C68.5033 75.5214 68.3545 75.3798 68.2578 75.2009C68.1537 75.0146 68.1091 74.791 68.1091 74.5152V72.8383H68.4958V74.4705C68.4958 74.7761 68.5702 75.0071 68.7264 75.1637C68.8752 75.3202 69.0909 75.3947 69.3661 75.3947C69.5669 75.3947 69.738 75.3574 69.8867 75.268C70.0355 75.186 70.1471 75.0668 70.2289 74.9102C70.3107 74.7537 70.3479 74.5674 70.3479 74.3438V72.8308H70.7347V75.7152H70.3628V74.9326L70.4223 75.0742C70.333 75.2829 70.1917 75.4543 69.9983 75.5736C69.8049 75.6854 69.5818 75.745 69.3215 75.745Z" fill="#212121"/>
<path d="M71.3669 73.1588V72.8309H73.152V73.1588H71.3669ZM71.8801 75.7152V72.4731C71.8801 72.2197 71.9545 72.011 72.1032 71.8545C72.252 71.698 72.4677 71.616 72.7503 71.616C72.8619 71.616 72.966 71.6309 73.0702 71.6607C73.1743 71.6905 73.2561 71.7352 73.3305 71.7949L73.1966 72.0855C73.1445 72.0408 73.0776 72.0036 73.0032 71.9812C72.9288 71.9588 72.8545 71.9439 72.7652 71.9439C72.6016 71.9439 72.4751 71.9886 72.3859 72.0781C72.2966 72.1675 72.252 72.3091 72.252 72.488V72.9277L72.2669 73.1066V75.7152H71.8801Z" fill="#212121"/>
<path d="M74.4313 75.745C74.2156 75.745 74.0296 75.7077 73.866 75.6407C73.7098 75.5661 73.5833 75.4692 73.5015 75.3425C73.4197 75.2158 73.3751 75.0668 73.3751 74.9028C73.3751 74.7537 73.4123 74.6196 73.4792 74.4929C73.5536 74.3736 73.6652 74.2693 73.8288 74.1948C73.9924 74.1202 74.2081 74.083 74.4833 74.083H75.4726V74.3736H74.4908C74.2156 74.3736 74.0222 74.4258 73.9106 74.5227C73.799 74.6196 73.747 74.7463 73.747 74.8879C73.747 75.0519 73.8139 75.186 73.9404 75.2829C74.0668 75.3798 74.2453 75.432 74.4759 75.432C74.6916 75.432 74.885 75.3798 75.0412 75.2829C75.1974 75.1786 75.3164 75.037 75.3908 74.8432L75.48 75.1115C75.4056 75.3053 75.2792 75.4543 75.1007 75.5661C74.9296 75.6928 74.7065 75.745 74.4313 75.745ZM75.4205 75.7152V75.0742L75.4056 74.9699V73.9041C75.4056 73.6581 75.3387 73.4718 75.1974 73.3376C75.0635 73.2035 74.8552 73.1364 74.5875 73.1364C74.4015 73.1364 74.223 73.1662 74.0594 73.2333C73.8883 73.2929 73.747 73.3749 73.6354 73.4793L73.4569 73.1886C73.6057 73.0619 73.7767 72.965 73.985 72.8979C74.1933 72.8308 74.409 72.7936 74.6321 72.7936C75.004 72.7936 75.2941 72.883 75.4949 73.0693C75.6957 73.2557 75.7999 73.5389 75.7999 73.9115V75.7003L75.4205 75.7152Z" fill="#212121"/>
<path d="M78.0461 75.745C77.7635 75.745 77.5032 75.6854 77.28 75.5587C77.0569 75.432 76.8784 75.2605 76.7519 75.037C76.6255 74.8134 76.5586 74.56 76.5586 74.2767C76.5586 73.9861 76.6255 73.7327 76.7519 73.5165C76.8784 73.3004 77.0569 73.1215 77.28 73.0023C77.5032 72.8756 77.7561 72.8159 78.0461 72.8159C78.2916 72.8159 78.5147 72.8607 78.7081 72.9575C78.909 73.0544 79.0577 73.196 79.1767 73.3824L78.8866 73.5836C78.7899 73.4345 78.6635 73.3302 78.5222 73.2557C78.3734 73.1886 78.2172 73.1513 78.0461 73.1513C77.8379 73.1513 77.6594 73.196 77.4957 73.2929C77.3321 73.3898 77.1982 73.5165 77.109 73.6879C77.0123 73.8594 76.9676 74.0532 76.9676 74.2842C76.9676 74.5152 77.0123 74.709 77.109 74.8804C77.2057 75.0519 77.3321 75.1786 77.4957 75.2755C77.6594 75.3723 77.8453 75.4171 78.0461 75.4171C78.2172 75.4171 78.3734 75.3798 78.5222 75.3127C78.6709 75.2456 78.7899 75.1338 78.8866 74.9922L79.1767 75.1935C79.0652 75.3798 78.909 75.5214 78.7081 75.6183C78.5147 75.7003 78.2916 75.745 78.0461 75.745Z" fill="#212121"/>
<path d="M79.5263 73.1588V72.8308H81.3114V73.1588H79.5263ZM80.88 75.745C80.6122 75.745 80.404 75.6705 80.2552 75.5289C80.1064 75.3873 80.0395 75.1786 80.0395 74.9103V72.2048H80.4263V74.8879C80.4263 75.0593 80.4709 75.186 80.5527 75.2755C80.6345 75.3649 80.761 75.4096 80.9246 75.4096C81.0957 75.4096 81.237 75.3574 81.3486 75.2606L81.4825 75.5438C81.4081 75.6108 81.3114 75.663 81.2072 75.7003C81.1106 75.7301 80.999 75.745 80.88 75.745Z" fill="#212121"/>
<path d="M82.1965 75.7152V72.8308H82.5684V73.6134L82.5312 73.4793C82.613 73.2631 82.7469 73.0917 82.9403 72.9799C83.1337 72.8681 83.3642 72.8085 83.6469 72.8085V73.1886C83.632 73.1886 83.6171 73.1886 83.6022 73.1886C83.5874 73.1886 83.5725 73.1886 83.5576 73.1886C83.2527 73.1886 83.0146 73.278 82.8436 73.4644C82.6725 73.6507 82.5832 73.9115 82.5832 74.2544V75.7301L82.1965 75.7152Z" fill="#212121"/>
<path d="M84.5469 72.1973C84.465 72.1973 84.3981 72.1675 84.346 72.1153C84.294 72.0632 84.2642 71.9961 84.2642 71.9141C84.2642 71.8321 84.294 71.7725 84.346 71.7203C84.3981 71.6682 84.465 71.6384 84.5469 71.6384C84.6287 71.6384 84.6956 71.6607 84.7477 71.7129C84.7998 71.7651 84.8295 71.8247 84.8295 71.9067C84.8295 71.9886 84.7998 72.0557 84.7477 72.1079C84.7031 72.1675 84.6361 72.1973 84.5469 72.1973ZM84.3535 75.7152V72.8308H84.7403V75.7152H84.3535Z" fill="#212121"/>
<path d="M87.2989 72.8085C87.5295 72.8085 87.7378 72.8532 87.9163 72.9426C88.0948 73.0321 88.2361 73.1662 88.3328 73.3526C88.4369 73.5389 88.4815 73.7699 88.4815 74.0457V75.7226H88.0948V74.083C88.0948 73.7774 88.0204 73.5463 87.8642 73.3973C87.7154 73.2408 87.4997 73.1662 87.2245 73.1662C87.0163 73.1662 86.8452 73.2035 86.689 73.2929C86.5328 73.3824 86.4212 73.4942 86.3394 73.6507C86.2576 73.8072 86.213 73.9935 86.213 74.2171V75.7301H85.8262V72.8458H86.1981V73.6358L86.1386 73.4867C86.2279 73.278 86.3766 73.1141 86.5774 72.9948C86.7783 72.8681 87.0163 72.8085 87.2989 72.8085Z" fill="#212121"/>
<path d="M90.6906 75.6108C90.4154 75.6108 90.17 75.5512 89.9543 75.432C89.7386 75.3127 89.56 75.1487 89.4336 74.9326C89.3072 74.7239 89.2477 74.478 89.2477 74.2022C89.2477 73.9264 89.3072 73.6879 89.4336 73.4718C89.56 73.2631 89.7311 73.0992 89.9543 72.9799C90.17 72.8607 90.4228 72.801 90.6906 72.801C90.9435 72.801 91.1741 72.8532 91.3823 72.9575C91.5906 73.0619 91.7468 73.2184 91.8732 73.4271C91.9922 73.6358 92.0518 73.8892 92.0518 74.1873C92.0518 74.4854 91.9922 74.7388 91.8732 74.9475C91.7542 75.1562 91.5906 75.3127 91.3823 75.4245C91.1741 75.5512 90.9435 75.6108 90.6906 75.6108ZM90.765 76.8108C90.5047 76.8108 90.2518 76.7735 90.0063 76.699C89.7609 76.6245 89.5675 76.5127 89.4187 76.3711L89.6195 76.0729C89.7534 76.1922 89.9245 76.2891 90.1179 76.3636C90.3187 76.4381 90.527 76.4679 90.7501 76.4679C91.1146 76.4679 91.3823 76.386 91.5534 76.2145C91.7245 76.0431 91.8137 75.7823 91.8137 75.4245V74.7016L91.8658 74.2097L91.8286 73.7177V72.8457H92.2005V75.3798C92.2005 75.8791 92.0815 76.2443 91.8361 76.4754C91.598 76.699 91.2336 76.8108 90.765 76.8108ZM90.7278 75.2605C90.9361 75.2605 91.1294 75.2158 91.2931 75.1264C91.4567 75.0369 91.5906 74.9102 91.6799 74.7537C91.7766 74.5972 91.8212 74.4109 91.8212 74.2022C91.8212 73.9935 91.7766 73.8072 91.6799 73.6507C91.5832 73.4942 91.4567 73.3675 91.2931 73.278C91.1294 73.1886 90.9435 73.1439 90.7278 73.1439C90.5195 73.1439 90.3336 73.1886 90.1625 73.278C89.9989 73.3675 89.865 73.4942 89.7758 73.6507C89.6791 73.8072 89.6344 73.9935 89.6344 74.2022C89.6344 74.4109 89.6791 74.5972 89.7758 74.7537C89.8724 74.9102 89.9989 75.0369 90.1625 75.1264C90.3336 75.2158 90.5195 75.2605 90.7278 75.2605Z" fill="#212121"/>
<path d="M96.4699 75.7525C96.1798 75.7525 95.912 75.7003 95.6666 75.6034C95.4211 75.5065 95.2129 75.3724 95.0269 75.1935C94.8484 75.0146 94.7071 74.8134 94.6104 74.5749C94.5137 74.3364 94.4616 74.0755 94.4616 73.7923C94.4616 73.5091 94.5137 73.2482 94.6104 73.0097C94.7145 72.7712 94.8484 72.5625 95.0344 72.3911C95.2129 72.2122 95.4286 72.0781 95.674 71.9812C95.9195 71.8843 96.1872 71.8321 96.4773 71.8321C96.7525 71.8321 97.0203 71.8769 97.2583 71.9737C97.5037 72.0706 97.712 72.2048 97.8756 72.3911L97.6153 72.652C97.4591 72.488 97.288 72.3762 97.0947 72.3017C96.9013 72.2271 96.7004 72.1973 96.4773 72.1973C96.2467 72.1973 96.031 72.2346 95.8377 72.3166C95.6368 72.3986 95.4658 72.5104 95.3244 72.652C95.1757 72.7936 95.0641 72.965 94.9823 73.1588C94.9005 73.3526 94.8558 73.5612 94.8558 73.7923C94.8558 74.0233 94.893 74.232 94.9823 74.4258C95.0641 74.6196 95.1757 74.7836 95.3244 74.9326C95.4732 75.0742 95.6443 75.186 95.8377 75.268C96.0385 75.35 96.2467 75.3873 96.4773 75.3873C96.693 75.3873 96.9013 75.35 97.0947 75.2755C97.288 75.2009 97.4591 75.0817 97.6153 74.9252L97.8756 75.186C97.7046 75.3724 97.5037 75.514 97.2583 75.6108C97.0203 75.7077 96.7525 75.7525 96.4699 75.7525Z" fill="#212121"/>
<path d="M99.7128 75.745C99.4301 75.745 99.1847 75.6854 98.9615 75.5587C98.7458 75.432 98.5673 75.2605 98.4409 75.037C98.3144 74.8134 98.2475 74.56 98.2475 74.2767C98.2475 73.9861 98.3144 73.7327 98.4409 73.5165C98.5673 73.3004 98.7458 73.1215 98.9615 73.0023C99.1772 72.8756 99.4301 72.8159 99.7128 72.8159C99.9954 72.8159 100.248 72.8756 100.471 73.0023C100.695 73.129 100.866 73.3004 100.992 73.5165C101.119 73.7327 101.178 73.9861 101.178 74.2767C101.178 74.56 101.119 74.8134 100.992 75.037C100.866 75.2605 100.695 75.432 100.471 75.5587C100.248 75.6854 99.9954 75.745 99.7128 75.745ZM99.7128 75.4022C99.921 75.4022 100.107 75.3574 100.263 75.2605C100.427 75.1637 100.553 75.037 100.643 74.8655C100.739 74.6941 100.784 74.5003 100.784 74.2767C100.784 74.0531 100.739 73.8519 100.643 73.6805C100.546 73.5091 100.419 73.3824 100.263 73.2855C100.107 73.1886 99.921 73.1439 99.7128 73.1439C99.5045 73.1439 99.326 73.1886 99.1624 73.2855C98.9987 73.3824 98.8723 73.5091 98.7756 73.6805C98.6789 73.8519 98.6343 74.0457 98.6343 74.2767C98.6343 74.5003 98.6789 74.6941 98.7756 74.8655C98.8723 75.037 98.9987 75.1711 99.1549 75.2605C99.326 75.3574 99.5119 75.4022 99.7128 75.4022Z" fill="#212121"/>
<path d="M105.574 72.8085C105.804 72.8085 106.013 72.8532 106.184 72.9426C106.355 73.0321 106.489 73.1662 106.593 73.3526C106.697 73.5389 106.742 73.7699 106.742 74.0457V75.7226H106.355V74.083C106.355 73.7774 106.28 73.5463 106.139 73.3973C105.998 73.2408 105.79 73.1662 105.529 73.1662C105.328 73.1662 105.157 73.2035 105.016 73.2929C104.875 73.3824 104.763 73.4942 104.681 73.6507C104.6 73.8072 104.562 73.9935 104.562 74.2171V75.7301H104.176V74.0904C104.176 73.7848 104.101 73.5538 103.96 73.4047C103.811 73.2482 103.61 73.1737 103.342 73.1737C103.149 73.1737 102.978 73.211 102.829 73.3004C102.681 73.3824 102.569 73.5016 102.495 73.6581C102.413 73.8147 102.376 74.001 102.376 74.2246V75.7376H101.989V72.8532H102.361V73.6358L102.301 73.5016C102.39 73.2929 102.532 73.129 102.725 73.0097C102.919 72.8905 103.149 72.8308 103.417 72.8308C103.7 72.8308 103.938 72.8979 104.138 73.0395C104.339 73.1811 104.466 73.3898 104.525 73.673L104.369 73.6134C104.451 73.3824 104.6 73.1886 104.815 73.047C105.016 72.8756 105.276 72.8085 105.574 72.8085Z" fill="#212121"/>
<path d="M107.79 76.781V72.8308H108.162V73.6954L108.125 74.2693L108.177 74.8506V76.7735L107.79 76.781ZM109.278 75.745C109.033 75.745 108.802 75.6854 108.601 75.5736C108.4 75.4618 108.237 75.2904 108.125 75.0742C108.006 74.8581 107.947 74.5898 107.947 74.2767C107.947 73.9637 108.006 73.6954 108.125 73.4793C108.244 73.2631 108.4 73.0992 108.601 72.9799C108.802 72.8681 109.025 72.8085 109.278 72.8085C109.553 72.8085 109.799 72.8681 110.014 72.9948C110.23 73.1141 110.401 73.2929 110.528 73.5091C110.654 73.7327 110.713 73.9861 110.713 74.2767C110.713 74.5674 110.654 74.8283 110.528 75.0444C110.401 75.2606 110.23 75.4394 110.014 75.5587C109.799 75.6854 109.553 75.745 109.278 75.745ZM109.248 75.4022C109.456 75.4022 109.635 75.3574 109.799 75.2606C109.962 75.1637 110.089 75.037 110.185 74.8655C110.282 74.6941 110.327 74.5003 110.327 74.2767C110.327 74.0531 110.282 73.8594 110.185 73.688C110.089 73.5165 109.962 73.3898 109.799 73.2929C109.635 73.196 109.456 73.1513 109.248 73.1513C109.04 73.1513 108.861 73.196 108.698 73.2929C108.534 73.3898 108.408 73.524 108.311 73.688C108.214 73.8594 108.17 74.0531 108.17 74.2767C108.17 74.5003 108.214 74.6941 108.311 74.8655C108.408 75.037 108.534 75.1711 108.698 75.2606C108.861 75.35 109.047 75.4022 109.248 75.4022Z" fill="#212121"/>
<path d="M112.305 75.745C112.09 75.745 111.904 75.7077 111.74 75.6407C111.584 75.5661 111.457 75.4692 111.375 75.3425C111.294 75.2158 111.249 75.0668 111.249 74.9028C111.249 74.7537 111.286 74.6196 111.353 74.4929C111.428 74.3736 111.539 74.2693 111.703 74.1948C111.866 74.1202 112.082 74.083 112.357 74.083H113.347V74.3736H112.365C112.09 74.3736 111.896 74.4258 111.785 74.5227C111.673 74.6196 111.621 74.7463 111.621 74.8879C111.621 75.0519 111.688 75.186 111.814 75.2829C111.941 75.3798 112.119 75.432 112.35 75.432C112.566 75.432 112.759 75.3798 112.915 75.2829C113.071 75.1786 113.19 75.037 113.265 74.8432L113.354 75.1115C113.28 75.3053 113.153 75.4543 112.975 75.5661C112.804 75.6928 112.58 75.745 112.305 75.745ZM113.294 75.7152V75.0742L113.28 74.9699V73.9041C113.28 73.6581 113.213 73.4718 113.071 73.3376C112.937 73.2035 112.729 73.1364 112.461 73.1364C112.275 73.1364 112.097 73.1662 111.933 73.2333C111.762 73.2929 111.621 73.3749 111.509 73.4793L111.331 73.1886C111.48 73.0619 111.651 72.965 111.859 72.8979C112.067 72.8308 112.283 72.7936 112.506 72.7936C112.878 72.7936 113.168 72.883 113.369 73.0693C113.57 73.2557 113.674 73.5389 113.674 73.9115V75.7003L113.294 75.7152Z" fill="#212121"/>
<path d="M116.195 72.8085C116.426 72.8085 116.634 72.8532 116.813 72.9426C116.991 73.0321 117.132 73.1662 117.229 73.3526C117.333 73.5389 117.378 73.7699 117.378 74.0457V75.7226H116.991V74.083C116.991 73.7774 116.917 73.5463 116.761 73.3973C116.612 73.2408 116.396 73.1662 116.121 73.1662C115.913 73.1662 115.742 73.2035 115.585 73.2929C115.429 73.3824 115.318 73.4942 115.236 73.6507C115.154 73.8072 115.109 73.9935 115.109 74.2171V75.7301H114.723V72.8458H115.094V73.6358L115.035 73.4867C115.124 73.278 115.273 73.1141 115.474 72.9948C115.682 72.8681 115.92 72.8085 116.195 72.8085Z" fill="#212121"/>
<path d="M118.397 76.8108C118.263 76.8108 118.137 76.7884 118.01 76.7437C117.891 76.699 117.78 76.6319 117.698 76.5425L117.876 76.2518C117.951 76.3189 118.032 76.3785 118.114 76.4158C118.196 76.453 118.293 76.4754 118.404 76.4754C118.531 76.4754 118.642 76.4381 118.739 76.3711C118.836 76.304 118.918 76.1773 119.007 75.9984L119.193 75.5736L119.237 75.5139L120.42 72.8383H120.807L119.364 76.0655C119.282 76.2518 119.193 76.4009 119.096 76.5127C118.999 76.6244 118.895 76.699 118.784 76.7437C118.665 76.7884 118.538 76.8108 118.397 76.8108ZM119.17 75.8046L117.846 72.8383H118.256L119.431 75.4841L119.17 75.8046Z" fill="#212121"/>
<path d="M2.20904 68.5081H1.03384V57.3582H8.66516V58.3793H2.20904V68.5081ZM2.08259 62.7543H7.96599V63.7754H2.08259V62.7543Z" fill="#00456F"/>
<path d="M16.7353 68.5081L21.8228 57.3582H22.9832L28.0707 68.5081H26.8286L22.1575 58.0439H22.6336L17.9625 68.5081H16.7353ZM18.7361 65.5268L19.0857 64.5728H25.5567L25.9063 65.5268H18.7361Z" fill="#00456F"/>
<path d="M40.9235 68.605C40.0978 68.605 39.302 68.4708 38.5508 68.2025C37.7921 67.9342 37.2045 67.5839 36.7954 67.1591L37.2566 66.2498C37.6508 66.6299 38.1789 66.9504 38.8408 67.2112C39.5028 67.4721 40.202 67.5988 40.9309 67.5988C41.6301 67.5988 42.2028 67.5094 42.6416 67.3379C43.0805 67.1665 43.4077 66.928 43.6085 66.6299C43.8168 66.3318 43.9209 66.0038 43.9209 65.6461C43.9209 65.2138 43.7945 64.8635 43.5491 64.5952C43.3036 64.3269 42.9763 64.1182 42.5747 63.9691C42.173 63.8126 41.7268 63.6785 41.2358 63.5667C40.7449 63.4474 40.2615 63.3282 39.7706 63.194C39.2797 63.0599 38.8334 62.881 38.4243 62.6574C38.0152 62.4338 37.688 62.1431 37.4425 61.7705C37.1971 61.3978 37.0706 60.9208 37.0706 60.332C37.0706 59.7805 37.2194 59.2737 37.5094 58.8116C37.7995 58.3495 38.2458 57.9769 38.8557 57.6936C39.4656 57.4104 40.2317 57.2688 41.1764 57.2688C41.8011 57.2688 42.4185 57.3583 43.0358 57.5297C43.6532 57.7011 44.1813 57.947 44.6276 58.2526L44.2333 59.1917C43.7573 58.8712 43.2515 58.6402 42.716 58.4911C42.1805 58.3421 41.6673 58.2675 41.1689 58.2675C40.4995 58.2675 39.9491 58.357 39.5177 58.5358C39.0863 58.7147 38.7665 58.9607 38.5582 59.2588C38.3499 59.5569 38.2458 59.9072 38.2458 60.2873C38.2458 60.7196 38.3723 61.0699 38.6177 61.3382C38.8632 61.6065 39.1979 61.8077 39.5995 61.9568C40.0086 62.1059 40.4549 62.24 40.9458 62.3518C41.4367 62.4711 41.9201 62.5978 42.4036 62.7319C42.8871 62.8735 43.3334 63.045 43.7424 63.2685C44.1515 63.4847 44.4788 63.7754 44.7242 64.1331C44.9697 64.4909 45.0961 64.9679 45.0961 65.5492C45.0961 66.0933 44.9474 66.5926 44.6499 67.0547C44.3523 67.5168 43.8986 67.8895 43.2887 68.1727C42.6565 68.4634 41.8755 68.605 40.9235 68.605Z" fill="#00456F"/>
<path d="M56.7513 68.5081H55.5761V57.3582H56.7513V68.5081ZM63.8248 63.3654H56.6249V62.3295H63.8248V63.3654ZM63.7132 57.3582H64.8736V68.5081H63.7132V57.3582Z" fill="#00456F"/>
<path d="M76.447 68.5081V57.3582H77.6222V68.5081H76.447Z" fill="#00456F"/>
<path d="M94.0526 68.605C93.2121 68.605 92.4385 68.4633 91.7245 68.1801C91.0105 67.8969 90.3857 67.5019 89.865 66.9876C89.3369 66.4734 88.9353 65.8697 88.6378 65.1914C88.3477 64.5058 88.1989 63.753 88.1989 62.9406C88.1989 62.1282 88.3477 61.3755 88.6378 60.6898C88.9278 60.0041 89.3369 59.4078 89.865 58.8936C90.3931 58.3793 91.003 57.9843 91.7171 57.7011C92.4237 57.4179 93.2046 57.2763 94.0526 57.2763C94.8856 57.2763 95.6592 57.4179 96.3732 57.7011C97.0798 57.9843 97.6971 58.3793 98.2252 58.8861C98.7533 59.3929 99.155 59.9966 99.4525 60.6823C99.7426 61.3755 99.8913 62.1282 99.8913 62.9406C99.8913 63.7604 99.7426 64.5132 99.4525 65.1989C99.1624 65.892 98.7533 66.4883 98.2252 66.9951C97.6971 67.5019 97.0798 67.8969 96.3732 68.1801C95.6666 68.4633 94.8931 68.605 94.0526 68.605ZM94.0526 67.5541C94.722 67.5541 95.3393 67.4423 95.9046 67.2112C96.4699 66.9802 96.9608 66.6597 97.3848 66.2423C97.8013 65.825 98.1285 65.333 98.3591 64.7741C98.5897 64.2151 98.7087 63.6039 98.7087 62.9332C98.7087 62.2624 98.5897 61.6512 98.3591 61.0922C98.1285 60.5333 97.8013 60.0488 97.3848 59.624C96.9682 59.2066 96.4773 58.8787 95.9046 58.6551C95.3393 58.424 94.722 58.3122 94.0526 58.3122C93.3832 58.3122 92.7658 58.424 92.1931 58.6551C91.6204 58.8861 91.122 59.2066 90.6981 59.624C90.2741 60.0414 89.9468 60.5333 89.7163 61.0922C89.4857 61.6512 89.3667 62.2624 89.3667 62.9332C89.3667 63.589 89.4857 64.2002 89.7163 64.7666C89.9468 65.333 90.2815 65.8175 90.6981 66.2423C91.122 66.6597 91.6204 66.9876 92.1931 67.2112C92.7658 67.4348 93.3832 67.5541 94.0526 67.5541Z" fill="#00456F"/>
<path d="M110.468 68.5081V57.3582H111.435L119.111 67.0398H118.605V57.3582H119.765V68.5081H118.799L111.137 58.8265H111.643V68.5081H110.468Z" fill="#00456F"/>
<path d="M6.00241 47.5276H36.7359V52.2081H0.602478V1.00543H35.6426V5.69342H6.00241V47.5276ZM5.41481 23.9013H32.4219V28.5073H5.41481V23.9013Z" fill="#46B2D0"/>
<path d="M101.297 52.4988C97.5335 52.4988 93.9187 51.8802 90.4675 50.6504C87.0163 49.4132 84.3461 47.8332 82.4643 45.8954L84.5618 41.7589C86.3469 43.5029 88.7493 44.9637 91.7691 46.1488C94.7889 47.3338 97.9649 47.9301 101.297 47.9301C104.488 47.9301 107.076 47.5276 109.085 46.7301C111.085 45.9326 112.566 44.8519 113.503 43.5029C114.447 42.1465 114.916 40.6484 114.916 39.0013C114.916 37.0187 114.351 35.4238 113.213 34.2089C112.075 33.0015 110.595 32.0475 108.757 31.3395C106.92 30.6389 104.89 30.0203 102.673 29.4911C100.449 28.962 98.2327 28.3881 96.0088 27.7844C93.7848 27.1807 91.7468 26.3683 89.8873 25.3547C88.0279 24.341 86.5328 22.992 85.3948 21.3225C84.2568 19.653 83.6916 17.4618 83.6916 14.7564C83.6916 12.2372 84.3535 9.92677 85.6849 7.82499C87.0163 5.72322 89.0543 4.02392 91.8063 2.74199C94.5584 1.46006 98.0839 0.819092 102.383 0.819092C105.232 0.819092 108.058 1.22156 110.862 2.01904C113.666 2.81652 116.076 3.91958 118.107 5.32076L116.299 9.60628C114.128 8.15293 111.822 7.08714 109.382 6.40891C106.943 5.73068 104.592 5.39529 102.316 5.39529C99.274 5.39529 96.76 5.80521 94.7815 6.6325C92.803 7.45234 91.3377 8.5554 90.4006 9.93422C89.4559 11.313 88.9874 12.8707 88.9874 14.6148C88.9874 16.5973 89.5526 18.1997 90.6906 19.4071C91.8286 20.6145 93.3237 21.561 95.1831 22.2393C97.0426 22.9175 99.0806 23.5212 101.305 24.0504C103.529 24.587 105.738 25.1609 107.932 25.7944C110.126 26.4204 112.156 27.2328 114.016 28.2241C115.875 29.2154 117.37 30.5346 118.508 32.1817C119.646 33.8288 120.212 35.9828 120.212 38.6435C120.212 41.1105 119.535 43.3986 118.181 45.5004C116.828 47.6021 114.767 49.3014 111.985 50.5834C109.204 51.8578 105.641 52.4988 101.297 52.4988Z" fill="#46B2D0"/>
<path d="M39.5475 52.2081H44.0847V32.0624L39.5475 27.5161V52.2081Z" fill="#00456F"/>
<path d="M51.5077 22.4852L72.9438 1.01288H66.5248L53.6424 13.9142L44.0846 23.4914V1.01288H39.5475V23.4839L41.8235 25.7646L44.0846 28.0303L45.0292 28.9769L46.9705 27.0316L51.5077 22.4852Z" fill="#00456F"/>
<path d="M58.2316 26.249L83.4164 1.01288H77.0049L51.5077 26.5546L46.9706 31.101V52.2081H51.5077V32.9866L54.7283 29.7594L55.0258 29.4613L55.3233 29.7594L77.3619 52.2081H83.7734L58.2316 26.249Z" fill="#00456F"/>
<path d="M51.5077 1.01288H46.9706V16.5824L51.5077 12.036V1.01288Z" fill="#00456F"/>
<path d="M54.6242 33.2549L54.4233 33.0612L54.401 33.0835V39.4634L67.0306 52.1709H67.0381L67.0753 52.2081H73.4942L54.6242 33.2549Z" fill="#00456F"/>
</svg>
