<svg width="34" height="32" viewBox="0 0 34 32" fill="none" xmlns="http://www.w3.org/2000/svg">
<path d="M23.9413 13.1303C18.8512 13.1303 14.6865 17.2949 14.6865 22.385C14.6865 27.4752 18.8512 31.6398 23.9413 31.6398C29.0314 31.6398 33.1961 27.4752 33.1961 22.385C33.1961 17.2949 29.0314 13.1303 23.9413 13.1303ZM28.2216 23.1948L24.6354 26.6654C24.404 26.8967 24.1727 27.0124 23.8256 27.0124C23.4786 27.0124 23.2472 26.8967 23.0158 26.6654C22.5531 26.2026 22.5531 25.5085 23.0158 25.0458L24.5197 23.5419H19.3139C18.6198 23.5419 18.1571 23.0792 18.1571 22.385C18.1571 21.6909 18.6198 21.2282 19.3139 21.2282H24.5197L23.0158 19.7243C22.5531 19.2616 22.5531 18.5675 23.0158 18.1047C23.4786 17.642 24.1727 17.642 24.6354 18.1047L28.2216 21.5753C28.453 21.8066 28.5687 22.038 28.5687 22.385C28.5687 22.7321 28.453 22.9635 28.2216 23.1948Z" fill="#00456F"/>
<path d="M12.4883 23.6576C12.3727 22.8132 12.3727 21.9569 12.4883 21.1125C12.4883 20.7655 12.604 20.3027 12.7197 19.9557C12.7197 19.84 12.7197 19.84 12.8354 19.7243C12.9511 19.3772 12.9511 19.1459 13.0668 18.7988C13.0668 18.6831 13.1825 18.5675 13.1825 18.4518C13.2981 18.2204 13.4138 17.8733 13.5295 17.642C13.5295 17.5263 13.6452 17.4106 13.7609 17.2949L14.1079 16.6008C14.2236 16.4851 14.2236 16.3694 14.3393 16.2538C14.455 16.0224 14.6864 15.791 14.802 15.5597C14.9177 15.444 14.9177 15.3283 15.0334 15.2126C15.2648 14.8655 15.6118 14.5185 15.8432 14.2871L16.653 13.4773C16.7687 13.3616 16.8844 13.3616 17 13.246C17.2314 13.1303 17.3471 12.8989 17.5785 12.7832C17.6942 12.6675 17.8098 12.6675 17.9255 12.5519C18.1569 12.4362 18.2726 12.3205 18.5039 12.2048C18.6196 12.0891 18.851 12.0891 18.9667 11.9734C19.0824 11.8577 19.3137 11.8577 19.4294 11.7421C19.5451 11.6264 19.7765 11.6264 19.8922 11.5107C20.0078 11.395 20.2392 11.395 20.3549 11.395C20.5863 11.2793 20.702 11.2793 20.9333 11.2793C21.049 11.2793 21.2804 11.1636 21.3961 11.1636C21.6274 11.1636 21.8588 11.048 21.9745 11.048H22.3215C22.5529 11.048 22.7843 10.9323 23.0156 10.9323H24.1725C26.4862 11.048 28.7999 11.7421 30.7665 13.246V6.1892C30.7665 2.95003 28.2215 0.404968 24.9823 0.404968H6.58843C3.34926 0.404968 0.804199 2.95003 0.804199 6.1892V28.1693C0.804199 28.632 1.03557 28.9791 1.49831 29.2104C1.61399 29.3261 1.84536 29.3261 1.96105 29.3261C2.19241 29.3261 2.53947 29.2104 2.77084 29.0948C5.54727 26.5497 8.90212 24.8144 12.4883 23.6576ZM10.059 8.50289H17C17.6942 8.50289 18.1569 8.96563 18.1569 9.65974C18.1569 10.3538 17.6942 10.8166 17 10.8166H10.059C9.36486 10.8166 8.90212 10.3538 8.90212 9.65974C8.90212 8.96563 9.36486 8.50289 10.059 8.50289ZM8.90212 14.2871C8.90212 13.593 9.36486 13.1303 10.059 13.1303H13.5295C14.2236 13.1303 14.6864 13.593 14.6864 14.2871C14.6864 14.9812 14.2236 15.444 13.5295 15.444H10.059C9.36486 15.444 8.90212 14.9812 8.90212 14.2871Z" fill="#00456F"/>
</svg>
