<svg width="21" height="22" viewBox="0 0 21 22" fill="none" xmlns="http://www.w3.org/2000/svg">
<path d="M0.225404 3.56719C0.121683 2.09669 1.36756 0.952149 2.83848 0.952149H5.98715C6.35676 0.952052 6.71812 1.06144 7.02562 1.26652C7.33312 1.47159 7.57297 1.76316 7.7149 2.10441L9.03178 5.27167C9.18804 5.64713 9.21811 6.06318 9.11745 6.45721C9.01679 6.85123 8.79086 7.2019 8.47366 7.45643L7.65254 8.11451C7.28643 8.40836 7.16172 8.91458 7.37904 9.33097C8.49402 11.4665 10.137 13.2811 12.1517 14.6021C12.5753 14.8799 13.1349 14.7691 13.4507 14.3734L14.3061 13.302C14.5592 12.9844 14.9091 12.7579 15.3025 12.657C15.696 12.5561 16.1116 12.5862 16.4864 12.7427L19.6465 14.0623C19.9876 14.205 20.279 14.4454 20.4838 14.7533C20.6886 15.0612 20.7978 15.4229 20.7976 15.7927V18.9578C20.7976 20.432 19.6131 21.6284 18.1456 21.524C8.76195 20.8564 0.890947 12.9918 0.225404 3.56719Z" fill="#3B9EBF"/>
</svg>
