<svg width="17" height="17" viewBox="0 0 17 17" fill="none" xmlns="http://www.w3.org/2000/svg">
<path d="M8.43694 16.2011C6.58611 16.2011 4.79257 15.5593 3.3619 14.385C1.93123 13.2108 0.951962 11.5769 0.590939 9.76164C0.229916 7.94637 0.509478 6.06207 1.38199 4.42981C2.25451 2.79755 3.66599 1.51832 5.37595 0.810073C7.0859 0.101829 8.98853 0.00839305 10.7596 0.545687C12.5308 1.08298 14.0608 2.21776 15.0891 3.75668C16.1173 5.29559 16.5801 7.14343 16.3987 8.98534C16.2173 10.8273 15.4028 12.5493 14.0941 13.858C13.3529 14.6032 12.4713 15.194 11.5002 15.5962C10.5292 15.9984 9.48798 16.204 8.43694 16.2011ZM8.43694 1.74902C4.87918 1.74902 1.9851 4.6431 1.9851 8.20085C1.9851 11.7586 4.87918 14.6527 8.43694 14.6527C11.9947 14.6527 14.8888 11.7586 14.8888 8.20085C14.8887 6.48974 14.2089 4.84874 12.999 3.63881C11.789 2.42887 10.148 1.7491 8.43694 1.74902Z" fill="white"/>
<path d="M8.44063 13.1046C8.37126 13.1046 8.30188 13.1046 8.23251 13.1003C7.44849 13.0675 6.68379 12.847 6.00266 12.4574C5.32153 12.0678 4.74386 11.5203 4.31818 10.8611C3.8925 10.2019 3.63126 9.45017 3.55639 8.66905C3.48152 7.88792 3.59522 7.10024 3.88793 6.37217C4.18064 5.6441 4.64381 4.99692 5.23853 4.48499C5.83325 3.97307 6.54215 3.61135 7.30567 3.43024C8.06919 3.24913 8.86502 3.25391 9.62631 3.44417C10.3876 3.63444 11.0921 4.00464 11.6806 4.52367C11.7569 4.59094 11.8191 4.67256 11.8639 4.76389C11.9086 4.85522 11.9348 4.95446 11.9412 5.05595C11.9476 5.15743 11.9339 5.25918 11.9009 5.35537C11.8679 5.45156 11.8163 5.54032 11.7491 5.61658C11.6818 5.69283 11.6002 5.75509 11.5089 5.7998C11.4175 5.84451 11.3183 5.87079 11.2168 5.87714C11.1153 5.8835 11.0136 5.8698 10.9174 5.83684C10.8212 5.80387 10.7324 5.75228 10.6562 5.68502C10.1719 5.25799 9.57476 4.97975 8.93631 4.8837C8.29786 4.78765 7.64526 4.87786 7.05681 5.14351C6.46836 5.40916 5.96906 5.83896 5.61883 6.38134C5.26859 6.92372 5.08229 7.55564 5.08229 8.20127C5.08229 8.8469 5.26859 9.47882 5.61883 10.0212C5.96906 10.5636 6.46836 10.9934 7.05681 11.259C7.64526 11.5247 8.29786 11.6149 8.93631 11.5188C9.57476 11.4228 10.1719 11.1446 10.6562 10.7175C10.7324 10.6503 10.8212 10.5987 10.9174 10.5657C11.0136 10.5327 11.1153 10.519 11.2168 10.5254C11.3183 10.5318 11.4175 10.558 11.5089 10.6027C11.6002 10.6475 11.6818 10.7097 11.7491 10.786C11.8163 10.8622 11.8679 10.951 11.9009 11.0472C11.9339 11.1434 11.9476 11.2451 11.9412 11.3466C11.9348 11.4481 11.9086 11.5473 11.8639 11.6386C11.8191 11.73 11.7569 11.8116 11.6806 11.8789C10.7869 12.6699 9.63419 13.106 8.44063 13.1046Z" fill="white"/>
</svg>
