<svg width="17" height="17" viewBox="0 0 17 17" fill="none" xmlns="http://www.w3.org/2000/svg">
<path fill-rule="evenodd" clip-rule="evenodd" d="M16.3566 16.7526H13.18V11.1936C13.18 9.66879 12.5074 8.81806 11.301 8.81806C9.98832 8.81885 9.20926 9.70452 9.20926 11.1936V16.7526H6.03267V6.42866H9.20926V7.58971C9.20926 7.58971 10.2059 5.8408 12.4518 5.8408C14.6976 5.8408 16.3566 7.2115 16.3566 10.0484V16.7526ZM2.41294 4.77763C1.34164 4.77763 0.473633 3.90228 0.473633 2.82323C0.473633 1.74418 1.34164 0.869629 2.41294 0.869629C3.48425 0.869629 4.35146 1.74478 4.35146 2.82323C4.35146 3.90169 3.48345 4.77763 2.41294 4.77763ZM0.473633 16.7526H4.44437V6.42866H0.473633V16.7526Z" fill="white"/>
</svg>
