<svg width="21" height="29" viewBox="0 0 21 29" fill="none" xmlns="http://www.w3.org/2000/svg">
<path d="M10.5086 0.965332C4.82666 0.965332 0.219604 5.57238 0.219604 11.2543C0.219604 13.4918 0.953207 15.5448 2.17245 17.2263C2.19406 17.2665 2.19783 17.3114 2.22252 17.3501L9.08183 27.6391C9.23843 27.874 9.45059 28.0665 9.69947 28.1997C9.94836 28.3329 10.2263 28.4026 10.5086 28.4026C10.7908 28.4026 11.0688 28.3329 11.3176 28.1997C11.5665 28.0665 11.7787 27.874 11.9353 27.6391L18.7946 17.3501C18.82 17.3114 18.8231 17.2665 18.8447 17.2263C20.0639 15.5448 20.7975 13.4918 20.7975 11.2543C20.7975 5.57238 16.1908 0.965332 10.5086 0.965332ZM10.5086 14.6839C9.83024 14.6839 9.16715 14.4828 8.60315 14.1059C8.03914 13.7291 7.59956 13.1934 7.33998 12.5668C7.08039 11.9401 7.01247 11.2505 7.14481 10.5852C7.27714 9.91991 7.60378 9.3088 8.08343 8.82916C8.56308 8.34951 9.17418 8.02287 9.83947 7.89054C10.5048 7.7582 11.1943 7.82612 11.821 8.0857C12.4477 8.34528 12.9834 8.78487 13.3602 9.34888C13.7371 9.91288 13.9382 10.576 13.9382 11.2543C13.9382 12.1639 13.5769 13.0362 12.9337 13.6794C12.2905 14.3226 11.4182 14.6839 10.5086 14.6839Z" fill="#3B9EBF"/>
</svg>
