<svg width="122" height="77" viewBox="0 0 122 77" fill="none" xmlns="http://www.w3.org/2000/svg">
<path d="M0.986694 75.71L2.74205 71.8643H3.14369L4.89905 75.71H4.47508L2.86105 72.1028H3.02469L1.41066 75.71H0.986694ZM1.67842 74.689L1.79743 74.361H4.02881L4.14781 74.689H1.67842Z" fill="white"/>
<path d="M7.71803 75.71V72.2145H6.37177V71.8643H9.47338V72.2145H8.12711V75.71H7.71803Z" fill="white"/>
<path d="M10.9535 75.74C10.656 75.74 10.3882 75.6804 10.1651 75.5537C9.93451 75.427 9.76343 75.2555 9.63699 75.0319C9.51054 74.8083 9.4436 74.5549 9.4436 74.2717C9.4436 73.9885 9.50311 73.7351 9.62955 73.5115C9.74856 73.2954 9.91963 73.1165 10.1353 72.9898C10.351 72.8631 10.589 72.8035 10.8568 72.8035C11.1246 72.8035 11.37 72.8631 11.5783 72.9898C11.7866 73.109 11.9502 73.2879 12.0766 73.5041C12.1956 73.7277 12.2551 73.9811 12.2551 74.2717C12.2551 74.2866 12.2551 74.309 12.2551 74.3313C12.2551 74.3537 12.2551 74.3686 12.2551 74.391H9.74856V74.1003H12.0469L11.8907 74.2121C11.8907 74.0034 11.8461 73.8171 11.7568 73.6531C11.6675 73.4892 11.5485 73.3625 11.3923 73.273C11.2361 73.1836 11.0651 73.1389 10.8642 73.1389C10.6634 73.1389 10.4924 73.1836 10.3287 73.273C10.1725 73.3625 10.0461 73.4892 9.96426 73.6606C9.88244 73.832 9.83038 74.0109 9.83038 74.227V74.2866C9.83038 74.5028 9.88244 74.6965 9.97914 74.868C10.0758 75.0319 10.2097 75.1661 10.3882 75.2555C10.5593 75.3524 10.7601 75.3971 10.9833 75.3971C11.1618 75.3971 11.3254 75.3673 11.4742 75.3003C11.6229 75.2406 11.7568 75.1437 11.8684 75.017L12.0841 75.2704C11.9576 75.427 11.794 75.5388 11.608 75.6207C11.3923 75.7027 11.1841 75.74 10.9535 75.74Z" fill="white"/>
<path d="M12.5229 75.7101L13.7427 74.1301L13.7353 74.3239L12.575 72.8333H13.0138L13.9659 74.0705L13.8022 74.063L14.7543 72.8333H15.1783L14.0105 74.3462L14.0179 74.1375L15.2452 75.7176H14.7989L13.7948 74.3984L13.951 74.4208L12.9618 75.7176H12.5229V75.7101Z" fill="white"/>
<path d="M15.4386 73.1537V72.8258H17.2237V73.1537H15.4386ZM16.7997 75.7399C16.532 75.7399 16.3237 75.6654 16.175 75.5238C16.0262 75.3747 15.9593 75.1735 15.9593 74.9052V72.1997H16.346V74.8828C16.346 75.0542 16.3907 75.1809 16.4725 75.2704C16.5543 75.3598 16.6807 75.4045 16.8444 75.4045C17.0154 75.4045 17.1568 75.3524 17.2683 75.2555L17.4022 75.5387C17.3278 75.6058 17.2311 75.6579 17.127 75.6952C17.0229 75.725 16.9113 75.7399 16.7997 75.7399Z" fill="white"/>
<path d="M18.3096 72.1923C18.2278 72.1923 18.1609 72.1625 18.1088 72.1103C18.0567 72.0581 18.027 71.991 18.027 71.9091C18.027 71.8271 18.0567 71.7675 18.1088 71.7153C18.1609 71.6631 18.2278 71.6333 18.3096 71.6333C18.3914 71.6333 18.4584 71.6557 18.5104 71.7078C18.5625 71.76 18.5923 71.8196 18.5923 71.9016C18.5923 71.9836 18.5625 72.0507 18.5104 72.1028C18.4658 72.1625 18.3914 72.1923 18.3096 72.1923ZM18.1162 75.7101V72.8258H18.503V75.7101H18.1162Z" fill="white"/>
<path d="M19.589 75.7101V71.6333H19.9757V75.7101H19.589Z" fill="white"/>
<path d="M22.2815 75.74C21.984 75.74 21.7162 75.6804 21.4931 75.5537C21.2625 75.427 21.0914 75.2555 20.965 75.0319C20.8385 74.8083 20.7716 74.5549 20.7716 74.2717C20.7716 73.9885 20.8311 73.7351 20.9575 73.5115C21.0765 73.2954 21.2476 73.1165 21.4633 72.9898C21.679 72.8631 21.917 72.8035 22.1848 72.8035C22.4525 72.8035 22.698 72.8631 22.9063 72.9898C23.1145 73.109 23.2782 73.2879 23.4046 73.5041C23.5236 73.7277 23.5831 73.9811 23.5831 74.2717C23.5831 74.2866 23.5831 74.309 23.5831 74.3313C23.5831 74.3537 23.5831 74.3686 23.5831 74.391H21.0765V74.1003H23.3749L23.2186 74.2121C23.2186 74.0034 23.174 73.8171 23.0848 73.6531C22.9955 73.4892 22.8765 73.3625 22.7203 73.273C22.5641 73.1836 22.393 73.1389 22.1922 73.1389C21.9914 73.1389 21.8203 73.1836 21.6567 73.273C21.5005 73.3625 21.374 73.4892 21.2922 73.6606C21.203 73.8245 21.1583 74.0109 21.1583 74.227V74.2866C21.1583 74.5028 21.2104 74.6965 21.3071 74.868C21.4038 75.0319 21.5377 75.1661 21.7162 75.2555C21.8873 75.3524 22.0881 75.3971 22.3112 75.3971C22.4897 75.3971 22.6534 75.3673 22.8021 75.3003C22.9509 75.2406 23.0848 75.1437 23.1963 75.017L23.412 75.2704C23.2856 75.427 23.122 75.5388 22.936 75.6207C22.7277 75.7027 22.512 75.74 22.2815 75.74Z" fill="white"/>
<path d="M26.9525 75.7472C26.6699 75.7472 26.3947 75.7025 26.1343 75.6056C25.874 75.5087 25.6732 75.3895 25.5319 75.2479L25.6881 74.9348C25.8219 75.069 26.0079 75.1808 26.231 75.2702C26.4616 75.3597 26.6996 75.4044 26.9525 75.4044C27.1905 75.4044 27.3913 75.3746 27.5401 75.3149C27.6889 75.2553 27.8004 75.1733 27.8748 75.069C27.9492 74.9647 27.9789 74.8529 27.9789 74.7262C27.9789 74.5771 27.9343 74.4578 27.8525 74.361C27.7632 74.2715 27.6517 74.197 27.5178 74.1448C27.3765 74.0926 27.2277 74.0479 27.0566 74.0032C26.8856 73.9585 26.7219 73.9212 26.5509 73.8765C26.3798 73.8318 26.231 73.7722 26.0897 73.6902C25.9484 73.6156 25.8368 73.5113 25.7476 73.3846C25.6583 73.2579 25.6211 73.0939 25.6211 72.8852C25.6211 72.6915 25.6732 72.52 25.7699 72.3635C25.8666 72.207 26.0228 72.0729 26.231 71.976C26.4393 71.8791 26.707 71.8269 27.0343 71.8269C27.25 71.8269 27.4657 71.8567 27.674 71.9163C27.8897 71.976 28.0682 72.0579 28.2244 72.1697L28.0905 72.4977C27.9269 72.3859 27.7484 72.3039 27.5698 72.2592C27.3839 72.207 27.2054 72.1846 27.0343 72.1846C26.8037 72.1846 26.6104 72.2145 26.4616 72.2815C26.3128 72.3412 26.2013 72.4306 26.1269 72.5349C26.0525 72.6393 26.0228 72.7585 26.0228 72.8852C26.0228 73.0343 26.0674 73.1536 26.1492 73.2504C26.231 73.3473 26.35 73.4144 26.4913 73.4666C26.6327 73.5188 26.7889 73.5635 26.9525 73.6007C27.1236 73.638 27.2872 73.6827 27.4508 73.7349C27.6145 73.7796 27.7707 73.8467 27.912 73.9212C28.0533 73.9958 28.1649 74.0926 28.2541 74.2193C28.336 74.346 28.3806 74.51 28.3806 74.7112C28.3806 74.8976 28.3285 75.069 28.2244 75.233C28.1203 75.3895 27.9641 75.5236 27.7558 75.6205C27.5475 75.6951 27.2798 75.7472 26.9525 75.7472Z" fill="white"/>
<path d="M30.3516 75.7399C30.069 75.7399 29.8235 75.6802 29.6004 75.5535C29.3847 75.4268 29.2062 75.2554 29.0797 75.0318C28.9533 74.8082 28.8864 74.5548 28.8864 74.2716C28.8864 73.9809 28.9533 73.7275 29.0797 73.5114C29.2062 73.2952 29.3847 73.1164 29.6004 72.9971C29.8161 72.8704 30.069 72.8108 30.3516 72.8108C30.6343 72.8108 30.8872 72.8704 31.1103 72.9971C31.3334 73.1238 31.5045 73.2952 31.6309 73.5114C31.7574 73.7275 31.8169 73.9809 31.8169 74.2716C31.8169 74.5548 31.7574 74.8082 31.6309 75.0318C31.5045 75.2554 31.3334 75.4268 31.1103 75.5535C30.8872 75.6802 30.6343 75.7399 30.3516 75.7399ZM30.3516 75.397C30.5599 75.397 30.7458 75.3523 30.902 75.2554C31.0657 75.1585 31.1921 75.0318 31.2814 74.8604C31.3781 74.689 31.4227 74.4952 31.4227 74.2716C31.4227 74.048 31.3781 73.8468 31.2814 73.6753C31.1847 73.5039 31.0582 73.3772 30.902 73.2803C30.7384 73.1834 30.5599 73.1387 30.3516 73.1387C30.1434 73.1387 29.9648 73.1834 29.8012 73.2803C29.6376 73.3772 29.5111 73.5039 29.4144 73.6753C29.3178 73.8468 29.2731 74.0405 29.2731 74.2716C29.2731 74.4952 29.3178 74.689 29.4144 74.8604C29.5111 75.0318 29.6376 75.166 29.7938 75.2554C29.9648 75.3523 30.1508 75.397 30.3516 75.397Z" fill="white"/>
<path d="M33.8103 75.7398C33.5648 75.7398 33.3491 75.6951 33.1706 75.6057C32.9847 75.5162 32.8434 75.3746 32.7467 75.1958C32.6425 75.0094 32.5979 74.7858 32.5979 74.5101V72.8331H32.9847V74.4654C32.9847 74.7709 33.059 75.002 33.2152 75.1585C33.364 75.315 33.5797 75.3895 33.8549 75.3895C34.0557 75.3895 34.2268 75.3523 34.3756 75.2628C34.5243 75.1809 34.6359 75.0616 34.7177 74.9051C34.7995 74.7486 34.8367 74.5622 34.8367 74.3387V72.8257H35.2235V75.71H34.8516V74.9275L34.9111 75.0691C34.8218 75.2777 34.6805 75.4492 34.4871 75.5684C34.2863 75.6802 34.0632 75.7398 33.8103 75.7398Z" fill="white"/>
<path d="M36.302 75.7102V72.8258H36.6739V73.6084L36.6367 73.4742C36.7185 73.2581 36.8524 73.0867 37.0458 72.9749C37.2392 72.8631 37.4697 72.8035 37.7524 72.8035V73.1836C37.7375 73.1836 37.7226 73.1836 37.7077 73.1836C37.6929 73.1836 37.678 73.1836 37.6631 73.1836C37.3582 73.1836 37.1201 73.273 36.9491 73.4593C36.778 73.6457 36.6887 73.9065 36.6887 74.2494V75.7251L36.302 75.7102Z" fill="white"/>
<path d="M39.6193 75.7399C39.3366 75.7399 39.0763 75.6802 38.8532 75.5535C38.63 75.4268 38.4515 75.2554 38.3251 75.0318C38.1986 74.8082 38.1317 74.5548 38.1317 74.2716C38.1317 73.9809 38.1986 73.7275 38.3251 73.5114C38.4515 73.2952 38.63 73.1164 38.8532 72.9971C39.0763 72.8704 39.3292 72.8108 39.6193 72.8108C39.8647 72.8108 40.0879 72.8555 40.2812 72.9524C40.4821 73.0493 40.6308 73.1909 40.7498 73.3772L40.4598 73.5785C40.3631 73.4294 40.2366 73.3251 40.0953 73.2505C39.9465 73.1834 39.7903 73.1462 39.6193 73.1462C39.411 73.1462 39.2325 73.1909 39.0689 73.2878C38.9052 73.3847 38.7713 73.5114 38.6821 73.6828C38.5854 73.8542 38.5408 74.048 38.5408 74.2791C38.5408 74.5101 38.5854 74.7039 38.6821 74.8753C38.7788 75.0467 38.9052 75.1734 39.0689 75.2703C39.2325 75.3672 39.4184 75.4119 39.6193 75.4119C39.7903 75.4119 39.9465 75.3747 40.0953 75.3076C40.2441 75.2405 40.3631 75.1287 40.4598 74.9871L40.7498 75.1883C40.6383 75.3747 40.4821 75.5163 40.2812 75.6131C40.0879 75.6951 39.8647 75.7399 39.6193 75.7399Z" fill="white"/>
<path d="M41.6647 72.1923C41.5829 72.1923 41.516 72.1625 41.4639 72.1103C41.4118 72.0581 41.3821 71.991 41.3821 71.9091C41.3821 71.8271 41.4118 71.7675 41.4639 71.7153C41.516 71.6631 41.5829 71.6333 41.6647 71.6333C41.7465 71.6333 41.8135 71.6557 41.8655 71.7078C41.9176 71.76 41.9474 71.8196 41.9474 71.9016C41.9474 71.9836 41.9176 72.0507 41.8655 72.1028C41.8209 72.1625 41.754 72.1923 41.6647 72.1923ZM41.4713 75.7101V72.8258H41.8581V75.7101H41.4713Z" fill="white"/>
<path d="M44.4168 72.8035C44.6473 72.8035 44.8556 72.8482 45.0341 72.9376C45.2126 73.0271 45.3539 73.1612 45.4506 73.3475C45.5548 73.5339 45.5994 73.7649 45.5994 74.0407V75.7176H45.2126V74.0779C45.2126 73.7724 45.1383 73.5413 44.9821 73.3923C44.8333 73.2357 44.6176 73.1612 44.3424 73.1612C44.1341 73.1612 43.9631 73.1985 43.8069 73.2879C43.6581 73.3699 43.5391 73.4892 43.4573 73.6457C43.3755 73.8022 43.3308 73.9885 43.3308 74.2121V75.7251H42.9441V72.8407H43.316V73.6308L43.2565 73.4817C43.3457 73.273 43.4945 73.109 43.6953 72.9898C43.8961 72.8631 44.1341 72.8035 44.4168 72.8035Z" fill="white"/>
<path d="M47.8085 75.6057C47.5333 75.6057 47.2878 75.5461 47.0721 75.4268C46.8564 75.3076 46.6779 75.1436 46.5515 74.9275C46.425 74.7188 46.3655 74.4728 46.3655 74.1971C46.3655 73.9213 46.425 73.6828 46.5515 73.4667C46.6779 73.258 46.849 73.094 47.0721 72.9748C47.2878 72.8555 47.5407 72.7959 47.8085 72.7959C48.0614 72.7959 48.2919 72.8481 48.5002 72.9524C48.7085 73.0568 48.8646 73.2133 48.9911 73.422C49.1101 73.6306 49.1696 73.884 49.1696 74.1822C49.1696 74.4803 49.1101 74.7337 48.9911 74.9424C48.8721 75.1511 48.7085 75.3076 48.5002 75.4194C48.2919 75.5461 48.0614 75.6057 47.8085 75.6057ZM47.8754 76.8057C47.6151 76.8057 47.3622 76.7684 47.1167 76.6939C46.8713 76.6193 46.6779 76.5075 46.5291 76.3659L46.73 76.0678C46.8639 76.1871 47.0349 76.2839 47.2283 76.3585C47.4291 76.433 47.6374 76.4628 47.8605 76.4628C48.225 76.4628 48.4928 76.3808 48.6638 76.2094C48.8349 76.038 48.9242 75.7771 48.9242 75.4194V74.6964L48.9762 74.2045L48.939 73.7126V72.8406H49.3109V75.3747C49.3109 75.874 49.1919 76.2392 48.9465 76.4703C48.7085 76.6939 48.3514 76.8057 47.8754 76.8057ZM47.8457 75.2554C48.0539 75.2554 48.2473 75.2107 48.4109 75.1213C48.5746 75.0318 48.7085 74.9051 48.7977 74.7486C48.887 74.5921 48.939 74.4058 48.939 74.1971C48.939 73.9884 48.8944 73.8021 48.7977 73.6456C48.701 73.489 48.5746 73.3623 48.4109 73.2729C48.2473 73.1835 48.0614 73.1387 47.8457 73.1387C47.6374 73.1387 47.4514 73.1835 47.2804 73.2729C47.1167 73.3623 46.9829 73.489 46.8936 73.6456C46.7969 73.8021 46.7523 73.9884 46.7523 74.1971C46.7523 74.4058 46.7969 74.5921 46.8936 74.7486C46.9903 74.9051 47.1167 75.0318 47.2804 75.1213C47.4514 75.2107 47.6374 75.2554 47.8457 75.2554Z" fill="white"/>
<path d="M52.8588 75.7473C52.6134 75.7473 52.3902 75.7101 52.1968 75.6206C52.0035 75.5312 51.8473 75.4269 51.7357 75.2778C51.6241 75.1287 51.5721 74.9573 51.5721 74.7635C51.5721 74.5996 51.6092 74.4505 51.6836 74.3089C51.758 74.1747 51.877 74.0331 52.0332 73.899C52.1968 73.7648 52.4125 73.6232 52.6803 73.4816C52.9109 73.3549 53.0894 73.2431 53.2233 73.1462C53.3497 73.0493 53.4464 72.9599 53.4985 72.8779C53.5505 72.7959 53.5803 72.699 53.5803 72.6021C53.5803 72.4605 53.5282 72.3413 53.4315 72.2593C53.3348 72.1699 53.1935 72.1251 53.015 72.1251C52.8216 72.1251 52.6729 72.1773 52.5687 72.2742C52.4646 72.3711 52.4125 72.4978 52.4125 72.6469C52.4125 72.7214 52.4274 72.7959 52.4497 72.863C52.472 72.9301 52.5167 73.0121 52.5836 73.094C52.6505 73.176 52.7472 73.2878 52.8663 73.4145L54.8968 75.5088L54.6737 75.7697L52.5613 73.5859C52.4348 73.4518 52.3307 73.3325 52.2563 73.2357C52.182 73.1388 52.1299 73.0419 52.1001 72.945C52.0704 72.8555 52.0555 72.7587 52.0555 72.6543C52.0555 72.4903 52.0927 72.3487 52.1745 72.222C52.2563 72.1028 52.3679 72.0059 52.5092 71.9388C52.658 71.8717 52.8291 71.8345 53.0224 71.8345C53.201 71.8345 53.3571 71.8643 53.491 71.9239C53.6249 71.9835 53.7291 72.073 53.8034 72.1848C53.8778 72.2966 53.915 72.4382 53.915 72.5947C53.915 72.7363 53.8778 72.863 53.8109 72.9822C53.7439 73.1015 53.6324 73.2207 53.4762 73.3325C53.32 73.4443 53.1117 73.5785 52.8514 73.7201C52.6208 73.8468 52.4423 73.9661 52.3084 74.0704C52.1745 74.1747 52.0778 74.2791 52.0258 74.3834C51.9737 74.4878 51.9439 74.5921 51.9439 74.7188C51.9439 74.8604 51.9811 74.9797 52.063 75.084C52.1448 75.1884 52.2489 75.2703 52.3902 75.3225C52.5315 75.3821 52.6952 75.4045 52.8737 75.4045C53.1266 75.4045 53.3572 75.3523 53.558 75.248C53.7588 75.1436 53.9299 74.9797 54.0638 74.7635C54.1976 74.5474 54.3018 74.2791 54.3613 73.9512L54.6737 74.048C54.6067 74.4132 54.4877 74.7188 54.3166 74.9722C54.1456 75.2256 53.9373 75.412 53.6919 75.5387C53.4538 75.6803 53.1712 75.7473 52.8588 75.7473Z" fill="white"/>
<path d="M57.024 75.7099V71.8716H57.3587L59.1141 74.8677H58.9356L60.676 71.8716H61.0108V75.7174H60.624V72.4827H60.7207L59.1215 75.2255H58.9281L57.3141 72.4827H57.4182V75.7174H57.024V75.7099Z" fill="white"/>
<path d="M62.9893 75.7398C62.7736 75.7398 62.5876 75.7025 62.424 75.6354C62.2678 75.5609 62.1413 75.464 62.0595 75.3373C61.9777 75.2106 61.9331 75.0615 61.9331 74.8975C61.9331 74.7485 61.9703 74.6143 62.0372 74.4876C62.1116 74.3684 62.2232 74.264 62.3868 74.1895C62.5504 74.115 62.7661 74.0777 63.0413 74.0777H64.0306V74.3684H63.0488C62.7736 74.3684 62.5802 74.4206 62.4686 74.5174C62.357 74.6143 62.305 74.741 62.305 74.8826C62.305 75.0466 62.3719 75.1808 62.4984 75.2777C62.6248 75.3745 62.8033 75.4267 63.0339 75.4267C63.2496 75.4267 63.443 75.3745 63.5992 75.2777C63.7554 75.1733 63.8744 75.0317 63.9488 74.8379L64.038 75.1062C63.9636 75.3 63.8372 75.4491 63.6587 75.5609C63.495 75.6876 63.2645 75.7398 62.9893 75.7398ZM63.986 75.7099V75.069L63.9711 74.9646V73.8988C63.9711 73.6529 63.9041 73.4666 63.7628 73.3324C63.6289 73.1982 63.4207 73.1312 63.1529 73.1312C62.9669 73.1312 62.7884 73.161 62.6248 73.2281C62.4537 73.2877 62.3124 73.3697 62.2008 73.474L62.0223 73.1833C62.1711 73.0566 62.3422 72.9597 62.5504 72.8927C62.7587 72.8256 62.9744 72.7883 63.1975 72.7883C63.5694 72.7883 63.8595 72.8778 64.0603 73.0641C64.2612 73.2504 64.3653 73.5336 64.3653 73.9063V75.695L63.986 75.7099Z" fill="white"/>
<path d="M66.8867 72.8035C67.1173 72.8035 67.3256 72.8482 67.5041 72.9376C67.6826 73.0271 67.8239 73.1612 67.9206 73.3475C68.0247 73.5339 68.0694 73.7649 68.0694 74.0407V75.7176H67.6826V74.0779C67.6826 73.7724 67.6082 73.5413 67.452 73.3923C67.3033 73.2357 67.0876 73.1612 66.8124 73.1612C66.6041 73.1612 66.433 73.1985 66.2768 73.2879C66.1206 73.3774 66.0091 73.4892 65.9273 73.6457C65.8454 73.8022 65.8008 73.9885 65.8008 74.2121V75.7251H65.414V72.8407H65.7859V73.6308L65.7264 73.4817C65.8157 73.273 65.9644 73.109 66.1653 72.9898C66.3661 72.8631 66.6041 72.8035 66.8867 72.8035Z" fill="white"/>
<path d="M70.3082 75.7398C70.0628 75.7398 69.8471 75.6951 69.6685 75.6057C69.49 75.5162 69.3413 75.3746 69.2446 75.1958C69.1405 75.0094 69.0958 74.7858 69.0958 74.5101V72.8331H69.4826V74.4654C69.4826 74.7709 69.557 75.002 69.7132 75.1585C69.8619 75.315 70.0776 75.3895 70.3528 75.3895C70.5537 75.3895 70.7247 75.3523 70.8735 75.2628C71.0222 75.1809 71.1338 75.0616 71.2156 74.9051C71.2975 74.7486 71.3346 74.5622 71.3346 74.3387V72.8257H71.7214V75.71H71.3495V74.9275L71.409 75.0691C71.3198 75.2777 71.1784 75.4492 70.9851 75.5684C70.7917 75.6802 70.5685 75.7398 70.3082 75.7398Z" fill="white"/>
<path d="M72.3536 73.1536V72.8257H74.1387V73.1536H72.3536ZM72.8668 75.71V72.4679C72.8668 72.2145 72.9412 72.0058 73.09 71.8493C73.2387 71.6928 73.4544 71.6108 73.7371 71.6108C73.8486 71.6108 73.9528 71.6257 74.0569 71.6556C74.161 71.6854 74.2428 71.7301 74.3172 71.7897L74.1833 72.0804C74.1313 72.0357 74.0643 71.9984 73.99 71.976C73.9156 71.9537 73.8412 71.9388 73.7519 71.9388C73.5883 71.9388 73.4619 71.9835 73.3726 72.0729C73.2833 72.1624 73.2387 72.304 73.2387 72.4828V72.9226L73.2536 73.1015V75.71H72.8668Z" fill="white"/>
<path d="M75.418 75.7398C75.2023 75.7398 75.0164 75.7025 74.8527 75.6354C74.6966 75.5609 74.5701 75.464 74.4883 75.3373C74.4065 75.2106 74.3618 75.0615 74.3618 74.8975C74.3618 74.7485 74.399 74.6143 74.466 74.4876C74.5403 74.3684 74.6519 74.264 74.8156 74.1895C74.9792 74.115 75.1949 74.0777 75.4701 74.0777H76.4593V74.3684H75.4775C75.2023 74.3684 75.0089 74.4206 74.8974 74.5174C74.7858 74.6143 74.7337 74.741 74.7337 74.8826C74.7337 75.0466 74.8007 75.1808 74.9271 75.2777C75.0536 75.3745 75.2321 75.4267 75.4627 75.4267C75.6784 75.4267 75.8717 75.3745 76.0279 75.2777C76.1841 75.1733 76.3031 75.0317 76.3775 74.8379L76.4668 75.1062C76.3924 75.3 76.266 75.4491 76.0874 75.5609C75.9164 75.6876 75.6932 75.7398 75.418 75.7398ZM76.4073 75.7099V75.069L76.3924 74.9646V73.8988C76.3924 73.6529 76.3255 73.4666 76.1841 73.3324C76.0503 73.1982 75.842 73.1312 75.5742 73.1312C75.3883 73.1312 75.2098 73.161 75.0461 73.2281C74.8751 73.2877 74.7337 73.3697 74.6222 73.474L74.4437 73.1833C74.5924 73.0566 74.7635 72.9597 74.9718 72.8927C75.18 72.8256 75.3957 72.7883 75.6188 72.7883C75.9907 72.7883 76.2808 72.8778 76.4817 73.0641C76.6825 73.2504 76.7866 73.5336 76.7866 73.9063V75.695L76.4073 75.7099Z" fill="white"/>
<path d="M79.0329 75.7399C78.7502 75.7399 78.4899 75.6802 78.2668 75.5535C78.0436 75.4268 77.8651 75.2554 77.7387 75.0318C77.6122 74.8082 77.5453 74.5548 77.5453 74.2716C77.5453 73.9809 77.6122 73.7275 77.7387 73.5114C77.8651 73.2952 78.0436 73.1164 78.2668 72.9971C78.4899 72.8704 78.7428 72.8108 79.0329 72.8108C79.2783 72.8108 79.5015 72.8555 79.6949 72.9524C79.8957 73.0493 80.0444 73.1909 80.1634 73.3772L79.8734 73.5785C79.7767 73.4294 79.6502 73.3251 79.5089 73.2505C79.3601 73.1834 79.2039 73.1462 79.0329 73.1462C78.8246 73.1462 78.6461 73.1909 78.4825 73.2878C78.3188 73.3847 78.185 73.5114 78.0957 73.6828C77.999 73.8542 77.9544 74.048 77.9544 74.2791C77.9544 74.5101 77.999 74.7039 78.0957 74.8753C78.1924 75.0467 78.3188 75.1734 78.4825 75.2703C78.6461 75.3672 78.832 75.4119 79.0329 75.4119C79.2039 75.4119 79.3601 75.3747 79.5089 75.3076C79.6577 75.2405 79.7767 75.1287 79.8734 74.9871L80.1634 75.1883C80.0519 75.3747 79.8957 75.5163 79.6949 75.6131C79.5015 75.6951 79.2783 75.7399 79.0329 75.7399Z" fill="white"/>
<path d="M80.513 73.1537V72.8258H82.2981V73.1537H80.513ZM81.8667 75.7399C81.5989 75.7399 81.3907 75.6654 81.2419 75.5238C81.0932 75.3822 81.0262 75.1735 81.0262 74.9052V72.1997H81.413V74.8828C81.413 75.0542 81.4576 75.1809 81.5394 75.2704C81.6213 75.3598 81.7477 75.4045 81.9113 75.4045C82.0824 75.4045 82.2237 75.3524 82.3353 75.2555L82.4692 75.5387C82.3948 75.6058 82.2981 75.6579 82.194 75.6952C82.0973 75.725 81.9857 75.7399 81.8667 75.7399Z" fill="white"/>
<path d="M83.1832 75.7102V72.8258H83.5551V73.6084L83.5179 73.4742C83.5998 73.2581 83.7336 73.0867 83.927 72.9749C84.1204 72.8631 84.351 72.8035 84.6336 72.8035V73.1836C84.6187 73.1836 84.6039 73.1836 84.589 73.1836C84.5741 73.1836 84.5592 73.1836 84.5444 73.1836C84.2394 73.1836 84.0014 73.273 83.8303 73.4593C83.6593 73.6457 83.57 73.9065 83.57 74.2494V75.7251L83.1832 75.7102Z" fill="white"/>
<path d="M85.5336 72.1923C85.4518 72.1923 85.3849 72.1625 85.3328 72.1103C85.2807 72.0581 85.251 71.991 85.251 71.9091C85.251 71.8271 85.2807 71.7675 85.3328 71.7153C85.3849 71.6631 85.4518 71.6333 85.5336 71.6333C85.6154 71.6333 85.6824 71.6557 85.7344 71.7078C85.7865 71.76 85.8163 71.8196 85.8163 71.9016C85.8163 71.9836 85.7865 72.0507 85.7344 72.1028C85.6898 72.1625 85.6229 72.1923 85.5336 72.1923ZM85.3402 75.7101V72.8258H85.727V75.7101H85.3402Z" fill="white"/>
<path d="M88.2856 72.8035C88.5162 72.8035 88.7245 72.8482 88.903 72.9376C89.0815 73.0271 89.2228 73.1612 89.3195 73.3475C89.4236 73.5339 89.4683 73.7649 89.4683 74.0407V75.7176H89.0815V74.0779C89.0815 73.7724 89.0071 73.5413 88.8509 73.3923C88.7022 73.2357 88.4865 73.1612 88.2113 73.1612C88.003 73.1612 87.8319 73.1985 87.6757 73.2879C87.5195 73.3774 87.408 73.4892 87.3261 73.6457C87.2443 73.8022 87.1997 73.9885 87.1997 74.2121V75.7251H86.8129V72.8407H87.1848V73.6308L87.1253 73.4817C87.2146 73.273 87.3633 73.109 87.5642 72.9898C87.765 72.8631 88.003 72.8035 88.2856 72.8035Z" fill="white"/>
<path d="M91.6773 75.6057C91.4021 75.6057 91.1567 75.5461 90.941 75.4268C90.7253 75.3076 90.5468 75.1436 90.4203 74.9275C90.2939 74.7188 90.2344 74.4728 90.2344 74.1971C90.2344 73.9213 90.2939 73.6828 90.4203 73.4667C90.5468 73.258 90.7178 73.094 90.941 72.9748C91.1567 72.8555 91.4096 72.7959 91.6773 72.7959C91.9302 72.7959 92.1608 72.8481 92.3691 72.9524C92.5773 73.0568 92.7335 73.2133 92.86 73.422C92.979 73.6306 93.0385 73.884 93.0385 74.1822C93.0385 74.4803 92.979 74.7337 92.86 74.9424C92.741 75.1511 92.5773 75.3076 92.3691 75.4194C92.1608 75.5461 91.9302 75.6057 91.6773 75.6057ZM91.7517 76.8057C91.4914 76.8057 91.2385 76.7684 90.993 76.6939C90.7476 76.6193 90.5542 76.5075 90.4055 76.3659L90.6063 76.0678C90.7402 76.1871 90.9112 76.2839 91.1046 76.3585C91.3054 76.433 91.5137 76.4628 91.7368 76.4628C92.1013 76.4628 92.3691 76.3808 92.5401 76.2094C92.7112 76.038 92.8005 75.7771 92.8005 75.4194V74.6964L92.8525 74.2045L92.8153 73.7126V72.8406H93.1872V75.3747C93.1872 75.874 93.0682 76.2392 92.8228 76.4703C92.5848 76.6939 92.2203 76.8057 91.7517 76.8057ZM91.7145 75.2554C91.9228 75.2554 92.1162 75.2107 92.2798 75.1213C92.4434 75.0318 92.5773 74.9051 92.6666 74.7486C92.7633 74.5921 92.8079 74.4058 92.8079 74.1971C92.8079 73.9884 92.7633 73.8021 92.6666 73.6456C92.5699 73.489 92.4434 73.3623 92.2798 73.2729C92.1162 73.1835 91.9302 73.1387 91.7145 73.1387C91.5063 73.1387 91.3203 73.1835 91.1492 73.2729C90.9856 73.3623 90.8517 73.489 90.7625 73.6456C90.6658 73.8021 90.6212 73.9884 90.6212 74.1971C90.6212 74.4058 90.6658 74.5921 90.7625 74.7486C90.8592 74.9051 90.9856 75.0318 91.1492 75.1213C91.3203 75.2107 91.5063 75.2554 91.7145 75.2554Z" fill="white"/>
<path d="M97.4566 75.7472C97.1665 75.7472 96.8988 75.6951 96.6533 75.5982C96.4079 75.5013 96.1996 75.3671 96.0136 75.1882C95.8351 75.0094 95.6938 74.8081 95.5971 74.5696C95.5004 74.3311 95.4484 74.0703 95.4484 73.7871C95.4484 73.5038 95.5004 73.243 95.5971 73.0045C95.7013 72.766 95.8351 72.5573 96.0211 72.3859C96.1996 72.207 96.4153 72.0729 96.6608 71.976C96.9062 71.8791 97.174 71.8269 97.464 71.8269C97.7392 71.8269 98.007 71.8716 98.245 71.9685C98.4905 72.0654 98.6987 72.1996 98.8624 72.3859L98.602 72.6467C98.4458 72.4828 98.2748 72.371 98.0814 72.2964C97.888 72.2219 97.6872 72.1921 97.464 72.1921C97.2335 72.1921 97.0178 72.2294 96.8244 72.3114C96.6236 72.3933 96.4525 72.5051 96.3112 72.6467C96.1624 72.7884 96.0508 72.9598 95.969 73.1535C95.8872 73.3473 95.8426 73.556 95.8426 73.7871C95.8426 74.0181 95.8798 74.2268 95.969 74.4206C96.0508 74.6144 96.1624 74.7783 96.3112 74.9274C96.4599 75.069 96.631 75.1808 96.8244 75.2628C97.0252 75.3448 97.2335 75.382 97.464 75.382C97.6797 75.382 97.888 75.3448 98.0814 75.2702C98.2748 75.1957 98.4458 75.0765 98.602 74.9199L98.8624 75.1808C98.6913 75.3671 98.4905 75.5087 98.245 75.6056C98.007 75.7025 97.7392 75.7472 97.4566 75.7472Z" fill="white"/>
<path d="M100.7 75.7399C100.417 75.7399 100.171 75.6802 99.9483 75.5535C99.7326 75.4268 99.5541 75.2554 99.4276 75.0318C99.3012 74.8082 99.2343 74.5548 99.2343 74.2716C99.2343 73.9809 99.3012 73.7275 99.4276 73.5114C99.5541 73.2952 99.7326 73.1164 99.9483 72.9971C100.164 72.8704 100.417 72.8108 100.7 72.8108C100.982 72.8108 101.235 72.8704 101.458 72.9971C101.681 73.1238 101.852 73.2952 101.979 73.5114C102.105 73.7275 102.165 73.9809 102.165 74.2716C102.165 74.5548 102.105 74.8082 101.979 75.0318C101.852 75.2554 101.681 75.4268 101.458 75.5535C101.235 75.6802 100.982 75.7399 100.7 75.7399ZM100.7 75.397C100.908 75.397 101.094 75.3523 101.25 75.2554C101.414 75.1585 101.54 75.0318 101.629 74.8604C101.726 74.689 101.771 74.4952 101.771 74.2716C101.771 74.048 101.726 73.8468 101.629 73.6753C101.533 73.5039 101.406 73.3772 101.25 73.2803C101.094 73.1834 100.908 73.1387 100.7 73.1387C100.491 73.1387 100.313 73.1834 100.149 73.2803C99.9855 73.3772 99.859 73.5039 99.7624 73.6753C99.6657 73.8468 99.621 74.0405 99.621 74.2716C99.621 74.4952 99.6657 74.689 99.7624 74.8604C99.859 75.0318 99.9855 75.166 100.142 75.2554C100.313 75.3523 100.499 75.397 100.7 75.397Z" fill="white"/>
<path d="M106.561 72.8035C106.791 72.8035 106.999 72.8482 107.171 72.9376C107.342 73.0271 107.475 73.1612 107.58 73.3475C107.684 73.5339 107.728 73.7649 107.728 74.0407V75.7176H107.342V74.0779C107.342 73.7724 107.267 73.5413 107.126 73.3923C106.985 73.2357 106.776 73.1612 106.516 73.1612C106.315 73.1612 106.144 73.1985 106.003 73.2879C105.861 73.3774 105.75 73.4892 105.668 73.6457C105.586 73.8022 105.549 73.9885 105.549 74.2121V75.7251H105.162V74.0854C105.162 73.7798 105.088 73.5488 104.947 73.3997C104.798 73.2432 104.597 73.1687 104.329 73.1687C104.136 73.1687 103.965 73.2059 103.816 73.2954C103.667 73.3774 103.556 73.4966 103.481 73.6531C103.399 73.8096 103.362 73.996 103.362 74.2196V75.7325H102.976V72.8482H103.347V73.6308L103.288 73.4966C103.377 73.2879 103.518 73.1239 103.712 73.0047C103.905 72.8854 104.136 72.8258 104.404 72.8258C104.686 72.8258 104.924 72.8929 105.125 73.0345C105.326 73.1761 105.452 73.3848 105.512 73.668L105.356 73.6084C105.437 73.3774 105.586 73.1836 105.802 73.042C106.003 72.8705 106.263 72.8035 106.561 72.8035Z" fill="white"/>
<path d="M108.777 76.776V72.8258H109.149V73.6904L109.112 74.2643L109.164 74.8456V76.7685L108.777 76.776ZM110.265 75.74C110.019 75.74 109.789 75.6804 109.588 75.5686C109.387 75.4568 109.223 75.2853 109.112 75.0692C108.993 74.8531 108.933 74.5848 108.933 74.2717C108.933 73.9587 108.993 73.6904 109.112 73.4742C109.231 73.2581 109.387 73.0941 109.588 72.9749C109.789 72.8631 110.012 72.8035 110.265 72.8035C110.54 72.8035 110.785 72.8631 111.001 72.9898C111.217 73.109 111.388 73.2879 111.514 73.5041C111.641 73.7277 111.7 73.9811 111.7 74.2717C111.7 74.5624 111.641 74.8233 111.514 75.0394C111.388 75.2555 111.217 75.4344 111.001 75.5537C110.785 75.6804 110.54 75.74 110.265 75.74ZM110.235 75.3971C110.443 75.3971 110.622 75.3524 110.785 75.2555C110.949 75.1586 111.075 75.0319 111.172 74.8605C111.269 74.6891 111.313 74.4953 111.313 74.2717C111.313 74.0481 111.269 73.8544 111.172 73.6829C111.075 73.5115 110.949 73.3848 110.785 73.2879C110.622 73.191 110.443 73.1463 110.235 73.1463C110.027 73.1463 109.848 73.191 109.685 73.2879C109.521 73.3848 109.394 73.519 109.298 73.6829C109.201 73.8544 109.156 74.0481 109.156 74.2717C109.156 74.4953 109.201 74.6891 109.298 74.8605C109.394 75.0319 109.521 75.1661 109.685 75.2555C109.848 75.345 110.034 75.3971 110.235 75.3971Z" fill="white"/>
<path d="M113.292 75.7398C113.076 75.7398 112.89 75.7025 112.727 75.6354C112.57 75.5609 112.444 75.464 112.362 75.3373C112.28 75.2106 112.236 75.0615 112.236 74.8975C112.236 74.7485 112.273 74.6143 112.34 74.4876C112.414 74.3684 112.526 74.264 112.689 74.1895C112.853 74.115 113.069 74.0777 113.344 74.0777H114.333V74.3684H113.351C113.076 74.3684 112.883 74.4206 112.771 74.5174C112.66 74.6143 112.608 74.741 112.608 74.8826C112.608 75.0466 112.675 75.1808 112.801 75.2777C112.928 75.3745 113.106 75.4267 113.337 75.4267C113.552 75.4267 113.746 75.3745 113.902 75.2777C114.058 75.1733 114.177 75.0317 114.251 74.8379L114.341 75.1062C114.266 75.3 114.14 75.4491 113.961 75.5609C113.79 75.6876 113.567 75.7398 113.292 75.7398ZM114.281 75.7099V75.069L114.266 74.9646V73.8988C114.266 73.6529 114.199 73.4666 114.058 73.3324C113.924 73.1982 113.716 73.1312 113.448 73.1312C113.262 73.1312 113.084 73.161 112.92 73.2281C112.749 73.2877 112.608 73.3697 112.496 73.474L112.318 73.1833C112.466 73.0566 112.637 72.9597 112.846 72.8927C113.054 72.8256 113.27 72.7883 113.493 72.7883C113.865 72.7883 114.155 72.8778 114.356 73.0641C114.556 73.2504 114.661 73.5336 114.661 73.9063V75.695L114.281 75.7099Z" fill="white"/>
<path d="M117.182 72.8035C117.413 72.8035 117.621 72.8482 117.799 72.9376C117.978 73.0271 118.119 73.1612 118.216 73.3475C118.32 73.5339 118.365 73.7649 118.365 74.0407V75.7176H117.978V74.0779C117.978 73.7724 117.903 73.5413 117.747 73.3923C117.599 73.2357 117.383 73.1612 117.108 73.1612C116.899 73.1612 116.728 73.1985 116.572 73.2879C116.416 73.3774 116.304 73.4892 116.223 73.6457C116.141 73.8022 116.096 73.9885 116.096 74.2121V75.7251H115.709V72.8407H116.081V73.6308L116.022 73.4817C116.111 73.273 116.26 73.109 116.461 72.9898C116.669 72.8631 116.907 72.8035 117.182 72.8035Z" fill="white"/>
<path d="M119.384 76.8057C119.25 76.8057 119.123 76.7834 118.997 76.7387C118.878 76.694 118.766 76.6269 118.684 76.5374L118.863 76.2468C118.937 76.3138 119.019 76.3735 119.101 76.4107C119.183 76.448 119.279 76.4704 119.391 76.4704C119.517 76.4704 119.629 76.4331 119.726 76.366C119.822 76.2989 119.904 76.1722 119.994 75.9934L120.179 75.5685L120.224 75.5089L121.407 72.8333H121.794L120.351 76.0604C120.269 76.2468 120.179 76.3958 120.083 76.5076C119.986 76.6194 119.882 76.694 119.77 76.7387C119.651 76.7834 119.525 76.8057 119.384 76.8057ZM120.157 75.7996L118.833 72.8333H119.242L120.417 75.4791L120.157 75.7996Z" fill="white"/>
<path d="M3.19573 68.5029H2.02054V57.353H9.65185V58.3741H3.19573V68.5029ZM3.06928 62.7491H8.95269V63.7701H3.06928V62.7491Z" fill="white"/>
<path d="M17.722 68.5029L22.8096 57.353H23.9699L29.0574 68.5029H27.8153L23.1443 58.0387H23.6203L18.9493 68.5029H17.722ZM19.7228 65.5216L20.0724 64.5676H26.5434L26.893 65.5216H19.7228Z" fill="white"/>
<path d="M41.9102 68.5998C41.0845 68.5998 40.2887 68.4657 39.5375 68.1973C38.7788 67.929 38.1912 67.5787 37.7821 67.1539L38.2433 66.2446C38.6375 66.6248 39.1656 66.9452 39.8275 67.2061C40.4895 67.467 41.1887 67.5936 41.9176 67.5936C42.6168 67.5936 43.1895 67.5042 43.6283 67.3328C44.0672 67.1614 44.3944 66.9229 44.5952 66.6247C44.8035 66.3266 44.9076 65.9987 44.9076 65.6409C44.9076 65.2087 44.7812 64.8584 44.5357 64.5901C44.2903 64.3217 43.963 64.1131 43.5614 63.964C43.1597 63.8075 42.7134 63.6733 42.2225 63.5615C41.7316 63.4423 41.2482 63.323 40.7573 63.1889C40.2664 63.0547 39.8201 62.8759 39.411 62.6523C39.0019 62.4287 38.6747 62.138 38.4292 61.7653C38.1837 61.3927 38.0573 60.9157 38.0573 60.3269C38.0573 59.7754 38.2061 59.2685 38.4961 58.8065C38.7862 58.3444 39.2325 57.9717 39.8424 57.6885C40.4523 57.4053 41.2184 57.2637 42.163 57.2637C42.7878 57.2637 43.4052 57.3531 44.0225 57.5245C44.6399 57.696 45.168 57.9419 45.6142 58.2475L45.22 59.1866C44.744 58.8661 44.2382 58.635 43.7027 58.486C43.1672 58.3369 42.654 58.2624 42.1556 58.2624C41.4862 58.2624 40.9358 58.3518 40.5044 58.5307C40.073 58.7096 39.7532 58.9555 39.5449 59.2536C39.3366 59.5518 39.2325 59.9021 39.2325 60.2822C39.2325 60.7145 39.3589 61.0647 39.6044 61.3331C39.8498 61.6014 40.1846 61.8026 40.5862 61.9517C40.9953 62.1007 41.4416 62.2349 41.9325 62.3467C42.4234 62.4659 42.9068 62.5926 43.3903 62.7268C43.8738 62.8684 44.32 63.0398 44.7291 63.2634C45.1382 63.4795 45.4655 63.7702 45.7109 64.128C45.9564 64.4857 46.0828 64.9627 46.0828 65.5441C46.0828 66.0881 45.9341 66.5875 45.6366 67.0496C45.339 67.5117 44.8853 67.8843 44.2754 68.1675C43.6432 68.4582 42.8622 68.5998 41.9102 68.5998Z" fill="white"/>
<path d="M57.7381 68.5029H56.5629V57.353H57.7381V68.5029ZM64.8115 63.3602H57.6116V62.3242H64.8115V63.3602ZM64.7 57.353H65.8603V68.5029H64.7V57.353Z" fill="white"/>
<path d="M77.4337 68.5029V57.353H78.6089V68.5029H77.4337Z" fill="white"/>
<path d="M95.0393 68.5999C94.1988 68.5999 93.4252 68.4583 92.7112 68.1751C91.9971 67.8919 91.3724 67.4969 90.8517 66.9826C90.3236 66.4684 89.922 65.8647 89.6244 65.1864C89.3344 64.5007 89.1856 63.748 89.1856 62.9356C89.1856 62.1232 89.3344 61.3704 89.6244 60.6848C89.9145 59.9991 90.3236 59.4028 90.8517 58.8886C91.3798 58.3743 91.9897 57.9793 92.7038 57.6961C93.4104 57.4129 94.1913 57.2712 95.0393 57.2712C95.8723 57.2712 96.6459 57.4129 97.3599 57.6961C98.0665 57.9793 98.6838 58.3743 99.2119 58.8811C99.74 59.3879 100.142 59.9916 100.439 60.6773C100.729 61.3704 100.878 62.1232 100.878 62.9356C100.878 63.7554 100.729 64.5082 100.439 65.1939C100.149 65.887 99.74 66.4833 99.2119 66.9901C98.6838 67.4969 98.0665 67.8919 97.3599 68.1751C96.6533 68.4583 95.8797 68.5999 95.0393 68.5999ZM95.0393 67.5491C95.7087 67.5491 96.326 67.4373 96.8913 67.2062C97.4566 66.9752 97.9475 66.6547 98.3715 66.2373C98.788 65.8199 99.1152 65.328 99.3458 64.769C99.5764 64.2101 99.6954 63.5989 99.6954 62.9281C99.6954 62.2574 99.5764 61.6462 99.3458 61.0872C99.1152 60.5282 98.788 60.0438 98.3715 59.619C97.9549 59.2016 97.464 58.8737 96.8913 58.6501C96.326 58.419 95.7087 58.3072 95.0393 58.3072C94.3698 58.3072 93.7525 58.419 93.1798 58.6501C92.6071 58.8811 92.1087 59.2016 91.6847 59.619C91.2608 60.0363 90.9335 60.5282 90.7029 61.0872C90.4724 61.6462 90.3534 62.2574 90.3534 62.9281C90.3534 63.584 90.4724 64.1952 90.7029 64.7616C90.9335 65.328 91.2682 65.8125 91.6847 66.2373C92.1087 66.6547 92.6071 66.9826 93.1798 67.2062C93.7525 67.4298 94.3698 67.5491 95.0393 67.5491Z" fill="white"/>
<path d="M111.455 68.5029V57.353H112.422L120.098 67.0346H119.592V57.353H120.752V68.5029H119.785L112.124 58.8213H112.63V68.5029H111.455Z" fill="white"/>
<path d="M6.98914 47.5224H37.7226V52.203H1.5892V1.00024H36.6293V5.68824H6.98914V47.5224ZM6.40154 23.8961H33.4086V28.5021H6.40154V23.8961Z" fill="white"/>
<path d="M102.284 52.4937C98.5202 52.4937 94.9054 51.8751 91.4542 50.6453C88.003 49.4081 85.3328 47.828 83.451 45.8902L85.5485 41.7538C87.3336 43.4978 89.736 44.9586 92.7558 46.1436C95.7756 47.3287 98.9516 47.9249 102.284 47.9249C105.475 47.9249 108.063 47.5225 110.071 46.725C112.072 45.9275 113.552 44.8468 114.489 43.4978C115.434 42.1413 115.903 40.6433 115.903 38.9961C115.903 37.0136 115.337 35.4186 114.199 34.2038C113.061 32.9964 111.581 32.0424 109.744 31.3344C107.907 30.6338 105.876 30.0152 103.66 29.486C101.436 28.9568 99.2194 28.3829 96.9955 27.7792C94.7715 27.1755 92.7335 26.3631 90.874 25.3495C89.0146 24.3359 87.5195 22.9869 86.3815 21.3174C85.2435 19.6479 84.6782 17.4567 84.6782 14.7512C84.6782 12.2321 85.3402 9.92164 86.6716 7.81987C88.003 5.7181 90.041 4.01879 92.793 2.73686C95.5451 1.45493 99.0706 0.813965 103.37 0.813965C106.218 0.813965 109.045 1.21643 111.849 2.01391C114.653 2.81139 117.063 3.91445 119.094 5.31563L117.286 9.60116C115.114 8.1478 112.808 7.08201 110.369 6.40378C107.929 5.72555 105.579 5.39016 103.303 5.39016C100.261 5.39016 97.7467 5.80008 95.7682 6.62737C93.7897 7.44721 92.3244 8.55027 91.3873 9.92909C90.4426 11.3079 89.974 12.8656 89.974 14.6096C89.974 16.5922 90.5393 18.1946 91.6773 19.402C92.8153 20.6094 94.3104 21.5559 96.1698 22.2341C98.0293 22.9124 100.067 23.5161 102.291 24.0452C104.515 24.5819 106.724 25.1558 108.918 25.7893C111.113 26.4153 113.143 27.2277 115.003 28.219C116.862 29.2102 118.357 30.5294 119.495 32.1766C120.633 33.8237 121.198 35.9776 121.198 38.6384C121.198 41.1054 120.522 43.3935 119.168 45.4952C117.814 47.597 115.754 49.2963 112.972 50.5782C110.19 51.8527 106.628 52.4937 102.284 52.4937Z" fill="white"/>
<path d="M40.5342 52.2031H45.0713V32.0574L40.5342 27.511V52.2031Z" fill="white"/>
<path d="M52.4944 22.4802L73.9305 1.00781H67.5115L54.6291 13.9091L45.0713 23.4863V1.00781H40.5342V23.4789L42.8102 25.7595L45.0713 28.0253L46.0159 28.9718L47.9572 27.0265L52.4944 22.4802Z" fill="white"/>
<path d="M59.2183 26.244L84.4031 1.00781H77.9916L52.4944 26.5495L47.9572 31.0959V52.2031H52.4944V32.9816L55.715 29.7544L56.0125 29.4562L56.31 29.7544L78.3486 52.2031H84.7601L59.2183 26.244Z" fill="white"/>
<path d="M52.4944 1.00781H47.9572V16.5773L52.4944 12.0309V1.00781Z" fill="white"/>
<path d="M55.6109 33.2499L55.41 33.0562L55.3877 33.0785V39.4584L68.0173 52.1659H68.0248L68.062 52.2031H74.4809L55.6109 33.2499Z" fill="white"/>
</svg>
