<svg width="25" height="16" viewBox="0 0 25 16" fill="none" xmlns="http://www.w3.org/2000/svg">
<path fill-rule="evenodd" clip-rule="evenodd" d="M0.194012 12.3917L12.1257 0.467408C12.1555 0.432281 12.1927 0.404054 12.2346 0.384692C12.2765 0.36533 12.3221 0.355306 12.3683 0.355306C12.4145 0.355306 12.4601 0.36533 12.502 0.384692C12.5439 0.404054 12.581 0.432281 12.6108 0.467408L24.5829 12.3917C24.6363 12.461 24.6653 12.5459 24.6653 12.6333C24.6653 12.7207 24.6363 12.8056 24.5829 12.8749L21.9783 15.4634L12.5935 6.16782C12.5239 6.11464 12.4387 6.08583 12.3509 6.08583C12.2632 6.08583 12.178 6.11464 12.1084 6.16782L2.77555 15.4634L0.170914 12.8749C0.136502 12.8447 0.108938 12.8075 0.0900595 12.7658C0.0711806 12.7242 0.0614111 12.679 0.0614112 12.6333C0.0614112 12.5876 0.0711806 12.5424 0.0900595 12.5008C0.108938 12.4591 0.136502 12.4219 0.170914 12.3917L0.194012 12.3917Z" fill="#3B9EBF"/>
</svg>
