<svg width="19" height="15" viewBox="0 0 19 15" fill="none" xmlns="http://www.w3.org/2000/svg">
<path fill-rule="evenodd" clip-rule="evenodd" d="M6.36441 14.6288C12.9304 14.6288 16.5218 9.31893 16.5218 4.71438C16.5218 4.56344 16.5218 4.4125 16.5114 4.26393C17.2084 3.77228 17.8115 3.16141 18.2923 2.45997C17.6402 2.74226 16.9494 2.92705 16.2425 3.00832C16.9847 2.57636 17.5427 1.89112 17.812 1.0808C17.1097 1.48739 16.3432 1.77346 15.5448 1.92693C14.1928 0.524047 11.9316 0.455693 10.4935 1.77599C10.0394 2.19059 9.70465 2.71732 9.52335 3.30229C9.34205 3.88727 9.32076 4.5095 9.46165 5.10532C6.59061 4.96429 3.91532 3.64141 2.10309 1.46484C1.15564 3.05683 1.64024 5.09302 3.20887 6.11576C2.64144 6.09976 2.08594 5.95047 1.58804 5.68018V5.72439C1.58804 7.38366 2.78692 8.81113 4.45212 9.13953C3.92644 9.27968 3.37557 9.29995 2.84086 9.19883C3.30805 10.619 4.64874 11.5923 6.17562 11.6193C4.90578 12.591 3.34618 13.1168 1.74203 13.114C1.45796 13.1134 1.17416 13.0966 0.892029 13.0638C2.53009 14.0879 4.42784 14.6297 6.36441 14.6262" fill="white"/>
</svg>
