<svg width="11" height="16" viewBox="0 0 11 16" fill="none" xmlns="http://www.w3.org/2000/svg">
<path d="M5.87205 7.61865C4.18905 6.1307 2.52562 4.66184 0.864143 3.19384C0.0412329 2.46505 0.0392753 1.82996 0.854357 1.1003C1.03831 0.936318 1.22227 0.77234 1.4121 0.613567C2.08823 0.0513559 2.81427 0.0591635 3.47769 0.646536C5.60101 2.52665 7.69204 4.43539 9.85255 6.2808C11.0463 7.30024 11.061 7.95615 9.86527 8.9782C7.74097 10.7924 5.6832 12.6699 3.59413 14.5196C2.76926 15.2502 2.07943 15.2475 1.24575 14.5135C1.09507 14.3817 0.94503 14.2489 0.795647 14.1153C0.0696079 13.4655 0.0627598 12.7879 0.784885 12.1467C2.37395 10.736 3.96432 9.32437 5.556 7.9119C5.64896 7.83035 5.73604 7.74532 5.87205 7.61865Z" fill="#3B9EBF"/>
</svg>
