<svg width="24" height="15" viewBox="0 0 24 15" fill="none" xmlns="http://www.w3.org/2000/svg">
<path d="M23.907 12.0275C23.7761 12.2428 23.6814 12.4973 23.5042 12.6622C23.3282 12.8244 23.106 12.9278 22.8685 12.9578C22.3533 13.0001 21.8382 12.9712 21.3406 12.9712C21.2633 12.6137 21.2241 12.2624 21.1108 11.941C20.675 10.6922 19.4211 9.9659 18.0941 10.1689C17.4833 10.2718 16.9259 10.58 16.5138 11.0425C16.1017 11.5049 15.8596 12.0941 15.8275 12.7126C15.8172 12.9331 15.7471 13.0032 15.5236 13.0022C13.8586 12.9939 12.1937 12.9939 10.5287 13.0022C10.2949 13.0022 10.2114 12.9445 10.1929 12.6992C10.0795 11.2651 9.03893 10.24 7.61096 10.1349C6.21904 10.0318 4.89616 11.1476 4.75913 12.5385C4.71483 12.997 4.71481 13.0022 4.25531 12.9949C4.03021 13.0012 3.80507 12.9839 3.58356 12.9434C3.02823 12.8136 2.68618 12.3253 2.67999 11.6854C2.67381 10.8921 2.67999 10.0978 2.67999 9.30445C2.67999 8.96961 2.80362 8.84391 3.1395 8.8161C3.20853 8.80992 3.27859 8.8161 3.34555 8.8161C4.66844 8.8161 5.99133 8.8161 7.31422 8.8161C7.58214 8.8232 7.84272 8.72797 8.04292 8.54978C8.24311 8.3716 8.36791 8.12383 8.39192 7.8569C8.48568 7.112 8.20749 6.57522 7.62949 6.4145C7.47113 6.37563 7.30826 6.35831 7.14526 6.36298C5.85329 6.36298 4.56129 6.36298 3.27035 6.36298C3.16166 6.36546 3.05299 6.35753 2.94582 6.33929C2.87023 6.33149 2.80046 6.29518 2.7507 6.23777C2.70094 6.18035 2.67491 6.10612 2.67793 6.0302C2.67793 5.9756 2.67793 5.92099 2.67793 5.86639C2.67793 5.45427 2.73975 5.39039 3.14775 5.39039C5.15475 5.39039 7.16208 5.39039 9.16977 5.39039C9.78794 5.39039 10.2279 5.09161 10.3288 4.55586C10.3778 4.28884 10.3778 4.01514 10.3288 3.74812C10.2827 3.52077 10.1603 3.31598 9.98195 3.16761C9.8036 3.01924 9.57996 2.93617 9.348 2.93213C9.22437 2.92595 9.09869 2.93213 8.97505 2.93213H3.1158C2.78611 2.93213 2.68618 2.8291 2.68102 2.50044C2.68102 2.22158 2.68102 1.94168 2.68102 1.66076C2.68824 0.991071 3.0231 0.561441 3.67939 0.41514C3.93708 0.35703 4.2003 0.326977 4.46446 0.325505C8.15288 0.320697 11.841 0.320697 15.5287 0.325505C16.4003 0.325505 16.8145 0.73762 16.8227 1.6113C16.8279 2.11717 16.8227 2.62304 16.8227 3.12892C16.8227 3.39061 16.8743 3.438 17.1401 3.438C17.5295 3.438 17.919 3.42976 18.3074 3.438C19.1677 3.4617 19.8044 3.85836 20.2011 4.62077C20.4978 5.19258 20.7914 5.76851 21.0541 6.3568C21.1561 6.59707 21.3134 6.80985 21.5132 6.9778C21.713 7.14574 21.9497 7.26409 22.2039 7.32321C22.444 7.38812 22.6809 7.46642 22.9251 7.51794C23.4619 7.63333 23.7185 7.99496 23.8163 8.50289C23.8483 8.66877 23.8781 8.83567 23.9091 9.00258L23.907 12.0275ZM20.5627 7.29745C20.2196 6.60819 19.9023 5.95808 19.5767 5.31827C19.2326 4.64138 18.6711 4.28799 17.9179 4.25811C17.646 4.24575 17.3729 4.25811 17.1009 4.25811C16.8949 4.2509 16.8125 4.31787 16.8155 4.53938C16.8279 5.37185 16.8155 6.20432 16.8207 7.03679C16.8207 7.30467 16.8567 7.34588 17.136 7.34588C18.1786 7.34588 19.2213 7.34588 20.2639 7.34588C20.3643 7.33542 20.4641 7.31925 20.5627 7.29745Z" fill="#00456F"/>
<path d="M5.60486 4.84125C4.42312 4.84125 3.24137 4.84125 2.05963 4.84125C1.80309 4.84125 1.55583 4.80313 1.45177 4.54556C1.38705 4.4078 1.35724 4.25622 1.36497 4.10421C1.37269 3.9522 1.41771 3.80443 1.49607 3.67394C1.62382 3.47406 1.83814 3.4483 2.05243 3.4483C2.79115 3.4483 3.52987 3.4483 4.26858 3.4483H9.07383C9.72394 3.4483 10.0145 3.86866 9.79503 4.48992C9.71879 4.70731 9.51169 4.83816 9.21806 4.83919C8.41753 4.83919 7.61701 4.83919 6.81545 4.83919L5.60486 4.84125Z" fill="#00456F"/>
<path d="M20.6412 12.8724C20.6398 13.2879 20.5151 13.6936 20.2828 14.0381C20.0506 14.3826 19.7214 14.6505 19.3368 14.8077C18.9522 14.9649 18.5297 15.0045 18.1226 14.9214C17.7155 14.8382 17.3423 14.6361 17.0502 14.3407C16.758 14.0453 16.5602 13.6698 16.4817 13.2618C16.4031 12.8538 16.4475 12.4317 16.6091 12.0489C16.7707 11.6661 17.0422 11.3399 17.3893 11.1116C17.7365 10.8833 18.1436 10.7632 18.559 10.7665C19.1129 10.7743 19.6416 10.9994 20.0311 11.3934C20.4205 11.7873 20.6397 12.3184 20.6412 12.8724ZM17.64 12.8569C17.6378 12.9773 17.6598 13.0969 17.7047 13.2086C17.7497 13.3202 17.8166 13.4217 17.9016 13.507C17.9866 13.5923 18.0879 13.6596 18.1994 13.7049C18.3109 13.7502 18.4304 13.7726 18.5508 13.7708C18.7305 13.7706 18.9061 13.7172 19.0555 13.6173C19.2049 13.5174 19.3213 13.3754 19.3901 13.2094C19.459 13.0434 19.477 12.8607 19.4422 12.6845C19.4073 12.5082 19.321 12.3462 19.1941 12.2189C19.0673 12.0916 18.9055 12.0047 18.7294 11.9692C18.5532 11.9337 18.3705 11.9512 18.2042 12.0195C18.038 12.0877 17.8957 12.2037 17.7953 12.3527C17.6949 12.5018 17.6408 12.6772 17.64 12.8569Z" fill="#00456F"/>
<path d="M7.46464 10.7664C7.87994 10.7654 8.28621 10.8876 8.63202 11.1176C8.97782 11.3476 9.24761 11.675 9.40725 12.0584C9.56688 12.4418 9.60918 12.8639 9.52879 13.2714C9.44839 13.6788 9.24892 14.0533 8.95562 14.3473C8.66231 14.6413 8.28836 14.8417 7.88111 14.9231C7.47386 15.0045 7.05162 14.9632 6.66783 14.8045C6.28404 14.6459 5.95599 14.3769 5.72515 14.0316C5.49432 13.6864 5.3711 13.2804 5.37109 12.8651C5.37486 12.3106 5.59648 11.7797 5.98813 11.3871C6.37979 10.9945 6.9101 10.7715 7.46464 10.7664ZM7.43992 13.7687C7.56069 13.7739 7.68128 13.7548 7.79453 13.7125C7.90778 13.6703 8.01138 13.6056 8.09914 13.5225C8.1869 13.4393 8.25703 13.3394 8.30537 13.2286C8.35372 13.1178 8.37929 12.9984 8.38056 12.8775C8.37953 12.6403 8.2859 12.4129 8.11961 12.2437C7.95333 12.0745 7.72755 11.977 7.4904 11.9719C7.25325 11.9668 7.0235 12.0545 6.85009 12.2164C6.67669 12.3782 6.57335 12.6014 6.56211 12.8383C6.55882 12.9568 6.57892 13.0748 6.62127 13.1855C6.66362 13.2962 6.72738 13.3975 6.80892 13.4835C6.89045 13.5695 6.98815 13.6386 7.09642 13.6869C7.20469 13.7351 7.32143 13.7615 7.43992 13.7646V13.7687Z" fill="#00456F"/>
<path d="M3.92542 6.88948C5.00722 6.88948 6.08902 6.88948 7.16979 6.88948C7.42427 6.88948 7.66845 6.92039 7.78796 7.17281C7.85223 7.30233 7.88568 7.44496 7.88568 7.58956C7.88568 7.73415 7.85223 7.87679 7.78796 8.00631C7.66536 8.2577 7.41706 8.28552 7.16979 8.28449H2.00291C1.55989 8.28449 1.11582 8.28449 0.672796 8.28449C0.191653 8.28449 -0.00204432 8.07843 1.62541e-05 7.5705C1.62541e-05 7.08935 0.197842 6.89257 0.681047 6.89154C1.76147 6.88948 2.84293 6.88879 3.92542 6.88948Z" fill="#00456F"/>
</svg>
