<svg width="13" height="13" viewBox="0 0 13 13" fill="none" xmlns="http://www.w3.org/2000/svg">
<path fill-rule="evenodd" clip-rule="evenodd" d="M12.3948 12.7857H9.98764V8.57311C9.98764 7.41766 9.47791 6.77299 8.56378 6.77299C7.56901 6.77359 6.97865 7.44475 6.97865 8.57311V12.7857H4.57146V4.96233H6.97865V5.84216C6.97865 5.84216 7.73391 4.51685 9.43579 4.51685C11.1377 4.51685 12.3948 5.55555 12.3948 7.70532V12.7857ZM1.82847 3.7112C1.01665 3.7112 0.358887 3.04787 0.358887 2.23018C0.358887 1.41248 1.01665 0.749756 1.82847 0.749756C2.6403 0.749756 3.29746 1.41294 3.29746 2.23018C3.29746 3.04742 2.6397 3.7112 1.82847 3.7112ZM0.358887 12.7857H3.36787V4.96233H0.358887V12.7857Z" fill="white"/>
</svg>
