<svg width="21" height="20" viewBox="0 0 21 20" fill="none" xmlns="http://www.w3.org/2000/svg">
<path fill-rule="evenodd" clip-rule="evenodd" d="M9.08066 1.55746C9.62854 0.380422 11.3166 0.380422 11.8645 1.55746L14.0164 6.18105L19.1184 6.78167C20.4171 6.93436 20.9389 8.52556 19.9799 9.40575L16.2072 12.8613L17.2084 17.8555C17.4634 19.1269 16.0976 20.1103 14.9561 19.478L10.4726 16.9902L5.98963 19.477C4.8481 20.1103 3.4823 19.1269 3.73726 17.8544L4.73799 12.8613L0.966076 9.40335C0.00573382 8.52317 0.527501 6.93196 1.82761 6.77928L6.92925 6.17999L9.08066 1.55746ZM10.8226 2.94465C10.7919 2.87834 10.7427 2.82214 10.6806 2.78272C10.6186 2.74331 10.5463 2.72236 10.4726 2.72236C10.3988 2.72236 10.3266 2.74331 10.2645 2.78272C10.2025 2.82214 10.1532 2.87834 10.1226 2.94465L8.32063 6.81732C8.21102 7.05292 8.0421 7.25682 7.82999 7.40952C7.61787 7.56222 7.36967 7.65863 7.10909 7.68953L2.83345 8.19147C2.76063 8.20019 2.69185 8.22931 2.63522 8.27539C2.57859 8.32146 2.53647 8.38257 2.51384 8.45152C2.4912 8.52046 2.48898 8.59436 2.50745 8.6645C2.52592 8.73465 2.5643 8.79811 2.61807 8.84742L5.78017 11.7468C5.97277 11.9235 6.11641 12.146 6.19742 12.393C6.27842 12.6401 6.29411 12.9035 6.24298 13.1582L5.40298 17.3418C5.3888 17.413 5.39553 17.4867 5.4224 17.5543C5.44927 17.6218 5.49514 17.6803 5.55459 17.7229C5.61405 17.7655 5.68461 17.7904 5.75793 17.7947C5.83125 17.7989 5.90427 17.7824 5.96836 17.7469L9.72358 15.6636C9.95223 15.5367 10.2101 15.4701 10.4723 15.4701C10.7346 15.4701 10.9924 15.5367 11.221 15.6636L14.9763 17.7469C15.0403 17.7824 15.1134 17.7989 15.1867 17.7947C15.26 17.7904 15.3306 17.7655 15.39 17.7229C15.4495 17.6803 15.4954 17.6218 15.5222 17.5543C15.5491 17.4867 15.5558 17.413 15.5416 17.3418L14.703 13.1574C14.6519 12.9027 14.6675 12.6393 14.7485 12.3922C14.8296 12.1452 14.9732 11.9227 15.1658 11.746L18.3279 8.84795C18.3817 8.79864 18.42 8.73518 18.4385 8.66503C18.457 8.59489 18.4548 8.52099 18.4321 8.45205C18.4095 8.38311 18.3674 8.32199 18.3107 8.27592C18.2541 8.22985 18.1853 8.20073 18.1125 8.192L13.8361 7.68953C13.5754 7.6588 13.3271 7.56247 13.115 7.40974C12.9029 7.25702 12.734 7.05303 12.6245 6.81732L10.8226 2.94465Z" fill="#FFDF00"/>
</svg>
