<svg width="11" height="15" viewBox="0 0 11 15" fill="none" xmlns="http://www.w3.org/2000/svg">
<path d="M4.31027 9.77081C3.97135 9.6176 3.57233 9.76811 3.41909 10.107C3.26585 10.4459 3.41638 10.8449 3.75529 10.9982L4.31027 9.77081ZM5.82882 10.7707L5.82954 11.4443L5.84041 11.4441L5.82882 10.7707ZM10.3189 6.12608L9.64552 6.11486C9.64543 6.12231 9.64543 6.12986 9.64552 6.13731L10.3189 6.12608ZM5.82882 1.4815L5.84041 0.808084C5.83269 0.80795 5.82496 0.80795 5.81733 0.808084L5.82882 1.4815ZM1.33872 6.12608L2.01224 6.12797C2.01225 6.12357 2.01222 6.11926 2.01215 6.11486L1.33872 6.12608ZM1.50319 9.032C1.70203 9.3464 2.11805 9.44006 2.43243 9.24124C2.7468 9.04233 2.84046 8.62636 2.64163 8.31196L1.50319 9.032ZM4.68699 10.5446C4.77544 10.1834 4.55426 9.81876 4.19289 9.7303C3.83162 9.64185 3.46701 9.86312 3.37858 10.2244L4.68699 10.5446ZM2.48056 13.8937C2.39213 14.255 2.61335 14.6196 2.97466 14.7081C3.33597 14.7965 3.7006 14.5752 3.78896 14.214L2.48056 13.8937ZM3.36914 10.2697C3.30569 10.6361 3.55137 10.9847 3.91792 11.0482C4.2844 11.1116 4.63302 10.8659 4.69642 10.4994L3.36914 10.2697ZM5.59444 5.31242C5.65793 4.9459 5.41223 4.59734 5.04575 4.53388C4.67917 4.47042 4.33065 4.71611 4.26716 5.08263L5.59444 5.31242ZM3.75529 10.9982C4.40707 11.2929 5.11427 11.4451 5.82954 11.4443L5.82811 10.0971C5.30474 10.0977 4.78721 9.98642 4.31027 9.77081L3.75529 10.9982ZM5.84041 11.4441C8.73438 11.3944 11.0406 9.00892 10.9924 6.11486L9.64552 6.13731C9.68135 8.28772 7.96774 10.0603 5.81733 10.0972L5.84041 11.4441ZM10.9924 6.13731C11.0406 3.24328 8.73438 0.857745 5.84041 0.808084L5.81733 2.15492C7.96774 2.19182 9.68135 3.96443 9.64552 6.11486L10.9924 6.13731ZM5.81733 0.808084C2.92329 0.857745 0.617087 3.24328 0.665293 6.13731L2.01215 6.11486C1.97632 3.96443 3.69 2.19182 5.84041 2.15492L5.81733 0.808084ZM0.665203 6.1242C0.66232 7.15342 0.95302 8.16217 1.50319 9.032L2.64163 8.31196C2.2284 7.65865 2.01008 6.90099 2.01224 6.12797L0.665203 6.1242ZM3.37858 10.2244L2.48056 13.8937L3.78896 14.214L4.68699 10.5446L3.37858 10.2244ZM4.69642 10.4994L5.59444 5.31242L4.26716 5.08263L3.36914 10.2697L4.69642 10.4994Z" fill="white"/>
</svg>
