<svg width="18" height="19" viewBox="0 0 18 19" fill="none" xmlns="http://www.w3.org/2000/svg">
<path d="M0.318359 10.6381C0.354377 10.6381 0.382661 10.6381 0.410103 10.6381C1.07471 10.6381 1.73931 10.6381 2.40392 10.6381C2.48453 10.6381 2.50769 10.663 2.52227 10.7419C2.73405 11.8887 3.24997 12.9576 4.01612 13.8368C4.60492 14.5192 5.32916 15.0717 6.14286 15.4593C6.76729 15.7586 7.4359 15.9552 8.12294 16.0416C9.12355 16.1724 10.1409 16.0685 11.0944 15.738C11.8366 15.4802 12.5267 15.0916 13.1319 14.5906C13.1482 14.5777 13.1637 14.5614 13.1945 14.5331C13.071 14.4131 12.9493 14.299 12.8309 14.1815C12.457 13.8082 12.0831 13.4346 11.7092 13.0607C11.5746 12.9278 11.4271 12.8034 11.3028 12.6637C11.2089 12.5693 11.1537 12.4433 11.148 12.3103C11.1423 12.1774 11.1865 12.0471 11.2719 11.945C11.3266 11.877 11.3966 11.8229 11.4762 11.7872C11.5557 11.7514 11.6427 11.735 11.7298 11.7392C12.3301 11.7392 12.9304 11.7392 13.5307 11.7392H17.0947C17.1264 11.7392 17.1582 11.7392 17.1899 11.7392C17.4917 11.7598 17.6692 11.9373 17.6915 12.2409C17.6915 12.2563 17.6915 12.2726 17.6915 12.2881C17.6915 14.0986 17.6915 15.9092 17.6915 17.7198C17.6968 17.8508 17.6544 17.9793 17.572 18.0814C17.4897 18.1834 17.3731 18.2521 17.2439 18.2746C17.1625 18.2903 17.0785 18.2857 16.9992 18.2614C16.92 18.237 16.8479 18.1936 16.7894 18.1349C16.6179 17.9796 16.4601 17.8116 16.2972 17.6486L14.7862 16.1385C14.7733 16.1248 14.7587 16.1127 14.7424 16.0973C12.7495 17.7584 10.4752 18.5276 7.88198 18.2138C5.72095 17.9565 3.91322 16.9789 2.45538 15.3667C1.26816 14.0514 0.521091 12.3983 0.318359 10.6381Z" fill="#00456F"/>
<path d="M0.22023 1.25984C0.259985 1.15841 0.311508 1.06199 0.373736 0.972562C0.46091 0.87211 0.584182 0.810098 0.7168 0.799983C0.849417 0.789868 0.980677 0.832467 1.08208 0.918535C1.22517 1.038 1.36091 1.16601 1.48856 1.30186C2.0454 1.8587 2.6008 2.4164 3.15478 2.97495C3.15907 2.97924 3.16593 2.98181 3.15478 2.97495C6.0233 0.711008 9.13365 0.145023 12.5441 1.57114C15.435 2.96809 17.1003 5.26719 17.6192 8.44786H17.4862C16.8336 8.44786 16.1819 8.44786 15.5302 8.44786C15.4393 8.44786 15.405 8.42814 15.3861 8.32866C15.1962 7.29247 14.7545 6.31886 14.0998 5.49359C13.1187 4.26214 11.8632 3.45432 10.3171 3.13874C8.2478 2.71683 6.3912 3.1962 4.75156 4.52284C4.74451 4.52984 4.73792 4.53729 4.73183 4.54513C4.77128 4.58715 4.81072 4.63089 4.85188 4.67205C5.27323 5.09282 5.69428 5.51331 6.11506 5.93351C6.27199 6.08873 6.4375 6.23623 6.59101 6.39574C6.65264 6.45355 6.70016 6.52476 6.7299 6.60387C6.75964 6.68297 6.7708 6.76785 6.76252 6.85195C6.75261 6.98468 6.69312 7.10882 6.59588 7.1997C6.49865 7.29058 6.37078 7.34155 6.23768 7.34248C5.72315 7.35019 5.21377 7.34247 4.70181 7.34676H0.886552C0.810661 7.34808 0.73477 7.34465 0.659308 7.33647C0.557161 7.32893 0.460327 7.28798 0.383765 7.21994C0.307202 7.1519 0.255152 7.06056 0.235661 6.96001C0.230515 6.93942 0.223657 6.91884 0.216797 6.89826L0.22023 1.25984Z" fill="#00456F"/>
</svg>
