<svg width="22" height="19" viewBox="0 0 22 19" fill="none" xmlns="http://www.w3.org/2000/svg">
<path d="M10.1759 9.84529C11.707 8.30722 13.1963 6.81092 14.6867 5.31562C15.8142 4.18213 16.9464 3.05029 18.0832 1.92011C18.6801 1.32318 19.1775 1.33413 19.7834 1.93404C20.1475 2.29418 20.5107 2.65433 20.8688 3.01945C21.4429 3.60344 21.4518 4.10685 20.8748 4.68586C18.4977 7.06959 16.1179 9.45099 13.7355 11.8301C12.8368 12.7281 11.9381 13.6265 11.0394 14.5252C10.4196 15.144 9.91324 15.143 9.29941 14.5252C7.64128 12.8671 5.98315 11.2106 4.32502 9.55579C3.63955 8.87131 3.63856 8.38979 4.32502 7.70631C4.68716 7.34418 5.04431 6.97806 5.41341 6.62389C5.92378 6.13242 6.46798 6.13242 6.97636 6.63583C8.02496 7.68443 9.07258 8.74198 10.1759 9.84529Z" fill="#00456F"/>
<path d="M9.39122 0.673493C11.0915 0.673493 12.7917 0.656579 14.491 0.684435C14.9507 0.703839 15.4055 0.787559 15.842 0.933154C16.3016 1.07542 16.3215 1.33707 16.041 1.71612C15.643 2.24838 15.1555 2.30509 14.5079 2.29017C11.77 2.22948 9.02909 2.2643 6.2892 2.2643C5.6286 2.2643 4.96898 2.2643 4.30838 2.2643C3.05086 2.27425 2.21916 3.09104 2.21319 4.33464C2.20722 7.75104 2.20722 11.1668 2.21319 14.5819C2.207 14.8473 2.25444 15.1113 2.35268 15.3581C2.45092 15.6048 2.59792 15.8291 2.78491 16.0177C2.97189 16.2062 3.195 16.3551 3.44088 16.4554C3.68675 16.5558 3.95034 16.6054 4.21587 16.6015C7.64885 16.6114 11.0818 16.6114 14.5148 16.6015C15.6759 16.6015 16.5344 15.726 16.5503 14.554C16.5623 13.581 16.5503 12.607 16.5503 11.6331C16.5503 11.2908 17.3154 10.3268 17.6447 10.279C17.9491 10.2343 18.1282 10.3944 18.1272 10.6969C18.1272 12.1494 18.1939 13.6079 18.0755 15.0514C17.9273 16.8591 16.4001 18.1764 14.5805 18.1843C11.1143 18.2009 7.64821 18.2009 4.18206 18.1843C3.71347 18.1882 3.24879 18.0988 2.81507 17.9213C2.38136 17.7439 1.98727 17.482 1.65574 17.1508C1.3242 16.8196 1.06182 16.4258 0.883904 15.9923C0.705988 15.5588 0.616083 15.0942 0.619397 14.6256C0.600826 11.1595 0.600826 7.69334 0.619397 4.22719C0.62043 3.29074 0.991651 2.39269 1.65214 1.72884C2.31263 1.065 3.2088 0.689216 4.14523 0.683439C5.89124 0.654588 7.64123 0.674488 9.39122 0.673493Z" fill="#00456F"/>
</svg>
