<svg width="15" height="12" viewBox="0 0 15 12" fill="none" xmlns="http://www.w3.org/2000/svg">
<path fill-rule="evenodd" clip-rule="evenodd" d="M4.73064 11.1011C10.0135 11.1011 12.9031 6.86868 12.9031 3.19844C12.9031 3.07813 12.9031 2.95781 12.8947 2.83939C13.4556 2.4475 13.9408 1.96058 14.3276 1.40147C13.8029 1.62648 13.2472 1.77378 12.6784 1.83855C13.2756 1.49425 13.7245 0.948045 13.9412 0.302153C13.3762 0.626238 12.7594 0.854259 12.117 0.976596C11.0292 -0.141631 9.20994 -0.196116 8.05284 0.856282C7.68752 1.18675 7.41815 1.6066 7.27228 2.07288C7.12641 2.53916 7.10928 3.03513 7.22264 3.51005C4.91264 3.39764 2.76014 2.34318 1.30204 0.608265C0.539737 1.87723 0.929637 3.50025 2.19174 4.31546C1.73519 4.30271 1.28824 4.18372 0.887637 3.96827V4.00351C0.887637 5.32609 1.85224 6.46392 3.19204 6.72568C2.76908 6.83739 2.32586 6.85355 1.89564 6.77295C2.27154 7.90493 3.35024 8.68077 4.57874 8.70226C3.55704 9.47684 2.30221 9.89595 1.01154 9.89371C0.782977 9.89323 0.554634 9.87986 0.327637 9.85366C1.6456 10.6699 3.1725 11.1018 4.73064 11.0991" fill="white"/>
</svg>
