<svg width="26" height="35" viewBox="0 0 26 35" fill="none" xmlns="http://www.w3.org/2000/svg">
<path d="M12.9198 0.0706787C5.79368 0.0706787 0.015625 5.85266 0.015625 12.9836C0.015625 15.7917 0.935692 18.3683 2.46484 20.4787C2.49194 20.5291 2.49667 20.5854 2.52764 20.6341L11.1304 33.547C11.3268 33.8418 11.5929 34.0834 11.9051 34.2506C12.2172 34.4177 12.5658 34.5052 12.9198 34.5052C13.2738 34.5052 13.6224 34.4177 13.9345 34.2506C14.2467 34.0834 14.5128 33.8418 14.7092 33.547L23.312 20.6341C23.3438 20.5854 23.3477 20.5291 23.3748 20.4787C24.9039 18.3683 25.824 15.7917 25.824 12.9836C25.824 5.85266 20.0463 0.0706787 12.9198 0.0706787ZM12.9198 17.2879C12.0691 17.2879 11.2374 17.0355 10.5301 16.5625C9.82271 16.0895 9.27139 15.4173 8.94583 14.6308C8.62027 13.8443 8.53508 12.9788 8.70105 12.1439C8.86702 11.3089 9.27669 10.542 9.87825 9.94C10.4798 9.33803 11.2462 8.92808 12.0806 8.762C12.915 8.59592 13.7799 8.68116 14.5659 9.00694C15.3518 9.33272 16.0236 9.88442 16.4963 10.5923C16.9689 11.3001 17.2212 12.1323 17.2212 12.9836C17.2212 14.1252 16.768 15.22 15.9613 16.0272C15.1547 16.8344 14.0606 17.2879 12.9198 17.2879Z" fill="#00456F"/>
</svg>
