<svg width="34" height="38" viewBox="0 0 34 38" fill="none" xmlns="http://www.w3.org/2000/svg">
<path d="M19.5175 22.8152C18.7382 22.8152 18.2187 23.3347 18.2187 24.114V26.7116H2.6328V4.63164C2.6328 3.85234 3.15233 3.33281 3.93163 3.33281H9.12692C9.90621 3.33281 10.4257 2.81329 10.4257 2.03399C10.4257 1.2547 9.90621 0.735168 9.12692 0.735168H3.93163C1.72363 0.735168 0.0351562 2.42364 0.0351562 4.63164V33.2057C0.0351562 35.4137 1.72363 37.1022 3.93163 37.1022H16.9199C19.1279 37.1022 20.8163 35.4137 20.8163 33.2057V24.114C20.8163 23.3347 20.2968 22.8152 19.5175 22.8152ZM11.7246 33.2057H9.12692C8.34762 33.2057 7.82809 32.6862 7.82809 31.9069C7.82809 31.1276 8.34762 30.6081 9.12692 30.6081H11.7246C12.5039 30.6081 13.0234 31.1276 13.0234 31.9069C13.0234 32.6862 12.5039 33.2057 11.7246 33.2057Z" fill="#00456F"/>
<path d="M29.9076 3.33282H14.3218C12.1138 3.33282 10.4253 5.02129 10.4253 7.22929V24.114C10.4253 24.6335 10.6851 25.0232 11.2046 25.2829C11.3345 25.4128 11.5942 25.4128 11.7241 25.4128C11.9839 25.4128 12.3735 25.2829 12.5034 25.153C16.1401 22.0359 20.8159 20.3474 25.6215 20.3474H29.9076C32.1156 20.3474 33.8041 18.6589 33.8041 16.4509V7.22929C33.8041 5.02129 32.1156 3.33282 29.9076 3.33282ZM19.5171 16.3211H16.9194C16.1401 16.3211 15.6206 15.8015 15.6206 15.0222C15.6206 14.2429 16.1401 13.7234 16.9194 13.7234H19.5171C20.2963 13.7234 20.8159 14.2429 20.8159 15.0222C20.8159 15.8015 20.2963 16.3211 19.5171 16.3211ZM22.1147 11.1258H16.9194C16.1401 11.1258 15.6206 10.6062 15.6206 9.82694C15.6206 9.04765 16.1401 8.52812 16.9194 8.52812H22.1147C22.894 8.52812 23.4135 9.04765 23.4135 9.82694C23.4135 10.6062 22.894 11.1258 22.1147 11.1258Z" fill="#00456F"/>
</svg>
