<svg width="55" height="56" viewBox="0 0 55 56" fill="none" xmlns="http://www.w3.org/2000/svg">
<path d="M2.75781 51.1068H1.23828V50.4935H2.75781C3.05208 50.4935 3.29036 50.4467 3.47266 50.3529C3.65495 50.2592 3.78776 50.1289 3.87109 49.9623C3.95703 49.7956 4 49.6055 4 49.392C4 49.1967 3.95703 49.0131 3.87109 48.8412C3.78776 48.6693 3.65495 48.5313 3.47266 48.4271C3.29036 48.3204 3.05208 48.267 2.75781 48.267H1.41406V53.3373H0.660156V47.6498H2.75781C3.1875 47.6498 3.55078 47.724 3.84766 47.8724C4.14453 48.0209 4.36979 48.2266 4.52344 48.4896C4.67708 48.75 4.75391 49.0482 4.75391 49.3842C4.75391 49.7487 4.67708 50.0599 4.52344 50.3177C4.36979 50.5756 4.14453 50.7722 3.84766 50.9076C3.55078 51.0404 3.1875 51.1068 2.75781 51.1068ZM6.32031 49.7748V53.3373H5.59766V49.1107H6.30078L6.32031 49.7748ZM7.64062 49.0873L7.63672 49.7592C7.57682 49.7461 7.51953 49.7383 7.46484 49.7357C7.41276 49.7305 7.35286 49.7279 7.28516 49.7279C7.11849 49.7279 6.97135 49.7539 6.84375 49.806C6.71615 49.8581 6.60807 49.931 6.51953 50.0248C6.43099 50.1185 6.36068 50.2305 6.30859 50.3607C6.25911 50.4883 6.22656 50.6289 6.21094 50.7826L6.00781 50.8998C6.00781 50.6446 6.03255 50.405 6.08203 50.181C6.13411 49.9571 6.21354 49.7592 6.32031 49.5873C6.42708 49.4128 6.5625 49.2774 6.72656 49.181C6.89323 49.0821 7.09115 49.0326 7.32031 49.0326C7.3724 49.0326 7.43229 49.0391 7.5 49.0521C7.56771 49.0625 7.61458 49.0743 7.64062 49.0873ZM9.09375 49.1107V53.3373H8.36719V49.1107H9.09375ZM8.3125 47.9896C8.3125 47.8724 8.34766 47.7735 8.41797 47.6927C8.49089 47.612 8.59766 47.5717 8.73828 47.5717C8.8763 47.5717 8.98177 47.612 9.05469 47.6927C9.13021 47.7735 9.16797 47.8724 9.16797 47.9896C9.16797 48.1016 9.13021 48.198 9.05469 48.2787C8.98177 48.3568 8.8763 48.3959 8.73828 48.3959C8.59766 48.3959 8.49089 48.3568 8.41797 48.2787C8.34766 48.198 8.3125 48.1016 8.3125 47.9896ZM11.5391 52.6849L12.6953 49.1107H13.4336L11.9141 53.3373H11.4297L11.5391 52.6849ZM10.5742 49.1107L11.7656 52.7045L11.8477 53.3373H11.3633L9.83203 49.1107H10.5742ZM16.5586 52.6146V50.4388C16.5586 50.2722 16.5247 50.1276 16.457 50.0052C16.3919 49.8802 16.293 49.7839 16.1602 49.7162C16.0273 49.6485 15.8633 49.6146 15.668 49.6146C15.4857 49.6146 15.3255 49.6459 15.1875 49.7084C15.0521 49.7709 14.9453 49.8529 14.8672 49.9545C14.7917 50.056 14.7539 50.1654 14.7539 50.2826H14.0312C14.0312 50.1316 14.0703 49.9818 14.1484 49.8334C14.2266 49.6849 14.3385 49.5508 14.4844 49.431C14.6328 49.3086 14.8099 49.2123 15.0156 49.142C15.224 49.0691 15.4557 49.0326 15.7109 49.0326C16.0182 49.0326 16.2891 49.0847 16.5234 49.1888C16.7604 49.293 16.9453 49.4506 17.0781 49.6615C17.2135 49.8698 17.2812 50.1316 17.2812 50.4467V52.4154C17.2812 52.556 17.293 52.7058 17.3164 52.8646C17.3424 53.0235 17.3802 53.1602 17.4297 53.2748V53.3373H16.6758C16.6393 53.2539 16.6107 53.1433 16.5898 53.0052C16.569 52.8646 16.5586 52.7344 16.5586 52.6146ZM16.6836 50.7748L16.6914 51.2826H15.9609C15.7552 51.2826 15.5716 51.2995 15.4102 51.3334C15.2487 51.3646 15.1133 51.4128 15.0039 51.4779C14.8945 51.543 14.8112 51.625 14.7539 51.724C14.6966 51.8204 14.668 51.9336 14.668 52.0638C14.668 52.1967 14.6979 52.3177 14.7578 52.4271C14.8177 52.5365 14.9076 52.6237 15.0273 52.6888C15.1497 52.7513 15.2995 52.7826 15.4766 52.7826C15.6979 52.7826 15.8932 52.7357 16.0625 52.642C16.2318 52.5482 16.3659 52.4336 16.4648 52.2982C16.5664 52.1628 16.6211 52.0313 16.6289 51.9037L16.9375 52.2513C16.9193 52.3607 16.8698 52.4818 16.7891 52.6146C16.7083 52.7474 16.6003 52.875 16.4648 52.9974C16.332 53.1172 16.1732 53.2175 15.9883 53.2982C15.806 53.3763 15.6003 53.4154 15.3711 53.4154C15.0846 53.4154 14.8333 53.3594 14.6172 53.2474C14.4036 53.1355 14.237 52.9857 14.1172 52.7982C14 52.6081 13.9414 52.3959 13.9414 52.1615C13.9414 51.9349 13.9857 51.7357 14.0742 51.5638C14.1628 51.3894 14.2904 51.2448 14.457 51.1302C14.6237 51.0131 14.8242 50.9245 15.0586 50.8646C15.293 50.8047 15.5547 50.7748 15.8438 50.7748H16.6836ZM20.1094 52.8217C20.2812 52.8217 20.4401 52.7865 20.5859 52.7162C20.7318 52.6459 20.8516 52.5495 20.9453 52.4271C21.0391 52.3021 21.0924 52.1602 21.1055 52.0013H21.793C21.7799 52.2513 21.6953 52.4844 21.5391 52.7006C21.3854 52.9141 21.1836 53.0873 20.9336 53.2201C20.6836 53.3503 20.4089 53.4154 20.1094 53.4154C19.7917 53.4154 19.5143 53.3594 19.2773 53.2474C19.043 53.1355 18.8477 52.9818 18.6914 52.7865C18.5378 52.5912 18.4219 52.3672 18.3438 52.1146C18.2682 51.8594 18.2305 51.5899 18.2305 51.306V51.142C18.2305 50.8581 18.2682 50.5899 18.3438 50.3373C18.4219 50.0821 18.5378 49.8568 18.6914 49.6615C18.8477 49.4662 19.043 49.3125 19.2773 49.2006C19.5143 49.0886 19.7917 49.0326 20.1094 49.0326C20.4401 49.0326 20.7292 49.1003 20.9766 49.2357C21.224 49.3685 21.418 49.5508 21.5586 49.7826C21.7018 50.0118 21.7799 50.2722 21.793 50.5638H21.1055C21.0924 50.3894 21.043 50.2318 20.957 50.0912C20.8737 49.9506 20.7591 49.8386 20.6133 49.7552C20.4701 49.6693 20.3021 49.6263 20.1094 49.6263C19.888 49.6263 19.7018 49.6706 19.5508 49.7592C19.4023 49.8451 19.2839 49.9623 19.1953 50.1107C19.1094 50.2566 19.0469 50.4193 19.0078 50.599C18.9714 50.7761 18.9531 50.9571 18.9531 51.142V51.306C18.9531 51.4909 18.9714 51.6732 19.0078 51.8529C19.0443 52.0326 19.1055 52.1954 19.1914 52.3412C19.2799 52.487 19.3984 52.6042 19.5469 52.6927C19.6979 52.7787 19.8854 52.8217 20.1094 52.8217ZM23.793 52.8998L24.9688 49.1107H25.7422L24.0469 53.9896C24.0078 54.0938 23.9557 54.2058 23.8906 54.3256C23.8281 54.448 23.7474 54.5638 23.6484 54.6732C23.5495 54.7826 23.4297 54.8711 23.2891 54.9388C23.151 55.0092 22.9857 55.0443 22.793 55.0443C22.7357 55.0443 22.6628 55.0365 22.5742 55.0209C22.4857 55.0052 22.4232 54.9922 22.3867 54.9818L22.3828 54.3959C22.4036 54.3985 22.4362 54.4011 22.4805 54.4037C22.5273 54.4089 22.5599 54.4115 22.5781 54.4115C22.7422 54.4115 22.8815 54.3894 22.9961 54.3451C23.1107 54.3034 23.207 54.2318 23.2852 54.1302C23.3659 54.0313 23.4349 53.8946 23.4922 53.7201L23.793 52.8998ZM22.9297 49.1107L24.0273 52.392L24.2148 53.1537L23.6953 53.4193L22.1406 49.1107H22.9297ZM29.8828 50.6224V51.2162H27.9766V50.6224H29.8828ZM34.6289 47.6498V53.3373H33.8867V47.6498H34.6289ZM36.457 47.6498V48.267H32.0625V47.6498H36.457ZM38.5547 53.4154C38.2604 53.4154 37.9935 53.3659 37.7539 53.267C37.5169 53.1654 37.3125 53.0235 37.1406 52.8412C36.9714 52.6589 36.8411 52.4427 36.75 52.1927C36.6589 51.9427 36.6133 51.6693 36.6133 51.3724V51.2084C36.6133 50.8646 36.6641 50.5586 36.7656 50.2904C36.8672 50.0196 37.0052 49.7904 37.1797 49.6029C37.3542 49.4154 37.5521 49.2735 37.7734 49.1771C37.9948 49.0808 38.224 49.0326 38.4609 49.0326C38.763 49.0326 39.0234 49.0847 39.2422 49.1888C39.4635 49.293 39.6445 49.4388 39.7852 49.6263C39.9258 49.8112 40.0299 50.03 40.0977 50.2826C40.1654 50.5326 40.1992 50.806 40.1992 51.1029V51.4271H37.043V50.8373H39.4766V50.7826C39.4661 50.5951 39.4271 50.4128 39.3594 50.2357C39.2943 50.0586 39.1901 49.9128 39.0469 49.7982C38.9036 49.6836 38.7083 49.6263 38.4609 49.6263C38.2969 49.6263 38.1458 49.6615 38.0078 49.7318C37.8698 49.7995 37.7513 49.9011 37.6523 50.0365C37.5534 50.1719 37.4766 50.3373 37.4219 50.5326C37.3672 50.7279 37.3398 50.9532 37.3398 51.2084V51.3724C37.3398 51.573 37.3672 51.7618 37.4219 51.9388C37.4792 52.1133 37.5612 52.267 37.668 52.3998C37.7773 52.5326 37.9089 52.6368 38.0625 52.7123C38.2188 52.7878 38.3958 52.8256 38.5938 52.8256C38.849 52.8256 39.0651 52.7735 39.2422 52.6693C39.4193 52.5651 39.5742 52.4258 39.707 52.2513L40.1445 52.599C40.0534 52.737 39.9375 52.8685 39.7969 52.9935C39.6562 53.1185 39.4831 53.2201 39.2773 53.2982C39.0742 53.3763 38.8333 53.4154 38.5547 53.4154ZM41.7656 49.7748V53.3373H41.043V49.1107H41.7461L41.7656 49.7748ZM43.0859 49.0873L43.082 49.7592C43.0221 49.7461 42.9648 49.7383 42.9102 49.7357C42.8581 49.7305 42.7982 49.7279 42.7305 49.7279C42.5638 49.7279 42.4167 49.7539 42.2891 49.806C42.1615 49.8581 42.0534 49.931 41.9648 50.0248C41.8763 50.1185 41.806 50.2305 41.7539 50.3607C41.7044 50.4883 41.6719 50.6289 41.6562 50.7826L41.4531 50.8998C41.4531 50.6446 41.4779 50.405 41.5273 50.181C41.5794 49.9571 41.6589 49.7592 41.7656 49.5873C41.8724 49.4128 42.0078 49.2774 42.1719 49.181C42.3385 49.0821 42.5365 49.0326 42.7656 49.0326C42.8177 49.0326 42.8776 49.0391 42.9453 49.0521C43.013 49.0625 43.0599 49.0743 43.0859 49.0873ZM44.4727 49.9506V53.3373H43.7461V49.1107H44.4336L44.4727 49.9506ZM44.3242 51.0638L43.9883 51.0521C43.9909 50.7631 44.0286 50.4961 44.1016 50.2513C44.1745 50.0039 44.2826 49.7891 44.4258 49.6068C44.569 49.4245 44.7474 49.2839 44.9609 49.1849C45.1745 49.0834 45.4219 49.0326 45.7031 49.0326C45.901 49.0326 46.0833 49.0612 46.25 49.1185C46.4167 49.1732 46.5612 49.2605 46.6836 49.3802C46.806 49.5 46.901 49.6537 46.9688 49.8412C47.0365 50.0287 47.0703 50.2552 47.0703 50.5209V53.3373H46.3477V50.556C46.3477 50.3347 46.3099 50.1576 46.2344 50.0248C46.1615 49.892 46.0573 49.7956 45.9219 49.7357C45.7865 49.6732 45.6276 49.642 45.4453 49.642C45.2318 49.642 45.0534 49.6797 44.9102 49.7552C44.7669 49.8308 44.6523 49.9349 44.5664 50.0677C44.4805 50.2006 44.418 50.3529 44.3789 50.5248C44.3424 50.6941 44.3242 50.8737 44.3242 51.0638ZM47.0625 50.6654L46.5781 50.8138C46.5807 50.5821 46.6185 50.3594 46.6914 50.1459C46.7669 49.9323 46.875 49.7422 47.0156 49.5756C47.1589 49.4089 47.3346 49.2774 47.543 49.181C47.7513 49.0821 47.9896 49.0326 48.2578 49.0326C48.4844 49.0326 48.6849 49.0625 48.8594 49.1224C49.0365 49.1823 49.1849 49.2748 49.3047 49.3998C49.4271 49.5222 49.5195 49.6797 49.582 49.8724C49.6445 50.0651 49.6758 50.2943 49.6758 50.5599V53.3373H48.9492V50.5521C48.9492 50.3151 48.9115 50.1316 48.8359 50.0013C48.763 49.8685 48.6589 49.7761 48.5234 49.724C48.3906 49.6693 48.2318 49.642 48.0469 49.642C47.888 49.642 47.7474 49.6693 47.625 49.724C47.5026 49.7787 47.3997 49.8542 47.3164 49.9506C47.2331 50.0443 47.1693 50.1524 47.125 50.2748C47.0833 50.3972 47.0625 50.5274 47.0625 50.6654ZM53.2305 52.2162C53.2305 52.112 53.207 52.0157 53.1602 51.9271C53.1159 51.836 53.0234 51.7539 52.8828 51.681C52.7448 51.6055 52.5365 51.5404 52.2578 51.4857C52.0234 51.4362 51.8112 51.3776 51.6211 51.3099C51.4336 51.2422 51.2734 51.1602 51.1406 51.0638C51.0104 50.9675 50.9102 50.8542 50.8398 50.724C50.7695 50.5938 50.7344 50.4414 50.7344 50.267C50.7344 50.1003 50.7708 49.9427 50.8438 49.7943C50.9193 49.6459 51.0247 49.5144 51.1602 49.3998C51.2982 49.2852 51.4635 49.1954 51.6562 49.1302C51.849 49.0651 52.0638 49.0326 52.3008 49.0326C52.6393 49.0326 52.9284 49.0925 53.168 49.2123C53.4076 49.3321 53.5911 49.4922 53.7188 49.6927C53.8464 49.8907 53.9102 50.1107 53.9102 50.3529H53.1875C53.1875 50.2357 53.1523 50.1224 53.082 50.0131C53.0143 49.9011 52.9141 49.8086 52.7812 49.7357C52.651 49.6628 52.4909 49.6263 52.3008 49.6263C52.1003 49.6263 51.9375 49.6576 51.8125 49.7201C51.6901 49.78 51.6003 49.8568 51.543 49.9506C51.4883 50.0443 51.4609 50.1433 51.4609 50.2474C51.4609 50.3256 51.474 50.3959 51.5 50.4584C51.5286 50.5183 51.5781 50.5743 51.6484 50.6263C51.7188 50.6758 51.8177 50.7227 51.9453 50.767C52.0729 50.8112 52.2357 50.8555 52.4336 50.8998C52.7799 50.9779 53.0651 51.0717 53.2891 51.181C53.513 51.2904 53.6797 51.4245 53.7891 51.5834C53.8984 51.7422 53.9531 51.9349 53.9531 52.1615C53.9531 52.3464 53.9141 52.5157 53.8359 52.6693C53.7604 52.823 53.6497 52.9558 53.5039 53.0677C53.3607 53.1771 53.1888 53.2631 52.9883 53.3256C52.7904 53.3855 52.5677 53.4154 52.3203 53.4154C51.9479 53.4154 51.6328 53.349 51.375 53.2162C51.1172 53.0834 50.9219 52.9115 50.7891 52.7006C50.6562 52.4896 50.5898 52.267 50.5898 52.0326H51.3164C51.3268 52.2305 51.3841 52.3881 51.4883 52.5052C51.5924 52.6198 51.7201 52.7019 51.8711 52.7513C52.0221 52.7982 52.1719 52.8217 52.3203 52.8217C52.5182 52.8217 52.6836 52.7956 52.8164 52.7435C52.9518 52.6914 53.0547 52.6198 53.125 52.5287C53.1953 52.4375 53.2305 52.3334 53.2305 52.2162Z" fill="#1E1E1E"/>
<g clip-path="url(#clip0_101_395)">
<path d="M41.3174 16.502C41.3168 16.2879 41.3118 16.0738 41.3024 15.8599V3.72048L38.0209 7.07658C35.3351 3.71405 31.2494 1.56689 26.673 1.56689C21.9105 1.56689 17.6795 3.89191 15.0049 7.49194L20.3838 13.0513C20.9105 12.0561 21.6565 11.2 22.5628 10.5509C23.5018 9.80125 24.8323 9.18874 26.673 9.18874C26.8951 9.18874 27.0669 9.21517 27.193 9.26517C29.4733 9.44946 31.4498 10.7366 32.6141 12.6045L28.8067 16.4992C33.6293 16.4795 39.0769 16.4684 41.3171 16.5017" fill="#1C3AA9"/>
<path d="M26.5875 1.56726C26.3772 1.56798 26.1681 1.57297 25.9596 1.58262H14.09L17.3715 4.93872C14.0837 7.68552 11.9839 11.8641 11.9839 16.5445C11.9839 21.4153 14.2572 25.7425 17.7773 28.4778L23.2131 22.9767C22.24 22.438 21.403 21.675 20.7682 20.7481C20.0356 19.7878 19.4364 18.427 19.4364 16.5445C19.4364 16.3174 19.4622 16.1417 19.5111 16.0127C19.6913 13.6806 20.9498 11.6591 22.7762 10.4684L26.5843 14.3624C26.5651 9.43018 26.5539 3.85871 26.5868 1.56762" fill="#4285F4"/>
<path d="M11.9844 16.5442C11.9851 16.7592 11.99 16.9731 11.9994 17.1863V29.3257L15.2809 25.97C17.9667 29.3321 22.0524 31.4797 26.6288 31.4797C31.3913 31.4797 35.6223 29.1546 38.2969 25.5543L32.9181 19.9949C32.3914 20.9901 31.6453 21.8462 30.739 22.4953C29.8 23.245 28.4695 23.8575 26.6288 23.8575C26.4067 23.8575 26.2349 23.831 26.1088 23.781C23.8285 23.5967 21.852 22.3096 20.6877 20.4417L24.4951 16.5474C19.6726 16.567 14.2249 16.5781 11.9847 16.5449" fill="#ABABAB"/>
<path d="M14.4555 37.2797C14.0986 37.2797 13.7791 37.349 13.4959 37.4872C13.213 37.6226 12.9735 37.8158 12.7765 38.0676C12.5827 38.319 12.4336 38.6244 12.3292 38.9826C12.2276 39.338 12.1769 39.7362 12.1769 40.1762V41.4451C12.1769 41.8887 12.2276 42.288 12.3292 42.6433C12.4336 42.9991 12.5813 43.3023 12.772 43.5541C12.9627 43.8058 13.1931 43.9991 13.4638 44.1341C13.7344 44.2691 14.0389 44.3369 14.377 44.3369C14.7244 44.3369 15.0289 44.2851 15.2905 44.1816C15.5425 44.0862 15.7698 43.9328 15.9547 43.7333C16.1384 43.5258 16.2781 43.2816 16.365 43.0162C16.4635 42.7362 16.5222 42.4187 16.5403 42.0633H15.6872C15.6655 42.3369 15.6285 42.5712 15.5765 42.7662C15.5241 42.958 15.4473 43.1169 15.346 43.2426C15.2435 43.3682 15.1095 43.4628 14.9584 43.5162C14.8013 43.573 14.6078 43.6012 14.377 43.6012C14.1311 43.6012 13.9219 43.5462 13.7498 43.4362C13.5747 43.3198 13.4305 43.1609 13.33 42.9737C13.2253 42.7787 13.1484 42.5508 13.0996 42.2898C13.0518 42.0109 13.0286 41.7282 13.0301 41.4451V40.1665C13.0301 39.843 13.058 39.5487 13.1132 39.2844C13.1715 39.0201 13.2591 38.7954 13.3761 38.6101C13.4931 38.4244 13.6405 38.2815 13.8189 38.1808C13.997 38.0772 14.2097 38.0251 14.4555 38.0251C14.6616 38.0251 14.8383 38.0565 14.986 38.1194C15.1337 38.179 15.2566 38.2737 15.3551 38.4026C15.4532 38.5283 15.5287 38.6883 15.581 38.8837C15.6334 39.0787 15.6683 39.3112 15.6872 39.5819H16.5403C16.5249 39.2105 16.468 38.8819 16.3699 38.5962C16.2714 38.3097 16.1345 38.069 15.9592 37.874C15.7819 37.6775 15.5624 37.5257 15.3181 37.4304C15.0691 37.3301 14.7813 37.2797 14.4555 37.2797ZM35.2866 37.2797C34.9297 37.2797 34.6101 37.349 34.3269 37.4872C34.0441 37.6226 33.8045 37.8158 33.6076 38.0676C33.4137 38.319 33.2646 38.6244 33.1602 38.9826C33.0586 39.338 33.008 39.7362 33.008 40.1762V41.4451C33.008 41.8887 33.0586 42.288 33.1602 42.6433C33.2646 42.9991 33.4124 43.3023 33.603 43.5541C33.7866 43.7996 34.0234 43.9982 34.2948 44.1341C34.5654 44.2698 34.87 44.3369 35.208 44.3369C35.5554 44.3369 35.86 44.2851 36.1215 44.1816C36.3736 44.0862 36.6008 43.9328 36.7857 43.7333C36.9695 43.5258 37.1094 43.2817 37.1964 43.0162C37.2945 42.7362 37.3532 42.4187 37.3713 42.0633H36.5182C36.4966 42.3369 36.4599 42.5712 36.4075 42.7662C36.3551 42.958 36.2783 43.1169 36.177 43.2426C36.0746 43.3682 35.9405 43.4628 35.7894 43.5162C35.6323 43.573 35.4388 43.6012 35.208 43.6012C34.9621 43.6012 34.753 43.5462 34.5808 43.4362C34.4057 43.3198 34.2615 43.1609 34.1611 42.9737C34.0563 42.7787 33.9795 42.5508 33.9306 42.2898C33.883 42.0109 33.8598 41.7282 33.8614 41.4451V40.1665C33.8614 39.843 33.889 39.5487 33.9442 39.2844C34.0029 39.0201 34.0905 38.7954 34.2072 38.6101C34.3241 38.4244 34.4715 38.2815 34.65 38.1808C34.828 38.0772 35.0407 38.0251 35.2866 38.0251C35.4926 38.0251 35.6693 38.0565 35.817 38.1194C35.9647 38.179 36.0876 38.2737 36.1861 38.4026C36.2842 38.5283 36.3597 38.6883 36.4121 38.8837C36.4644 39.0787 36.4994 39.3112 36.5182 39.5819H37.3713C37.356 39.2105 37.299 38.8819 37.2009 38.5962C37.1024 38.3097 36.9656 38.069 36.7903 37.874C36.615 37.679 36.4012 37.5312 36.1491 37.4304C35.9001 37.3301 35.6124 37.2797 35.2866 37.2797ZM19.3176 37.374L17.1542 44.2426H18.0213L18.5427 42.4498H20.8122L21.3426 44.2426H22.2097L20.0418 37.374H19.3176ZM23.1229 37.374V44.2426H23.9669V41.5537H25.2632C25.5862 41.5537 25.8719 41.508 26.1212 41.4169C26.3572 41.331 26.5714 41.1924 26.7484 41.0112C26.9206 40.8351 27.0498 40.6183 27.136 40.3601C27.2251 40.0994 27.2698 39.8037 27.2698 39.4733C27.2698 39.1683 27.2251 38.8883 27.136 38.6337C27.0561 38.3865 26.9255 38.1597 26.7529 37.9683C26.5773 37.7752 26.3612 37.6252 26.1209 37.5297C25.8722 37.4262 25.5862 37.374 25.2632 37.374H23.1229ZM27.9155 37.374V38.1194H29.6776V44.2426H30.5216V38.1194H32.2882V37.374H27.9155ZM38.5108 37.374V44.2426H39.3548V41.0676H42.0577V44.2426H42.9067V37.374H42.0581V40.3272H39.3552V37.374H38.5108ZM46.1079 37.374L43.9445 44.2426H44.8116L45.333 42.4498H47.6025L48.1329 44.2426H49L46.8321 37.374H46.1079ZM23.9669 38.1194H25.2632C25.4692 38.1194 25.6445 38.1572 25.7891 38.2326C25.9365 38.3083 26.0566 38.4087 26.1488 38.5347C26.2441 38.6604 26.3129 38.8065 26.3562 38.9733C26.4023 39.1369 26.4254 39.3065 26.4254 39.483C26.4254 39.678 26.4023 39.8569 26.3562 40.0205C26.3133 40.1812 26.2441 40.3208 26.1488 40.4405C26.0523 40.5601 25.9289 40.6539 25.7891 40.714C25.6445 40.7801 25.4692 40.813 25.2632 40.813H23.9669V38.1194ZM19.6773 38.5819L20.5953 41.7048H18.7641L19.6773 38.5819ZM46.4675 38.5819L47.3856 41.7048H45.5544L46.4675 38.5819ZM6.73452 39.044C6.5222 39.044 6.33922 39.099 6.18556 39.209C6.03506 39.3194 5.90899 39.4687 5.80737 39.6572L5.7934 39.1383H5V44.2426H5.81645V40.5912C5.89328 40.3744 6.00258 40.203 6.14401 40.0769C6.28858 39.9512 6.47157 39.8883 6.69297 39.8883C6.76386 39.8883 6.82671 39.8919 6.88224 39.898C6.93741 39.9012 6.99748 39.9087 7.06208 39.9215L7.05754 39.1101C7.03828 39.1015 7.01813 39.0951 6.99748 39.0912C6.97045 39.081 6.94265 39.0731 6.91436 39.0676C6.88239 39.0611 6.8501 39.0563 6.81763 39.0533C6.79029 39.0474 6.76246 39.0443 6.73452 39.044ZM9.47931 39.044C9.24445 39.0436 9.01148 39.0868 8.79171 39.1715C8.56467 39.2605 8.36214 39.4045 8.20155 39.5912C8.03218 39.7833 7.89529 40.0347 7.79088 40.3462C7.68612 40.6544 7.63373 41.0333 7.63373 41.483V42.0587C7.63373 42.4487 7.67843 42.7866 7.76783 43.073C7.85723 43.3594 7.98434 43.5966 8.15056 43.7851C8.31958 43.9708 8.52422 44.1091 8.76413 44.2005C9.00403 44.2916 9.27292 44.3373 9.5715 44.3373C9.78661 44.3373 9.97867 44.3151 10.1477 44.2712C10.3058 44.2324 10.459 44.1754 10.6045 44.1012C10.7368 44.0291 10.8506 43.9473 10.946 43.8558C11.0413 43.7644 11.1227 43.6701 11.1904 43.573L10.7661 43.0444C10.6984 43.1294 10.6261 43.208 10.5493 43.2801C10.4725 43.3498 10.3879 43.4108 10.2954 43.4644C10.2032 43.5144 10.1019 43.5541 9.99125 43.5823C9.88055 43.6108 9.75588 43.6251 9.61759 43.6251C9.2394 43.6251 8.94851 43.5005 8.74562 43.2523C8.54587 43.0037 8.446 42.6058 8.446 42.0587V41.9408H11.232V41.4548C11.232 41.0648 11.1995 40.7205 11.1349 40.4215C11.0707 40.123 10.9673 39.8715 10.8259 39.6669C10.6883 39.4657 10.5004 39.3059 10.2818 39.2044C10.0604 39.0972 9.79324 39.044 9.47931 39.044ZM9.47931 39.7612C9.6574 39.7612 9.80512 39.794 9.92175 39.8601C10.0387 39.9262 10.1313 40.019 10.1987 40.1387C10.2692 40.258 10.3202 40.4012 10.3509 40.568C10.3848 40.7315 10.4061 40.9123 10.4155 41.1105V41.2237H8.45054C8.46276 40.9373 8.49663 40.6998 8.55181 40.5112C8.60698 40.3226 8.67962 40.173 8.76866 40.063C8.86086 39.9497 8.96702 39.8712 9.08714 39.8272C9.21303 39.7822 9.34595 39.7598 9.47931 39.7612Z" fill="#A6A6A6"/>
</g>
<defs>
<clipPath id="clip0_101_395">
<rect width="44" height="45" fill="white" transform="translate(5 0.592529)"/>
</clipPath>
</defs>
</svg>
