<svg width="81" height="107" viewBox="0 0 81 107" fill="none" xmlns="http://www.w3.org/2000/svg">
<path d="M40.499 0C18.1323 0 0 17.9645 0 40.124C0 49.618 4.2218 57.9649 8.89468 65.2017L37.7447 105.587C38.0563 106.024 38.469 106.38 38.9483 106.626C39.4275 106.872 39.9593 107 40.499 107C41.0387 107 41.5705 106.872 42.0498 106.626C42.5291 106.38 42.9418 106.024 43.2532 105.587L72.1032 65.2017C76.5703 59.2479 81 49.618 81 40.124C81 17.9645 62.8677 0 40.499 0ZM40.499 63.5315C37.3964 63.5315 34.3242 62.926 31.4579 61.7497C28.5915 60.5733 25.9871 58.8491 23.7934 56.6755C21.5996 54.5019 19.8595 51.9214 18.6724 49.0815C17.4853 46.2416 16.8745 43.1978 16.8747 40.124C16.8747 33.9165 19.3637 27.9632 23.7941 23.5738C28.2245 19.1844 34.2334 16.7185 40.499 16.7185C46.7645 16.7185 52.7734 19.1844 57.2038 23.5738C61.6342 27.9632 64.1232 33.9165 64.1232 40.124C64.1235 43.1978 63.5126 46.2416 62.3255 49.0815C61.1384 51.9214 59.3983 54.5019 57.2045 56.6755C55.0108 58.8491 52.4064 60.5733 49.54 61.7497C46.6737 62.926 43.6015 63.5315 40.499 63.5315Z" fill="#46B2D0"/>
<path d="M40.0697 20.063C34.6993 20.063 29.5488 22.1765 25.7511 25.9386C21.9535 29.7007 19.8197 34.8033 19.8192 40.1239C19.8192 45.445 21.9527 50.5481 25.7504 54.3106C29.5481 58.0732 34.6989 60.187 40.0697 60.187C45.4404 60.187 50.5912 58.0732 54.389 54.3106C58.1867 50.5481 60.3202 45.445 60.3202 40.1239C60.3196 34.8033 58.1859 29.7007 54.3882 25.9386C50.5906 22.1765 45.4401 20.063 40.0697 20.063ZM40.0697 56.8424C35.5944 56.8419 31.3025 55.0803 28.138 51.9451C24.9735 48.8099 23.1955 44.5578 23.1949 40.1239C23.1955 35.6901 24.9735 31.438 28.138 28.3028C31.3025 25.1676 35.5944 23.406 40.0697 23.4055C44.5444 23.4065 48.8355 25.1684 51.9992 28.3036C55.163 31.4388 56.9403 35.6906 56.9403 40.1239C56.9403 44.5572 55.163 48.809 51.9992 51.9442C48.8355 55.0794 44.5444 56.8413 40.0697 56.8424Z" fill="#46B2D0"/>
</svg>
