<svg width="108" height="85" viewBox="0 0 108 85" fill="none" xmlns="http://www.w3.org/2000/svg">
<path d="M105.015 15.1481H102.936V13.1701C102.936 8.45107 100.311 5.89045 95.5778 5.89045H91.9671L91.9817 0H85.2197V5.89045H17.7187V2.91931C17.7187 2.4728 17.5409 2.04457 17.2243 1.72884C16.9078 1.41311 16.4785 1.23573 16.0308 1.23573C15.5831 1.23573 15.1538 1.41311 14.8373 1.72884C14.5207 2.04457 14.3429 2.4728 14.3429 2.91931V5.89045H13.2308C8.49765 5.89045 3.37578 8.45107 3.37578 13.1701V35.6952C3.37578 40.4142 8.49765 45.44 13.2308 45.44H12.6633V51.7866C12.6633 52.7176 12.6384 54.7225 12.6384 54.7225L14.3512 54.6977V62.7838C14.3512 63.2303 14.5291 63.6585 14.8456 63.9743C15.1621 64.29 15.5915 64.4674 16.0391 64.4674C16.4868 64.4674 16.9161 64.29 17.2326 63.9743C17.5492 63.6585 17.727 63.2303 17.727 62.7838V54.6977H19.3629C19.3629 54.6977 19.4149 52.7176 19.4149 51.7949V45.4463H21.3377C26.0688 45.4463 28.6962 40.4142 28.6962 35.7014V33.6695H64.1253V68.1684H5.47525C3.1492 68.1684 0 68.8132 0 71.1333V82.8976C0 85 1.98239e-07 85 2.10155 85H107.181C107.181 85 107.156 83.362 107.156 82.8976V71.1333C107.156 68.8111 106.497 68.1684 104.171 68.1684H102.936V33.6633L105.576 33.5969C108 33.5721 108 32.7821 108 28.1585V18.1565C108 15.8364 107.341 15.1481 105.015 15.1481ZM81.8439 61.4361H76.7678C76.7678 61.4361 76.7803 59.7961 76.7803 59.3337L76.7678 58.0897C76.7678 58.0897 78.3455 58.0752 78.8111 58.0752H81.8439V61.4361ZM90.2813 59.3337V61.4361H85.2093V58.069H90.2813V59.3337ZM84.7437 52.6264C82.572 52.6268 80.4489 51.9848 78.643 50.7815C76.8371 49.5783 75.4295 47.868 74.5982 45.8667C73.7669 43.8655 73.5493 41.6633 73.9729 39.5388C74.3965 37.4142 75.4422 35.4626 76.9779 33.9309C78.5135 32.3992 80.4701 31.3561 82.6001 30.9336C84.7301 30.5111 86.938 30.7281 88.9443 31.5573C90.9506 32.3864 92.6654 33.7904 93.8717 35.5917C95.078 37.393 95.7216 39.5107 95.7212 41.6769C95.7179 44.5798 94.5603 47.363 92.5023 49.4157C90.4444 51.4684 87.6541 52.6231 84.7437 52.6264Z" fill="white"/>
</svg>
