<svg width="59" height="57" viewBox="0 0 59 57" fill="none" xmlns="http://www.w3.org/2000/svg">
<path d="M42.3275 22.9734C33.1632 22.9734 25.6651 30.4715 25.6651 39.6358C25.6651 48.8002 33.1632 56.2983 42.3275 56.2983C51.4918 56.2983 58.9899 48.8002 58.9899 39.6358C58.9899 30.4715 51.4918 22.9734 42.3275 22.9734ZM50.0339 41.0938L43.5772 47.3422C43.1606 47.7588 42.7441 47.967 42.1192 47.967C41.4944 47.967 41.0778 47.7588 40.6613 47.3422C39.8281 46.5091 39.8281 45.2594 40.6613 44.4263L43.3689 41.7186H33.9963C32.7466 41.7186 31.9135 40.8855 31.9135 39.6358C31.9135 38.3861 32.7466 37.553 33.9963 37.553H43.3689L40.6613 34.8454C39.8281 34.0122 39.8281 32.7626 40.6613 31.9294C41.4944 31.0963 42.7441 31.0963 43.5772 31.9294L50.0339 38.1779C50.4504 38.5944 50.6587 39.011 50.6587 39.6358C50.6587 40.2607 50.4504 40.6772 50.0339 41.0938Z" fill="white"/>
<path d="M21.7075 41.9269C21.4992 40.4066 21.4992 38.865 21.7075 37.3447C21.7075 36.7199 21.9157 35.8867 22.124 35.2619C22.124 35.0536 22.124 35.0536 22.3323 34.8453C22.5406 34.2205 22.5406 33.8039 22.7489 33.1791C22.7489 32.9708 22.9571 32.7625 22.9571 32.5542C23.1654 32.1377 23.3737 31.5128 23.582 31.0963C23.582 30.888 23.7903 30.6797 23.9985 30.4714L24.6234 29.2218C24.8317 29.0135 24.8317 28.8052 25.0399 28.5969C25.2482 28.1804 25.6648 27.7638 25.8731 27.3472C26.0814 27.139 26.0814 26.9307 26.2896 26.7224C26.7062 26.0976 27.331 25.4727 27.7476 25.0561L29.2056 23.5982C29.4138 23.3899 29.6221 23.3899 29.8304 23.1816C30.247 22.9733 30.4552 22.5568 30.8718 22.3485C31.0801 22.1402 31.2884 22.1402 31.4966 21.9319C31.9132 21.7237 32.1215 21.5154 32.538 21.3071C32.7463 21.0988 33.1629 21.0988 33.3712 20.8905C33.5794 20.6823 33.996 20.6823 34.2043 20.474C34.4126 20.2657 34.8291 20.2657 35.0374 20.0574C35.2457 19.8491 35.6623 19.8491 35.8705 19.8491C36.2871 19.6409 36.4954 19.6409 36.9119 19.6409C37.1202 19.6409 37.5368 19.4326 37.7451 19.4326C38.1616 19.4326 38.5782 19.2243 38.7865 19.2243H39.4113C39.8279 19.2243 40.2444 19.016 40.661 19.016H42.7438C46.9094 19.2243 51.075 20.474 54.6158 23.1816V10.4765C54.6158 4.64467 50.0336 0.0625 44.2017 0.0625H11.0852C5.25331 0.0625 0.671143 4.64467 0.671143 10.4765V50.0498C0.671143 50.8829 1.0877 51.5078 1.92083 51.9243C2.12911 52.1326 2.54567 52.1326 2.75395 52.1326C3.17051 52.1326 3.79535 51.9243 4.21191 51.716C9.21064 47.1339 15.2508 44.0097 21.7075 41.9269ZM17.3336 14.6421H29.8304C31.0801 14.6421 31.9132 15.4753 31.9132 16.7249C31.9132 17.9746 31.0801 18.8077 29.8304 18.8077H17.3336C16.0839 18.8077 15.2508 17.9746 15.2508 16.7249C15.2508 15.4753 16.0839 14.6421 17.3336 14.6421ZM15.2508 25.0561C15.2508 23.8065 16.0839 22.9733 17.3336 22.9733H23.582C24.8317 22.9733 25.6648 23.8065 25.6648 25.0561C25.6648 26.3058 24.8317 27.139 23.582 27.139H17.3336C16.0839 27.139 15.2508 26.3058 15.2508 25.0561Z" fill="white"/>
</svg>
