<svg width="94" height="94" viewBox="0 0 94 94" fill="none" xmlns="http://www.w3.org/2000/svg">
<path d="M53.7149 36.9354H40.2748V0.00620287H53.7149V36.9354ZM80.5723 30.2133H67.1322V63.7908H80.5723V30.2133ZM80.5723 83.9282H67.1322V94H80.5723V83.9282ZM80.5723 0H67.1322V10.0718H80.5723V0ZM53.7149 57.0687H40.2748V93.9979H53.7149V57.0687ZM63.7867 40.2831H30.2154V53.7128H63.7867V40.2831ZM94 67.1405H57.0646V80.5682H93.9938L94 67.1405ZM94 13.4256H57.0646V26.8636H93.9938L94 13.4256ZM26.8574 30.2133H13.4173V63.7908H26.8574V30.2133ZM26.8574 83.9282H13.4173V94H26.8574V83.9282ZM26.8574 0H13.4173V10.0718H26.8574V0ZM36.9292 67.1426H-0.00415039V80.5702H36.9251L36.9292 67.1426ZM36.9292 13.4277H-0.00415039V26.8636H36.9251L36.9292 13.4277ZM10.0718 40.2913H-0.00415039V53.7211H10.0677L10.0718 40.2913ZM94 40.2913H83.9282V53.7211H94V40.2913Z" fill="#46B2D0"/>
</svg>
