<svg width="70" height="61" viewBox="0 0 70 61" fill="none" xmlns="http://www.w3.org/2000/svg">
<path d="M5.8207 25.4819C5.8207 24.5013 5.8207 23.5844 5.8207 22.5529C8.07475 22.5783 10.3543 22.7821 11.9843 20.7955C12.9649 19.5985 13.1304 18.2104 13.1304 16.7204C13.1304 14.8229 12.5192 13.1164 10.8128 12.3269C9.32281 11.6392 7.56541 11.5119 5.79529 11.1171C5.79529 9.15597 5.62971 6.92738 5.8462 4.737C6.08816 2.33014 7.9474 0.903839 10.3543 0.903839C23.3182 0.903839 36.2822 0.903839 49.2462 0.903839C49.8447 0.903839 50.4432 0.814715 51.0545 0.763776C53.1557 0.572755 54.9131 1.33685 56.3267 2.80134C57.6129 4.13849 57.7529 6.87645 56.6705 8.57017C53.5887 13.3839 50.456 18.1721 47.336 22.9604C45.6677 25.5328 44.0758 28.1562 42.293 30.6394C39.7588 34.167 38.3707 38.0765 37.7467 42.3554C37.1991 46.0739 36.4095 49.767 35.7728 53.4728C35.7219 53.7657 35.9001 54.2878 36.1293 54.3897C36.4986 54.568 37.0717 54.6571 37.4283 54.4916C38.5999 53.9822 39.6951 53.32 40.8412 52.7469C43.8211 51.2697 46.8393 49.8689 49.781 48.3152C50.7871 47.7804 51.7549 47.0036 52.4553 46.0994C53.9962 44.1128 55.3588 41.9861 57.0016 39.9231C57.0016 40.2669 57.0016 40.6107 57.0016 40.9418C57.0016 45.1188 57.027 49.2958 56.9888 53.4728C56.9761 54.9118 56.9889 56.3763 56.7087 57.7644C56.3012 59.802 54.6202 60.9863 52.5317 60.9863C38.4598 60.9863 24.388 60.9863 10.3034 60.9863C7.47624 60.9863 6.0627 59.7892 5.85894 56.9366C5.71886 54.8991 5.83345 52.8361 5.83345 50.633C6.61027 50.633 7.37434 50.6457 8.12569 50.633C11.0165 50.5948 13.0795 48.5699 13.1304 45.6791C13.1432 44.9023 13.1687 44.1128 13.0031 43.3742C12.5192 41.1583 10.6217 39.6684 8.25308 39.5792C7.489 39.5538 6.71217 39.5792 5.85894 39.5792C5.85894 38.5987 5.85894 37.6817 5.85894 36.6375C8.10026 36.6757 10.367 36.8285 11.9971 34.8674C13.0159 33.6448 13.1687 32.2058 13.1559 30.6904C13.1432 28.8311 12.4173 27.3921 10.8892 26.3224C9.33554 25.2399 7.56536 25.6347 5.8207 25.4819ZM31.4685 16.4275C34.7286 16.4275 37.9887 16.453 41.2615 16.4148C43.2863 16.3893 44.4069 14.8611 43.7829 13.0273C43.4264 11.9449 42.5604 11.4609 40.9176 11.4609C34.7285 11.4609 28.5395 11.4609 22.3504 11.4609C22.0193 11.4609 21.6754 11.4737 21.3443 11.5373C20.1345 11.7538 19.3323 12.7089 19.3068 13.9315C19.2941 15.4724 20.2491 16.402 21.9683 16.4148C25.152 16.4402 28.3103 16.4275 31.4685 16.4275ZM27.8645 29.4551C29.7875 29.4551 31.6977 29.4678 33.6206 29.4424C34.0791 29.4424 34.5758 29.4042 35.0088 29.2514C36.1167 28.8438 36.7279 27.685 36.5242 26.4752C36.3332 25.3673 35.2889 24.5522 33.9135 24.5395C29.9785 24.5268 26.0435 24.5268 22.0957 24.5395C20.2874 24.5395 19.3323 25.4055 19.3323 27.01C19.3323 28.6019 20.2619 29.4424 22.1085 29.4551C24.0187 29.4678 25.9416 29.4551 27.8645 29.4551Z" fill="white"/>
<path d="M42.2166 37.0959C47.1576 29.264 52.035 21.534 56.9888 13.6895C60.1852 15.8162 63.3308 17.9174 66.6036 20.0823C61.4333 27.634 56.3012 35.1347 51.08 42.7501C48.151 40.8908 45.2474 39.0316 42.2166 37.0959Z" fill="white"/>
<path d="M67.546 17.6119C64.5279 15.7399 61.5097 13.8551 58.2623 11.843C59.192 10.7096 59.9306 9.52532 60.9494 8.6721C62.0573 7.74246 63.5345 7.74248 64.7443 8.53203C66.3107 9.55081 67.8898 10.646 69.1506 11.9959C69.6982 12.5817 69.6727 13.8933 69.5708 14.8484C69.4307 16.0328 68.6794 16.9879 67.546 17.6119Z" fill="white"/>
<path d="M49.8956 44.762C47.4633 46.3029 45.1965 47.7419 42.9297 49.1555C42.2802 49.563 41.6052 49.9577 40.9048 50.2889C39.8096 50.8237 39.0202 50.3653 39.1475 49.1682C39.364 47.2708 39.746 45.386 40.0516 43.5013C40.2681 42.1768 40.4719 40.8524 40.7011 39.3115C43.8084 41.1453 46.7501 42.89 49.8956 44.762Z" fill="white"/>
<path d="M5.82065 28.2199C6.59747 28.2199 7.3743 28.1817 8.13838 28.2327C9.7939 28.3345 10.6471 29.3278 10.6598 31.1234C10.6726 33.1228 9.80665 34.3071 8.16388 34.3835C6.54656 34.4599 4.92926 34.4599 3.31195 34.3835C1.75831 34.3198 0.815887 33.1228 0.790418 31.4163C0.777683 29.5443 1.66914 28.3473 3.28645 28.2199C4.13968 28.169 4.98016 28.2199 5.82065 28.2199Z" fill="white"/>
<path d="M5.76975 42.3045C6.61025 42.3045 7.45071 42.279 8.2912 42.3172C9.61562 42.3682 10.5453 43.2978 10.6472 44.6222C10.6726 45.0297 10.6726 45.4245 10.6598 45.832C10.6089 47.3092 9.57739 48.3789 8.1129 48.4171C6.53379 48.4553 4.95471 48.4553 3.36287 48.4171C2.03846 48.3917 0.981502 47.4493 0.84142 46.1249C0.777746 45.5009 0.790453 44.8387 0.892331 44.2147C1.08335 43.0558 1.86017 42.4064 3.0445 42.3172C3.10818 42.3172 3.18463 42.3045 3.2483 42.3045C4.08879 42.2917 4.92926 42.2917 5.76975 42.3045Z" fill="white"/>
<path d="M5.71877 20.0949C4.94196 20.0949 4.16513 20.1204 3.40104 20.0949C1.82194 20.044 0.815844 18.8852 0.803109 17.115C0.790375 15.2176 1.70733 14.0332 3.32464 13.9823C4.86554 13.9314 6.41912 13.9314 7.96002 13.9823C9.75562 14.046 10.7107 15.2812 10.6598 17.3824C10.6216 19.0507 9.56463 20.095 7.8327 20.1077C7.13229 20.095 6.43192 20.0949 5.71877 20.0949Z" fill="white"/>
</svg>
