<svg width="77" height="57" viewBox="0 0 77 57" fill="none" xmlns="http://www.w3.org/2000/svg">
<path d="M29.5428 14.7703C30.205 15.1523 30.7908 15.4961 31.3766 15.84C33.2359 16.9097 35.0824 18.0049 36.9544 19.0491C37.3619 19.2784 37.5275 19.533 37.5275 20.017C37.502 26.1678 37.5148 32.3187 37.5148 38.4696C37.5148 39.6285 37.9096 39.8959 38.9793 39.4756C39.6542 39.2082 40.3929 38.6606 40.9914 38.788C41.5517 38.9153 41.9592 39.7431 42.4304 40.2779C42.8379 40.7236 43.2326 41.1821 43.6274 41.6405C43.9076 41.9717 44.2133 42.2009 44.659 42.0353C45.1047 41.8698 45.1556 41.475 45.1556 41.0547C45.1556 35.5661 45.1556 30.0901 45.1556 24.6015C45.1556 24.3722 45.1556 24.143 45.1556 23.8501C45.3211 23.9138 45.4485 23.952 45.5631 24.0157C47.5879 25.1873 49.6128 26.3461 51.6121 27.5305C51.8159 27.6451 52.0196 27.9634 52.0196 28.1927C52.0451 37.4126 52.0324 46.6198 52.0324 55.8398C52.0324 55.9034 52.0196 55.9671 52.0069 56.1072C51.8286 56.018 51.663 55.9544 51.523 55.8652C44.3406 51.7264 37.1582 47.5749 29.9758 43.4361C29.6957 43.2706 29.5046 43.1178 29.5046 42.7357C29.5174 33.5158 29.5174 24.3086 29.5174 15.0886C29.5174 15.0122 29.5301 14.9613 29.5428 14.7703ZM31.1346 41.3476C31.1346 41.8443 31.1346 42.3409 31.1346 42.8376C31.1346 43.347 31.3639 43.6908 31.9115 43.6781C32.4209 43.6654 32.6374 43.3343 32.6374 42.8503C32.6374 41.8316 32.6374 40.8128 32.6374 39.794C32.6374 39.3101 32.3954 38.979 31.8988 38.979C31.4021 38.979 31.1474 39.2973 31.1474 39.7813C31.1347 40.3161 31.1346 40.8382 31.1346 41.3476ZM34.6367 43.5635C34.6367 44.0219 34.6367 44.4804 34.6367 44.9388C34.6367 45.4228 34.8659 45.7666 35.3626 45.7666C35.8592 45.7793 36.1267 45.4609 36.1267 44.9643C36.1394 44.0219 36.1394 43.0923 36.1267 42.1499C36.114 41.6915 35.8847 41.3858 35.4008 41.3858C34.8914 41.3731 34.6494 41.6915 34.6367 42.1754C34.6367 42.6466 34.6367 43.105 34.6367 43.5635ZM38.2661 45.7539C38.2661 46.1741 38.2661 46.5816 38.2661 47.0019C38.2661 47.4858 38.4954 47.8169 39.0048 47.8169C39.5142 47.8296 39.7561 47.5112 39.7688 47.0273C39.7816 46.2123 39.7816 45.3973 39.7688 44.595C39.7561 44.1111 39.5142 43.7927 39.0048 43.8054C38.4954 43.8182 38.2789 44.1493 38.2789 44.6332C38.2662 45.0025 38.2661 45.3718 38.2661 45.7539ZM41.7809 48.0079C41.7809 48.4027 41.7555 48.7975 41.7809 49.1922C41.8191 49.6252 42.0865 49.8926 42.5195 49.8926C42.9525 49.8926 43.2454 49.6252 43.2581 49.1922C43.2836 48.4281 43.2836 47.6513 43.2581 46.8745C43.2454 46.4415 42.9525 46.1741 42.5195 46.1741C42.0865 46.1741 41.8191 46.4415 41.7809 46.8618C41.7555 47.2565 41.7809 47.6386 41.7809 48.0079ZM45.4103 50.2747C45.4103 50.6313 45.3212 51.0133 45.4358 51.3189C45.5377 51.5864 45.856 51.9047 46.1234 51.9684C46.531 52.0575 46.8494 51.7646 46.8748 51.3317C46.913 50.6567 46.913 49.9691 46.8748 49.2814C46.8494 48.8484 46.5692 48.5937 46.1362 48.5937C45.7159 48.5937 45.4358 48.8484 45.3976 49.2814C45.3848 49.6125 45.4103 49.9436 45.4103 50.2747Z" fill="white"/>
<path d="M30.2687 13.4587C32.9684 11.8923 35.5791 10.3896 38.2025 8.8869C42.8761 6.18714 47.537 3.50011 52.1979 0.787611C52.6182 0.545651 52.9365 0.520188 53.3822 0.774883C55.8146 2.21391 58.2724 3.61472 60.7939 5.06648C60.5646 5.2193 60.3863 5.34665 60.1953 5.44853C53.0766 9.56184 45.9579 13.6624 38.8392 17.7885C38.4444 18.0177 38.1642 18.0177 37.7695 17.7885C35.3116 16.3494 32.8411 14.9359 30.2687 13.4587Z" fill="white"/>
<path d="M45.9579 22.4876C47.8172 21.4051 49.6255 20.3609 51.4211 19.3294C56.9225 16.1584 62.4239 12.9875 67.9125 9.79106C68.3073 9.56183 68.5875 9.56183 68.9823 9.79106C70.8798 10.9117 72.8027 12.0069 74.7129 13.1148C74.8912 13.2167 75.0568 13.3313 75.2987 13.4714C74.3691 14.0063 73.5159 14.5029 72.6499 15.0123C66.2189 18.7308 59.7751 22.4366 53.344 26.1679C52.9492 26.3971 52.6691 26.4099 52.2743 26.1807C50.3769 25.06 48.4539 23.9648 46.5437 22.8569C46.3527 22.7423 46.1871 22.6277 45.9579 22.4876Z" fill="white"/>
<path d="M66.932 8.6322C65.3911 9.52363 63.9648 10.3514 62.5513 11.1664C56.6933 14.5538 50.8354 17.9285 44.9774 21.3287C44.5571 21.5707 44.277 21.5834 43.8567 21.3287C42.545 20.5264 41.1951 19.7751 39.807 18.9728C40.7366 18.4252 41.6026 17.9285 42.4686 17.4319C48.8869 13.7261 55.3052 10.033 61.7108 6.30174C62.1819 6.03431 62.5003 6.04705 62.9461 6.31448C64.2195 7.07856 65.5312 7.81717 66.932 8.6322Z" fill="white"/>
<path d="M39.0557 20.2844C40.5584 21.1377 42.0101 21.9654 43.4364 22.7932C43.551 22.8568 43.6401 23.0606 43.6401 23.2007C43.6529 28.4983 43.6401 33.7832 43.6401 39.0809C43.6401 39.1191 43.6019 39.1445 43.551 39.2337C43.0161 38.6352 42.4813 38.0621 41.9846 37.4636C41.6153 37.0051 41.1951 36.9032 40.6603 37.1452C40.1509 37.3744 39.6287 37.5654 39.0557 37.8074C39.0557 31.9622 39.0557 26.1806 39.0557 20.2844Z" fill="white"/>
<path d="M0.545898 19.9917C1.04255 19.6606 1.4246 19.4568 1.74297 19.1766C3.11832 17.9668 4.69744 17.7249 6.45483 18.005C7.33353 18.1451 8.23767 18.1197 9.14184 18.1579C9.32013 18.1579 9.52385 18.1069 9.66393 18.0178C12.9113 15.9038 16.1459 13.7771 19.4697 11.6122C19.2659 11.4976 19.1131 11.4085 18.9603 11.332C16.3369 10.1095 13.7136 8.88698 11.0902 7.66444C10.9119 7.58804 10.7718 7.42249 10.6063 7.30787C10.7591 7.15506 10.8865 6.96404 11.0648 6.84942C12.2491 6.13628 13.4207 5.43587 14.6305 4.77367C14.8852 4.63358 15.2672 4.5699 15.5601 4.64631C18.7056 5.43586 21.8511 6.25089 24.9966 7.10411C25.4423 7.21873 25.7479 7.14232 26.079 6.88763C27.5435 5.81791 29.008 4.74819 30.4979 3.71668C32.2426 2.50688 34.191 2.01023 36.305 2.25219C36.3814 2.26492 36.4578 2.29039 36.6233 2.34133C36.1903 2.59602 35.8338 2.78705 35.4772 3.00354C34.9679 3.32191 34.8278 3.85676 35.108 4.34068C35.4009 4.85007 35.9102 5.01562 36.4451 4.73545C37.2856 4.277 38.1006 3.78035 38.9538 3.33464C39.1703 3.22002 39.5141 3.23276 39.7434 3.30917C40.1127 3.44925 40.4437 3.67848 40.7621 3.9077C41.4625 4.41709 41.5517 5.0793 40.9404 5.71603C40.5584 6.11081 40.1 6.46738 39.616 6.74754C36.1904 8.72143 32.7392 10.6826 29.3009 12.631C28.9061 12.8475 28.6897 13.1149 28.575 13.5606C27.7728 16.5405 26.9577 19.5077 26.1172 22.4749C26.0408 22.7551 25.7989 23.0607 25.5442 23.2135C24.3853 23.914 23.201 24.5634 22.0166 25.2256C21.8129 25.3402 21.5709 25.353 21.3417 25.4039C21.3162 25.1874 21.2525 24.9582 21.278 24.7417C21.4945 22.2075 21.7365 19.6733 21.9657 17.1391C21.9657 17.0754 21.953 17.0117 21.9402 16.9481C21.8766 16.9481 21.8001 16.9353 21.7619 16.9608C17.8651 19.1894 13.599 20.5138 9.44746 22.1056C9.23097 22.1948 8.93806 22.2075 8.72157 22.1438C6.21283 21.5326 3.71679 20.8958 1.20805 20.2464C1.0425 20.2336 0.889736 20.1445 0.545898 19.9917Z" fill="white"/>
<path d="M75.6807 14.9742C68.422 19.1639 61.1759 23.3536 53.9171 27.5179C53.5478 27.7344 53.535 27.9891 53.535 28.3329C53.535 37.3873 53.535 46.429 53.535 55.4834C53.535 55.6744 53.5605 55.8654 53.5733 56.1456C57.5592 53.8406 61.4688 51.5865 65.3911 49.3198L76.0373 43.1943V14.7959C75.859 14.885 75.7699 14.936 75.6807 14.9742ZM62.0418 42.1756C60.7684 42.9269 59.4821 43.6655 58.1959 44.3914C57.6228 44.7098 57.0243 44.4041 57.0116 43.6273C57.1007 43.5127 57.2281 43.2325 57.4574 43.1052C58.7181 42.3411 60.0043 41.6152 61.2905 40.8766C61.7108 40.6347 62.1182 40.6729 62.3729 41.1186C62.6404 41.5516 62.4621 41.9336 62.0418 42.1756ZM62.2201 31.3892C61.8636 31.6949 61.4815 31.6185 61.1631 31.2874C60.9084 31.0199 60.6538 30.7525 60.3227 30.3959C60.3099 30.7016 60.2844 30.9053 60.2844 31.0964C60.2844 33.7452 60.2844 36.394 60.2844 39.0428C60.2844 39.2084 60.3482 39.4249 60.259 39.5267C60.068 39.7814 59.826 40.0998 59.5458 40.1635C59.1255 40.2654 58.8327 39.9597 58.7945 39.5267C58.7563 39.0683 58.7817 38.6098 58.7817 38.1514V31.7076C58.7435 31.6949 58.7054 31.6822 58.6672 31.6567C58.4761 32.0005 58.2978 32.3444 58.0941 32.6755C57.8521 33.083 57.5083 33.2867 57.0498 33.032C56.6041 32.7901 56.5404 32.3953 56.7696 31.9623C57.4446 30.6888 58.1196 29.4154 58.8072 28.1674C59.1129 27.607 59.635 27.5434 60.0935 28.0018C60.8193 28.7404 61.5325 29.5045 62.2456 30.2686C62.5895 30.6506 62.6022 31.0581 62.2201 31.3892Z" fill="white"/>
</svg>
