<svg width="60" height="65" viewBox="0 0 60 65" fill="none" xmlns="http://www.w3.org/2000/svg">
<path d="M59.9704 45.8512C54.227 37.459 42.1927 38.1722 37.0988 45.813C37.0734 45.5838 37.0479 45.4183 37.0479 45.2654C37.0479 34.3518 37.0352 23.4381 37.0479 12.5117C37.0606 5.72411 42.5239 0.464687 49.1332 0.833994C54.9147 1.15236 59.5502 5.76234 59.945 11.6203C59.9704 11.9387 59.9704 12.2443 59.9704 12.5627C59.9704 23.4509 59.9704 34.3518 59.9704 45.24C59.9704 45.3928 59.9704 45.5456 59.9704 45.8512Z" fill="white"/>
<path d="M48.4964 64.9659C42.2309 64.9659 37.0606 59.7829 37.0352 53.5174C37.0224 47.2647 42.18 42.0816 48.4709 42.0434C54.7237 42.0052 59.9832 47.2519 59.9577 53.5301C59.945 59.8083 54.7619 64.9659 48.4964 64.9659ZM48.4837 61.5148C52.9536 61.5276 56.4938 58 56.5065 53.5301C56.5193 49.0602 52.9918 45.5073 48.5219 45.5073C44.0393 45.5073 40.5118 49.022 40.499 53.4919C40.499 57.9746 44.0138 61.5021 48.4837 61.5148Z" fill="white"/>
<path d="M34.7557 39.5093C34.7557 41.2539 34.7811 42.884 34.7302 44.514C34.7302 44.7432 34.4245 45.0234 34.1953 45.1635C27.3058 49.1749 20.4036 53.1736 13.5141 57.1851C9.37535 59.5792 5.24927 61.9861 1.11049 64.3802C0.906732 64.4948 0.690245 64.5967 0.397346 64.7622C0.397346 63.1704 0.371902 61.6804 0.42284 60.1905C0.42284 59.9867 0.728479 59.7448 0.944969 59.6047C8.2165 55.2621 15.5007 50.945 22.7723 46.6152C26.5418 44.3739 30.2985 42.1454 34.068 39.9041C34.2463 39.7767 34.4373 39.6748 34.7557 39.5093Z" fill="white"/>
<path d="M32.9091 37.9048C31.1262 38.9745 29.4325 39.8787 27.8407 40.9484C26.7455 41.687 25.7777 41.7762 24.5042 41.3814C16.6724 39.0255 8.81501 36.7714 0.970417 34.4792C0.779396 34.4282 0.601095 34.3518 0.397339 34.2881C0.397339 32.7854 0.397339 31.3082 0.397339 29.7673C11.2091 32.4798 21.97 35.1668 32.9091 37.9048Z" fill="white"/>
<path d="M34.8448 13.6322C34.6411 13.836 34.4628 14.078 34.2208 14.2308C27.1912 18.5224 20.1489 22.814 13.1066 27.1056C11.8841 27.8442 10.6743 28.5956 9.43903 29.3214C9.24801 29.436 8.96785 29.5379 8.76409 29.4997C6.6756 29.003 4.61259 28.4682 2.53683 27.9333C2.49863 27.9206 2.47314 27.8824 2.39673 27.8314C2.60048 27.7041 2.77879 27.5895 2.96981 27.4749C10.8017 22.9031 18.6335 18.3313 26.4654 13.785C26.8219 13.5686 27.2931 13.454 27.7134 13.4412C30.0311 13.403 32.3616 13.4285 34.6793 13.4285C34.7302 13.4921 34.7812 13.5686 34.8448 13.6322Z" fill="white"/>
<path d="M34.7557 47.4939C34.7557 49.2768 34.7685 50.9323 34.7302 52.575C34.7302 52.7788 34.4246 53.0208 34.2081 53.1609C30.133 55.5423 26.0579 57.8982 21.97 60.2541C19.4231 61.7313 16.8634 63.2085 14.3037 64.6858C14.0618 64.8259 13.7689 64.9532 13.5014 64.9532C10.6998 64.9787 7.9109 64.9659 5.10926 64.9659C5.04558 64.9659 4.98191 64.9405 4.75269 64.9023C14.8004 59.0698 24.708 53.3264 34.7557 47.4939Z" fill="white"/>
<path d="M34.7557 16.5996C34.7557 18.3825 34.7684 20.0507 34.7429 21.719C34.7429 21.8591 34.5392 22.0501 34.3863 22.1392C29.1269 25.3102 23.8675 28.4684 18.5953 31.6139C18.3915 31.7412 18.0732 31.8049 17.8567 31.754C16.0738 31.3337 14.3037 30.8753 12.5335 30.4295C12.4699 30.4168 12.4317 30.3659 12.3043 30.2767C19.7669 25.7304 27.204 21.1968 34.7557 16.5996Z" fill="white"/>
<path d="M34.8957 55.415C35.5706 59.4137 37.5191 62.521 40.8556 64.9151C33.3676 64.9151 26.0196 64.9151 18.4934 64.9151C24.0203 61.7187 29.3943 58.5987 34.8957 55.415Z" fill="white"/>
<path d="M23.5491 43.4572C22.5303 44.0685 21.6516 44.5906 20.7856 45.1127C19.8815 45.6475 19.0155 46.5008 18.0604 46.6154C17.1053 46.73 16.0738 46.0933 15.0677 45.7876C10.4196 44.3359 5.78412 42.8841 1.12321 41.4578C0.511938 41.2668 0.346391 40.9994 0.371861 40.3881C0.4228 39.2038 0.384608 38.0194 0.384608 36.7078C8.08912 38.9491 15.73 41.1777 23.5491 43.4572Z" fill="white"/>
<path d="M22.4285 13.4667C15.0169 17.7965 7.75807 22.0244 0.384667 26.3288C0.384667 24.9152 0.371905 23.629 0.397375 22.3428C0.397375 22.19 0.562926 21.9862 0.715743 21.8971C5.19837 19.1209 9.69375 16.3575 14.1891 13.6068C14.3674 13.4922 14.6093 13.4412 14.8131 13.4412C17.2072 13.4285 19.6014 13.4285 21.9955 13.4412C22.0719 13.4157 22.161 13.4412 22.4285 13.4667Z" fill="white"/>
<path d="M15.4116 48.2963C13.1066 49.6716 10.9544 50.9451 8.80225 52.2059C8.64943 52.295 8.36925 52.2568 8.19097 52.1931C5.7459 51.2889 3.30086 50.372 0.85579 49.4297C0.664769 49.3532 0.410066 49.0859 0.410066 48.9076C0.371862 47.1629 0.384611 45.4182 0.384611 43.5972C5.37662 45.1635 10.3049 46.7044 15.4116 48.2963Z" fill="white"/>
<path d="M21.3588 32.6452C25.8923 29.92 30.2603 27.2966 34.7557 24.6096C34.7557 26.4052 34.7684 28.0735 34.7429 29.729C34.7429 29.869 34.5392 30.0601 34.3864 30.1492C32.1833 31.4227 29.9802 32.6834 27.7643 33.9314C27.5733 34.0461 27.2804 34.1225 27.0766 34.0715C25.2174 33.6258 23.3836 33.1546 21.3588 32.6452Z" fill="white"/>
<path d="M0.410156 19.3757C0.410156 17.3254 0.410156 15.4279 0.410156 13.4795C3.55563 13.4795 6.68838 13.4795 9.9994 13.4795C6.73931 15.4788 3.61931 17.4018 0.410156 19.3757Z" fill="white"/>
<path d="M0.410156 57.2233C0.410156 55.3513 0.410156 53.6194 0.410156 51.7346C2.30763 52.4478 4.14145 53.1227 6.07713 53.8485C4.14145 55.0074 2.32037 56.0772 0.410156 57.2233Z" fill="white"/>
<path d="M34.7175 32.5942C34.7175 33.7786 34.7175 34.861 34.7175 35.9817C33.3803 35.6506 32.0941 35.3322 30.5914 34.9502C32.0305 34.1351 33.3421 33.3838 34.7175 32.5942Z" fill="white"/>
<path d="M48.4201 59.2226C45.2236 59.1589 42.7404 56.6247 42.7913 53.441C42.8422 50.2573 45.4019 47.7486 48.5474 47.7868C51.7565 47.825 54.2653 50.4101 54.2016 53.6065C54.1507 56.803 51.6037 59.2735 48.4201 59.2226Z" fill="white"/>
</svg>
