<svg width="73" height="70" viewBox="0 0 73 70" fill="none" xmlns="http://www.w3.org/2000/svg">
<path d="M55.4218 69.22C42.98 69.22 30.6145 69.22 18.16 69.22C18.16 68.8889 18.16 68.596 18.16 68.3031C18.16 57.0583 18.16 45.8135 18.1472 34.5688C18.1472 33.1552 18.2237 31.8181 18.8094 30.4554C19.7263 28.3287 19.9556 26.011 19.981 23.7061C19.9938 22.5345 20.0575 21.3629 19.9684 20.1913C19.8283 18.1664 19.6117 16.1416 19.3698 14.1296C19.1533 12.3594 18.8604 10.5893 18.593 8.7173C20.0065 8.27158 21.5092 7.78767 23.0883 7.29102C23.4321 8.69184 23.776 10.0544 24.1198 11.4171C24.6674 13.582 25.2915 15.7341 25.7626 17.9118C26.0683 19.2999 27.6601 19.8602 28.8317 18.6631C31.0475 16.4091 33.2888 14.1932 35.5302 11.9646C36.1669 11.3279 37.4404 11.3279 38.0898 11.9774C40.293 14.1678 42.4833 16.3708 44.6864 18.5612C45.9981 19.8729 47.4753 19.4908 47.9338 17.6825C48.787 14.2823 49.6148 10.8822 50.4425 7.46928C50.4553 7.43108 50.5062 7.39287 50.5826 7.30372C52.0726 7.77491 53.588 8.25885 55.0398 8.7173C54.8105 10.7039 54.5431 12.5759 54.3775 14.4606C54.1738 16.8166 53.9191 19.1852 53.9446 21.5411C53.9701 24.9413 54.3393 28.3288 55.3199 31.6271C55.3836 31.8435 55.4345 32.06 55.4345 32.2893C55.4345 44.4254 55.4345 56.5617 55.4345 68.6979C55.4473 68.8507 55.4345 69.0035 55.4218 69.22Z" fill="white"/>
<path d="M8.53241 62.9547C5.93453 62.9547 3.45126 62.9547 0.891578 62.9547C0.891578 62.6745 0.891578 62.4198 0.891578 62.1778C0.891578 55.4921 0.802419 48.7937 0.955236 42.1079C0.99344 40.3633 1.61751 38.5931 2.21604 36.9122C4.33 30.9141 6.46943 24.9288 8.73621 18.9944C9.66585 16.5493 11.003 14.2698 12.8623 12.3469C13.6136 11.5701 14.4158 10.8314 15.2054 10.0801C15.2818 10.1055 15.3582 10.1438 15.4474 10.1692C15.5874 10.9333 15.7785 11.6974 15.8676 12.4615C16.1478 14.8302 16.377 17.1861 16.6444 19.5547C17.001 22.7639 16.81 25.9348 15.8421 29.0039C15.5747 29.8699 14.8743 30.5957 14.4031 31.4107C12.7221 34.3015 11.0411 37.1796 9.39837 40.0831C8.77437 41.1911 8.51968 42.3881 8.53241 43.687C8.55788 49.8124 8.54516 55.9506 8.54516 62.076C8.53243 62.3434 8.53241 62.6236 8.53241 62.9547Z" fill="white"/>
<path d="M72.6774 62.9929C70.2069 62.9929 67.8128 62.9929 65.4187 62.9929C65.3168 62.9929 65.2276 62.9674 65.0621 62.9419C65.0621 62.649 65.0621 62.3689 65.0621 62.1014C65.0621 55.8487 65.0875 49.5832 65.0366 43.3305C65.0238 42.3372 64.7946 41.2547 64.3362 40.3888C62.7698 37.4343 61.178 34.5053 59.3697 31.6909C58.3 30.0227 57.7524 28.278 57.5995 26.3933C57.4085 23.8209 57.2429 21.2484 57.3066 18.676C57.3703 16.3328 57.765 13.9897 58.0197 11.6592C58.0707 11.1753 58.1471 10.6913 58.2235 10.0801C59.5607 11.0097 60.6049 12.0667 61.5345 13.2383C63.7886 16.0909 65.0875 19.4274 66.2973 22.8148C67.8127 27.0427 69.4683 31.2325 70.971 35.4731C71.6587 37.4343 72.1298 39.4846 72.6902 41.4839C72.7284 41.5985 72.7029 41.7386 72.7029 41.866C72.7029 48.7555 72.7029 55.6577 72.7029 62.5472C72.7029 62.649 72.6902 62.7764 72.6774 62.9929Z" fill="white"/>
<path d="M29.4556 1.52227C34.3584 0.236058 39.1977 0.261503 44.0496 1.49677C44.2661 3.95457 40.5985 7.88959 37.8478 8.16976C33.1614 8.65368 30.6017 5.5337 29.4556 1.52227Z" fill="white"/>
<path d="M32.1428 10.4492C30.8056 11.7864 29.5321 13.0471 28.2713 14.3206C27.5582 11.5444 26.8069 8.73002 26.1574 5.87744C26.0555 5.44446 26.5013 4.88414 26.7942 4.37476C28.0167 6.97264 29.6467 9.12479 32.1428 10.4492Z" fill="white"/>
<path d="M46.6985 4.3877C47.6027 5.12631 47.4753 5.92857 47.2206 6.87094C46.5329 9.35422 45.9599 11.8757 45.3614 14.308C44.0879 13.0345 42.8017 11.7483 41.49 10.4494C43.9223 9.13772 45.5906 6.99831 46.6985 4.3877Z" fill="white"/>
</svg>
