<svg width="637" height="721" viewBox="0 0 637 721" fill="none" xmlns="http://www.w3.org/2000/svg">
<path d="M131.456 253.105C107.324 277.238 68.2153 277.238 44.083 253.105C19.9506 228.973 19.9506 189.865 44.083 165.732C68.2153 141.6 107.324 141.6 131.456 165.732L149.807 147.382C115.55 113.125 60.0013 113.125 25.7449 147.382C-8.51149 181.638 -8.51149 237.187 25.7449 271.443C60.0013 305.7 115.55 305.7 149.807 271.443L131.456 253.105Z" fill="#FFB000"/>
<path d="M131.443 464.527C107.311 488.66 68.2025 488.66 44.0702 464.527C19.9506 440.395 19.9506 401.287 44.0702 377.154C68.2025 353.022 107.311 353.022 131.443 377.154L149.781 358.804C115.525 324.547 59.9758 324.547 25.7194 358.804C-8.53701 393.06 -8.53701 448.609 25.7194 482.865C59.9758 517.122 115.525 517.122 149.781 482.865L131.443 464.527Z" fill="#1CA7CD"/>
<path d="M149.794 358.804C173.914 382.936 213.035 382.936 237.167 358.804C261.287 334.684 261.287 295.563 237.167 271.431C213.035 247.311 173.926 247.311 149.794 271.431L131.443 253.08C165.7 218.824 221.249 218.824 255.505 253.08C289.761 287.336 289.761 342.885 255.505 377.142C221.249 411.398 165.7 411.398 131.443 377.142L149.794 358.804Z" fill="#00456F"/>
<path d="M149.756 570.251C173.875 594.383 212.996 594.383 237.129 570.251C261.248 546.119 261.248 507.01 237.129 482.878C212.996 458.758 173.888 458.758 149.756 482.878L131.405 464.527C165.661 430.271 221.21 430.271 255.467 464.527C289.723 498.784 289.723 554.333 255.467 588.589C221.21 622.845 165.661 622.845 131.405 588.589L149.756 570.251Z" fill="#FFB000"/>
<path d="M87.7248 694.058V694.096V694.083C71.921 694.083 56.1045 688.047 44.0447 675.987C19.9124 651.855 19.9124 612.747 44.0447 588.614C56.1045 576.555 71.921 570.518 87.7248 570.518C103.541 570.518 119.345 576.542 131.418 588.614L149.768 570.264C132.64 553.135 110.189 544.565 87.7376 544.565C65.2863 544.565 42.8349 553.135 25.7067 570.264C-8.5497 604.52 -8.5497 660.069 25.7067 694.325C42.8349 711.454 65.2863 720.024 87.7376 720.024V719.999V720.011H310.379V694.058H87.7248Z" fill="#00456F"/>
<path d="M193.576 41.9126V41.8744V41.8872C209.38 41.8872 225.196 47.9234 237.256 59.9832C261.376 84.1155 261.376 123.224 237.256 147.356C225.196 159.416 209.38 165.452 193.576 165.452C177.759 165.452 161.956 159.416 149.883 147.356L131.532 165.707C148.66 182.835 171.112 191.406 193.563 191.406C216.014 191.406 238.466 182.835 255.594 165.707C289.85 131.451 289.85 75.9016 255.594 41.6452C238.466 24.517 216.014 15.9465 193.563 15.9465V15.972V15.9593H26.2925V41.9126H193.576Z" fill="#1CA7CD"/>
<path d="M134.754 209.425C134.754 235.366 113.716 256.404 87.7758 256.404C61.8224 256.404 40.7974 235.366 40.7974 209.425C40.7974 183.485 61.8352 162.447 87.7758 162.447C113.716 162.434 134.754 183.472 134.754 209.425Z" fill="#FFB000"/>
<path d="M193.5 150.68C219.44 150.68 240.478 129.642 240.478 103.702C240.478 77.7482 219.44 56.7231 193.5 56.7231C167.546 56.7231 146.521 77.7609 146.521 103.702C146.521 129.642 167.559 150.68 193.5 150.68Z" fill="#1CA7CD"/>
<path d="M134.741 420.847C134.741 446.788 113.704 467.825 87.7631 467.825C61.8097 467.825 40.7847 446.788 40.7847 420.847C40.7847 394.894 61.8224 373.869 87.7631 373.869C113.704 373.856 134.741 394.894 134.741 420.847Z" fill="#1CA7CD"/>
<path d="M193.487 362.089C219.427 362.089 240.465 341.051 240.465 315.111C240.465 289.157 219.427 268.132 193.487 268.132C167.533 268.132 146.508 289.17 146.508 315.111C146.508 341.064 167.533 362.102 193.487 362.089Z" fill="#00456F"/>
<path d="M134.703 632.295C134.703 658.248 113.665 679.273 87.7249 679.273C61.7715 679.273 40.7337 658.235 40.7465 632.295C40.7465 606.341 61.7842 585.316 87.7249 585.316C113.665 585.316 134.703 606.354 134.703 632.295Z" fill="#00456F"/>
<path d="M193.448 573.549C219.389 573.549 240.427 552.512 240.427 526.571C240.427 500.618 219.389 479.593 193.448 479.593C167.495 479.593 146.47 500.63 146.47 526.571C146.47 552.524 167.508 573.549 193.448 573.549Z" fill="#FFB000"/>
<path d="M489.085 253.105C513.218 277.238 552.326 277.238 576.458 253.105C600.591 228.973 600.591 189.865 576.458 165.733C552.326 141.6 513.218 141.6 489.085 165.733L470.734 147.382C504.991 113.125 560.54 113.125 594.796 147.382C629.053 181.638 629.053 237.187 594.796 271.443C560.54 305.7 504.991 305.7 470.734 271.443L489.085 253.105Z" fill="#1CA7CD"/>
<path d="M489.098 464.527C513.23 488.66 552.339 488.66 576.471 464.527C600.591 440.395 600.591 401.287 576.471 377.154C552.339 353.022 513.23 353.022 489.098 377.154L470.76 358.804C505.016 324.547 560.565 324.547 594.822 358.804C629.078 393.06 629.078 448.609 594.822 482.865C560.565 517.122 505.016 517.122 470.76 482.865L489.098 464.527Z" fill="#00456F"/>
<path d="M470.747 358.804C446.628 382.936 407.507 382.936 383.374 358.804C359.255 334.684 359.255 295.563 383.374 271.431C407.507 247.311 446.615 247.311 470.747 271.431L489.098 253.08C454.842 218.824 399.293 218.824 365.036 253.08C330.78 287.336 330.78 342.885 365.036 377.142C399.293 411.398 454.842 411.398 489.098 377.142L470.747 358.804Z" fill="#FFB000"/>
<path d="M470.785 570.251C446.666 594.383 407.545 594.383 383.412 570.251C359.293 546.119 359.293 507.01 383.412 482.878C407.545 458.758 446.653 458.758 470.785 482.878L489.136 464.527C454.88 430.271 399.331 430.271 365.074 464.527C330.818 498.784 330.818 554.333 365.074 588.589C399.331 622.845 454.88 622.845 489.136 588.589L470.785 570.251Z" fill="#1CA7CD"/>
<path d="M532.829 694.058V694.096V694.083C548.633 694.083 564.449 688.047 576.509 675.987C600.641 651.855 600.641 612.747 576.509 588.614C564.449 576.555 548.633 570.518 532.829 570.518C517.012 570.518 501.209 576.542 489.136 588.614L470.785 570.264C487.914 553.135 510.365 544.565 532.816 544.565C555.268 544.565 577.719 553.135 594.847 570.264C629.104 604.52 629.104 660.069 594.847 694.325C577.719 711.454 555.268 720.024 532.816 720.024V719.999V720.011H310.188V694.058H532.829Z" fill="#FFB000"/>
<path d="M426.965 41.9126V41.8744V41.8872C411.161 41.8872 395.345 47.9234 383.285 59.9832C359.166 84.1155 359.166 123.224 383.285 147.356C395.345 159.416 411.161 165.452 426.965 165.452C442.782 165.452 458.586 159.416 470.658 147.356L489.009 165.707C471.881 182.835 449.429 191.406 426.978 191.406C404.527 191.406 382.075 182.835 364.947 165.707C330.691 131.451 330.691 75.9016 364.947 41.6452C382.075 24.517 404.527 15.9465 426.978 15.9465V15.972V15.9593H599.292V41.9126H426.965Z" fill="#00456F"/>
<path d="M485.787 209.425C485.787 235.366 506.825 256.404 532.765 256.404C558.719 256.404 579.744 235.366 579.744 209.425C579.744 183.485 558.706 162.447 532.765 162.447C506.825 162.434 485.787 183.472 485.787 209.425Z" fill="#1CA7CD"/>
<path d="M427.042 150.68C401.101 150.68 380.063 129.642 380.063 103.702C380.063 77.7482 401.101 56.7231 427.042 56.7231C452.995 56.7231 474.02 77.7609 474.02 103.702C474.033 129.642 452.995 150.68 427.042 150.68Z" fill="#00456F"/>
<path d="M485.812 420.847C485.812 446.788 506.85 467.825 532.791 467.825C558.744 467.825 579.769 446.788 579.769 420.847C579.769 394.894 558.731 373.869 532.791 373.869C506.837 373.856 485.812 394.894 485.812 420.847Z" fill="#00456F"/>
<path d="M427.067 362.089C401.127 362.089 380.089 341.051 380.089 315.11C380.089 289.157 401.127 268.132 427.067 268.132C453.021 268.132 474.046 289.17 474.046 315.11C474.046 341.064 453.008 362.102 427.067 362.089Z" fill="#FFB000"/>
<path d="M485.851 632.295C485.851 658.248 506.888 679.273 532.829 679.273C558.782 679.273 579.82 658.235 579.807 632.295C579.807 606.341 558.77 585.316 532.829 585.316C506.876 585.316 485.851 606.354 485.851 632.295Z" fill="#FFB000"/>
<path d="M427.105 573.549C401.165 573.549 380.127 552.512 380.127 526.571C380.127 500.618 401.165 479.593 427.105 479.593C453.059 479.593 474.084 500.63 474.084 526.571C474.084 552.524 453.046 573.549 427.105 573.549Z" fill="#1CA7CD"/>
<path d="M599.482 0.410156V56.7104L636.833 27.4587L599.482 0.410156Z" fill="#00456F"/>
</svg>
