<svg width="76" height="41" viewBox="0 0 76 41" fill="none" xmlns="http://www.w3.org/2000/svg">
<path d="M75.6817 37.9689C70.6261 37.2939 67.2769 34.123 67.2259 29.2456C67.175 24.6356 67.9646 20.0256 68.3339 15.4029C68.5376 12.7923 68.8814 10.1562 68.7541 7.5456C68.5885 4.08176 65.7614 2.04419 62.3358 2.61725C61.9028 2.69366 61.5335 3.16484 61.1005 3.3686C59.8143 3.9926 58.5154 4.56567 56.7707 5.36796C56.2995 6.22118 56.6561 7.43098 57.4457 8.69172C57.6749 9.06103 57.5221 10.0161 57.2037 10.3218C56.3887 11.0986 56.5033 11.6971 56.9108 12.6395C58.7064 16.842 60.3874 21.0826 62.2085 25.578C42.6607 30.8883 23.0619 30.2261 3.22119 30.3535C3.47589 29.6149 3.64145 29.0673 3.87067 28.5452C8.9773 16.8547 17.9552 9.92698 30.257 7.07441C36.1914 5.69905 42.2022 5.35523 48.2767 5.57172C49.894 5.62266 51.3075 5.2788 52.1098 3.68696C52.1608 3.59782 52.2626 3.50868 52.3645 3.47048C53.8035 2.92288 55.2425 2.38803 56.6816 1.8277C56.9108 1.73856 57.0636 1.47113 57.2928 1.40746C58.2224 1.14003 59.1521 0.821667 60.0945 0.719789C60.7567 0.643381 61.4698 0.999938 62.1321 0.92353C66.9076 0.350467 70.4988 3.24126 70.486 8.04226C70.486 11.2769 70.0403 14.4988 69.7092 17.7206C69.429 20.4968 69.0342 23.273 68.6904 26.0492C68.6649 26.2147 68.665 26.3803 68.665 26.5585C68.4867 32.1364 70.3968 34.8488 75.7709 36.5044C75.7454 36.9501 75.7199 37.4213 75.6817 37.9689ZM49.1554 20.1148C48.5314 17.3386 48.0219 14.7789 47.3597 12.2574C47.2451 11.8117 46.4683 11.2514 45.9717 11.2259C40.3939 10.9458 34.9052 11.4552 29.5821 13.2508C25.9782 14.4733 24.6028 16.6255 24.7811 20.777C26.5767 20.6878 28.385 20.6114 30.1678 20.5223C30.3843 17.6442 30.3843 17.6442 33.186 17.6442C35.1981 17.6442 37.2229 17.6442 39.235 17.6442C41.7819 17.6442 41.7819 17.6442 42.1767 20.102C44.3671 20.1148 46.5702 20.1148 49.1554 20.1148Z" fill="white"/>
<path d="M62.4506 27.3608C62.7308 28.3287 62.9728 29.2201 63.2529 30.2007C61.6356 30.7992 60.0947 31.2831 58.643 31.9326C56.8092 32.7476 54.9244 33.5244 53.2689 34.6451C51.5879 35.7785 49.8942 36.0841 47.933 36.0714C33.097 36.0204 18.2611 36.0459 3.41237 36.0459C2.75016 36.0459 2.10076 36.0459 1.41309 36.0459C2.1517 31.9708 2.15163 32.0982 5.95932 32.009C18.0446 31.7288 30.1426 31.6397 42.2024 30.8756C48.4679 30.4808 54.6442 28.8126 60.8588 27.7174C61.3427 27.6283 61.8266 27.5009 62.4506 27.3608Z" fill="white"/>
<path d="M0.279541 40.7067C0.279541 39.9299 0.279541 39.2295 0.279541 38.4399C17.395 38.4399 34.434 38.4399 51.5622 38.4399C51.5622 39.2168 51.5622 39.9044 51.5622 40.7067C34.434 40.7067 17.4077 40.7067 0.279541 40.7067Z" fill="white"/>
<path d="M19.3307 9.03568C17.7771 10.0927 16.2362 11.1369 14.4788 12.334C14.4788 10.9459 14.4788 9.8125 14.4788 8.55176C15.9815 8.55176 17.4969 8.55176 19.0123 8.55176C19.1269 8.71731 19.2288 8.87013 19.3307 9.03568Z" fill="white"/>
</svg>
