<svg width="77" height="60" viewBox="0 0 77 60" fill="none" xmlns="http://www.w3.org/2000/svg">
<path d="M32.2871 37.0426C33.1658 34.7121 33.3059 32.5345 32.7583 30.3059H71.0389C71.0007 30.4205 70.988 30.4969 70.937 30.5605C68.5938 33.8461 66.2761 37.1444 63.882 40.3918C63.6145 40.7484 63.016 40.9903 62.5448 41.0285C61.4496 41.1049 60.329 41.054 59.2338 41.0667H52.4589C55.0568 40.1753 57.6547 39.2839 60.2398 38.3924C61.4114 37.9849 61.6789 37.31 61.1822 36.1893C59.2338 31.8595 54.471 29.8601 49.7846 31.452C44.4233 33.2731 39.0747 35.1196 33.7134 36.9279C33.3186 37.0553 32.8474 37.0043 32.2871 37.0426Z" fill="white"/>
<path d="M11.8352 30.2676C11.2621 32.7254 11.4276 35.0304 12.3827 37.2589C13.0322 38.7616 13.9746 40.0224 15.1589 41.0666H11.2111C11.1729 41.0666 11.1347 41.0666 11.1093 41.0666C7.97652 41.0284 4.83103 41.0539 1.69828 41.0539C1.41812 41.0539 1.15072 41.0284 0.896028 41.0157C0.883293 40.9138 0.857799 40.8884 0.870534 40.8756C3.3156 37.4373 5.76068 33.9988 8.20575 30.5732C8.29489 30.4459 8.48591 30.2931 8.63873 30.2931C9.67024 30.2676 10.7145 30.2676 11.8352 30.2676Z" fill="white"/>
<path d="M69.1413 27.5807H68.4664C56.4703 27.5807 44.4869 27.568 32.4908 27.5935C31.8668 27.5935 31.523 27.3897 31.1664 26.8803C26.8748 20.6021 17.5784 20.6403 13.3505 26.9695C13.0321 27.4534 12.701 27.6189 12.1407 27.5935C11.0582 27.5425 9.97578 27.5171 8.90606 27.5935C8.06557 27.6444 7.46705 27.3005 7.19962 26.5874C6.58835 24.9701 5.86248 23.3655 5.54412 21.6845C4.42346 15.8393 4.47438 9.99403 6.07895 4.2252C6.35912 3.20642 6.89399 2.23857 7.36517 1.27073C7.6326 0.735874 8.10377 0.544922 8.74051 0.544922C28.7213 0.557657 48.7021 0.557591 68.6829 0.557591C68.8612 0.557591 69.0395 0.570351 69.1541 0.583086C66.0086 9.5738 66.0213 18.5391 69.1413 27.5807Z" fill="white"/>
<path d="M69.4979 15.3935C69.5871 10.7453 69.8035 7.43427 70.7841 4.22512C71.0261 3.42283 71.3317 2.6206 71.7265 1.89472C72.0067 1.39807 72.5033 1.01599 72.8981 0.583008C73.3056 1.00325 73.8532 1.35984 74.0824 1.86923C74.6173 3.09176 75.1521 4.35246 75.4068 5.6514C76.6548 11.9042 76.8586 18.1442 74.8592 24.3078C74.5663 25.2247 74.1588 26.1289 73.6622 26.9567C73.1528 27.8099 72.6943 27.7717 72.1213 26.9312C71.1025 25.4412 70.5804 23.7475 70.3129 22.0028C69.9054 19.3667 69.6507 16.7179 69.4979 15.3935Z" fill="white"/>
<path d="M58.0495 48.5803C56.7887 50.8216 53.656 51.8531 50.8671 50.9107C46.4991 49.4462 42.1438 47.9435 37.7885 46.4536C35.127 45.5367 32.4527 44.6452 29.8039 43.6901C29.027 43.4099 28.3266 42.926 27.6644 42.5822C28.7469 41.5507 29.7402 40.5574 30.7972 39.6278C30.9754 39.475 31.4212 39.4877 31.6886 39.5768C36.757 41.2833 41.8 43.0024 46.8557 44.7344C50.3705 45.9314 53.8725 47.1285 57.3873 48.3383C57.6165 48.402 57.8202 48.4911 58.0495 48.5803Z" fill="white"/>
<path d="M22.3158 24.8809C17.8077 24.8682 14.1529 28.5103 14.1784 33.0057C14.2038 37.4373 17.8077 41.0285 22.2522 41.0413C26.7348 41.054 30.3769 37.4501 30.3896 32.9929C30.4151 28.5358 26.7857 24.8936 22.3158 24.8809ZM22.2904 38.3543C19.3104 38.3543 16.9163 35.9728 16.8909 32.9929C16.8781 30.0002 19.3104 27.5679 22.3286 27.5806C25.283 27.5934 27.7154 30.0385 27.7026 32.9929C27.6772 35.9474 25.2576 38.3543 22.2904 38.3543Z" fill="white"/>
<path d="M22.3413 43.7793C17.8969 43.7921 14.2802 47.4724 14.3057 51.9296C14.3311 56.3358 18.0242 60.0034 22.3922 59.9779C26.7729 59.9525 30.4023 56.2466 30.3896 51.8404C30.3641 47.4215 26.722 43.7666 22.3413 43.7793ZM22.3031 57.2782C19.3486 57.2909 16.9163 54.884 16.8908 51.9041C16.8654 48.9496 19.2468 46.5174 22.2267 46.4664C25.1939 46.4155 27.6898 48.8987 27.6898 51.8659C27.6898 54.8204 25.2575 57.2655 22.3031 57.2782Z" fill="white"/>
<path d="M37.2537 38.5835C39.2403 37.8958 41.0486 37.2845 42.8569 36.6605C45.5949 35.7309 48.3201 34.763 51.0708 33.8716C53.7197 33.0056 56.6104 33.999 58.0877 36.2657C56.534 36.8006 55.0059 37.3227 53.4777 37.8576C50.6124 38.8382 47.7598 39.8187 44.8945 40.7866C44.6271 40.8757 44.3087 40.9776 44.0667 40.9012C41.8509 40.1753 39.6478 39.4112 37.2537 38.5835Z" fill="white"/>
<path d="M22.3158 35.6544C20.8003 35.6672 19.6033 34.4829 19.6033 32.9674C19.6033 31.4647 20.8004 30.2549 22.3031 30.2677C23.7548 30.2804 24.9646 31.452 24.9901 32.9165C25.0283 34.3938 23.8057 35.6417 22.3158 35.6544Z" fill="white"/>
<path d="M19.6033 51.904C19.5905 50.4013 20.7749 49.1788 22.2776 49.1788C23.7675 49.1661 25.0028 50.4013 25.0028 51.8786C25.0028 53.3303 23.8057 54.5401 22.354 54.5783C20.8513 54.6165 19.616 53.4067 19.6033 51.904Z" fill="white"/>
</svg>
