<svg width="76" height="61" viewBox="0 0 76 61" fill="none" xmlns="http://www.w3.org/2000/svg">
<path d="M59.2698 52.1382C55.1946 49.9351 51.3233 50.6355 47.4392 51.9217C44.2555 52.966 41.0463 53.9593 37.8499 55.0035C34.679 56.0478 31.5208 57.143 28.197 58.2764C34.0168 49.3875 35.0992 39.0214 38.5376 29.4959C39.238 27.5475 39.9894 25.5608 40.295 23.5233C40.7789 20.1995 42.6 18.6077 45.7964 18.0219C47.9868 17.6271 50.0753 16.7102 52.2529 16.2008C56.4045 15.2202 58.1237 16.5701 58.2637 20.7089C58.5948 30.1581 58.9386 39.5945 59.2698 49.0437C59.308 49.9733 59.2698 50.9029 59.2698 52.1382Z" fill="white"/>
<path d="M7.43945 30.1453C13.5139 21.4984 19.4992 12.8006 25.6883 4.24284C28.1716 0.804462 33.0999 -0.0869699 37.0095 1.7341C40.8044 3.51696 43.3768 7.92315 42.2817 11.82C39.3781 22.1096 36.2072 32.3356 32.8834 42.6635C31.2661 37.264 28.3371 32.9469 23.256 30.4891C18.1111 28.0058 12.8899 28.2223 7.43945 30.1453Z" fill="white"/>
<path d="M59.7792 23.2686C62.9883 23.2686 65.9937 23.2686 69.2156 23.2686C71.3423 35.6722 73.4563 48.0376 75.5957 60.5176C75.1628 60.6322 74.8062 60.7978 74.4496 60.7978C64.5165 60.7723 54.5707 60.7468 44.6376 60.6704C43.6061 60.6577 42.5619 60.4667 41.5685 60.1865C41.021 60.0337 40.2569 59.5625 40.1932 59.1423C40.1168 58.6583 40.5752 57.7924 41.021 57.5886C42.0652 57.1047 43.2623 56.6462 44.3829 56.6717C45.7965 56.7099 47.21 57.1684 48.5854 57.5632C50.1136 58.0089 51.6035 58.6329 53.1317 59.1168C59.3335 61.0907 61.0145 59.8427 60.7852 53.3352C60.4796 44.2044 60.123 35.0736 59.7919 25.9428C59.7537 25.0896 59.7792 24.2364 59.7792 23.2686Z" fill="white"/>
<path d="M42.7019 54.8761C47.0572 53.7172 51.2087 51.3358 56.0352 52.5074C57.7416 52.9149 59.2188 53.6918 59.4099 55.7293C59.6136 57.9197 58.5693 59.0276 56.4426 58.5564C54.265 58.0852 52.1765 57.232 50.0244 56.6462C47.6684 56.0095 45.2743 55.4873 42.7019 54.8761Z" fill="white"/>
<path d="M15.475 39.9383C18.8879 39.9255 21.5877 42.5998 21.5749 45.9745C21.5622 49.3238 18.7733 52.049 15.4241 51.9981C12.164 51.9471 9.48967 49.2855 9.43873 46.0382C9.37506 42.6762 12.0621 39.9637 15.475 39.9383Z" fill="white"/>
<path d="M15.5006 59.6261C7.37581 59.6261 0.766479 53.0168 0.766479 44.892C0.766479 36.7673 7.37581 30.158 15.5006 30.158C23.6253 30.158 30.2347 36.7673 30.2347 44.892C30.2474 53.0168 23.6253 59.6261 15.5006 59.6261ZM15.5006 32.0809C8.44553 32.0809 2.68944 37.8243 2.68944 44.892C2.68944 51.9471 8.4328 57.7032 15.5006 57.7032C22.5556 57.7032 28.3117 51.9598 28.3117 44.892C28.3117 37.8243 22.5683 32.0809 15.5006 32.0809Z" fill="white"/>
</svg>
