<svg width="63" height="71" viewBox="0 0 63 71" fill="none" xmlns="http://www.w3.org/2000/svg">
<path d="M30.035 70.4933C28.9144 69.7674 28.5705 68.7614 28.596 67.3988C28.6851 62.7251 28.6342 58.0388 28.6342 53.3524C28.6342 52.7793 28.6342 52.2063 28.6342 51.5313C23.795 51.9898 19.3124 51.6459 15.7849 48.0675C13.187 45.4314 11.9645 42.1458 11.4169 38.5674C16.065 36.8609 21.1207 37.7523 26.5075 41.2162C26.8768 37.4085 28.6087 34.3394 31.4104 31.5505C34.1611 34.263 35.9567 37.3576 36.3005 41.2417C41.7383 37.7269 46.1317 36.9246 51.3912 38.5164C50.3851 42.7444 48.7169 46.5775 45.1129 49.2391C41.4963 51.9006 37.2811 51.9261 32.8621 51.4676C32.8621 55.772 32.8621 59.9108 32.8621 64.0496C32.8621 65.1575 32.773 66.2781 32.8876 67.386C33.0277 68.7487 32.5692 69.742 31.4613 70.4806C30.9774 70.4933 30.5062 70.4933 30.035 70.4933Z" fill="white"/>
<path d="M18.2936 8.8064C23.0691 -2.33648 38.2362 -2.85861 43.4702 8.78093C48.1947 6.93439 52.5118 7.52019 55.7974 11.5698C58.8665 15.3648 58.7518 19.5163 56.2049 23.7315C62.1393 28.7617 64.215 34.9126 60.8021 42.1459C58.3571 47.3417 53.8872 49.8504 47.749 50.1688C51.353 46.2592 53.2759 41.9167 53.9763 36.8101C48.5258 35.1163 43.2155 34.989 38.1088 37.3195C36.899 35.3838 35.8038 33.4608 34.5176 31.6652C33.7154 30.5318 32.6202 29.6149 31.5505 28.4816C28.4432 30.8884 26.342 33.8174 25.1067 37.0266C22.3305 36.5299 19.669 35.7785 16.9947 35.6639C14.3586 35.5621 11.697 36.1097 8.94632 36.3898C9.26469 41.7511 10.8183 46.1574 14.2694 49.9014C9.48117 50.2325 4.11984 46.6667 1.84032 41.7766C-0.948585 35.7913 0.38859 30.0861 5.9282 24.33C2.961 18.9433 2.9992 14.97 6.0428 11.3788C9.02273 7.87676 13.1997 6.9726 18.2936 8.8064Z" fill="white"/>
</svg>
