<svg width="67" height="67" viewBox="0 0 67 67" fill="none" xmlns="http://www.w3.org/2000/svg">
<path d="M51.3663 57.1353C50.946 56.7024 50.7168 56.2439 50.6022 55.7982C50.4749 55.2506 50.5386 54.703 50.7551 54.2063C50.8824 53.9134 51.0479 53.6205 51.2517 53.3658C51.5573 52.971 51.9012 52.589 52.1686 52.1688C52.9199 51.0481 52.678 49.7747 51.5955 48.9851C51.0097 48.5521 50.6659 47.9918 50.5513 47.2786C50.3985 46.2089 50.6786 45.2411 51.3408 44.4006C51.6592 43.9931 52.0285 43.6238 52.3851 43.2417C53.2511 42.3121 53.251 41.8409 52.3341 40.9495C51.8375 40.4528 51.2899 39.9944 50.8315 39.4723C49.7745 38.2497 49.7999 37.0145 50.8442 35.8047C51.2517 35.3335 51.6974 34.9005 52.1049 34.4293C52.9072 33.4869 52.9327 32.8502 52.194 31.8696C51.7738 31.3093 51.2771 30.7999 50.8442 30.2523C49.8254 28.9788 49.8127 27.9346 50.8315 26.6611C51.2517 26.139 51.7483 25.6933 52.2068 25.1966C52.8308 24.5217 52.869 23.9741 52.3596 23.21C52.194 22.9553 51.9776 22.7388 51.7866 22.5096C51.3918 22.013 50.9588 21.5418 50.6277 20.9942C49.9655 19.9372 50.0419 19.1986 50.8315 18.2307C51.0607 17.9506 51.3408 17.6959 51.5446 17.3902C51.8248 16.97 52.054 16.537 52.2832 16.0913C52.4615 15.7475 52.3087 15.5055 52.003 15.3527C51.0479 14.8688 50.0801 14.665 49.1123 15.3654C48.5774 15.7474 48.0553 16.1423 47.4949 16.4734C46.2215 17.1992 44.9735 17.161 43.7892 16.2314C43.4453 15.964 43.1142 15.6711 42.7576 15.4291C41.5606 14.5759 40.2871 14.7796 39.4211 15.9639C39.0136 16.5115 38.4787 16.8554 37.7911 16.9572C36.6704 17.1228 35.6644 16.8299 34.7857 16.1167C34.4036 15.7984 34.0471 15.4418 33.6778 15.098C32.7863 14.2702 32.3024 14.283 31.4619 15.1362C30.927 15.671 30.4431 16.2569 29.8701 16.7408C28.6603 17.7341 27.4632 17.6959 26.2916 16.6644C25.8077 16.2441 25.362 15.7857 24.8781 15.3782C23.9866 14.6268 23.3244 14.5886 22.3948 15.289C21.8345 15.7092 21.3251 16.2059 20.7775 16.6389C19.4403 17.7086 18.3834 17.7086 17.0717 16.6262C16.575 16.2059 16.1293 15.722 15.6454 15.2763C15.0087 14.6905 14.5247 14.6523 13.7861 15.1107C13.5314 15.2635 13.3022 15.4673 13.0602 15.6456C12.8692 15.7857 12.6909 15.9257 12.4999 16.0785C12.2325 16.2823 11.965 16.4733 11.6849 16.6644C11.3156 16.9063 10.9335 17.0591 10.5515 17.1228C9.87656 17.2501 9.20161 17.0974 8.51394 16.6644C8.2083 16.4733 7.88993 16.2696 7.55883 16.1167C6.92209 15.8366 6.29808 16.0022 5.87784 16.5116C5.41939 17.0592 5.41939 17.4921 5.87784 18.1543C6.17074 18.5746 6.52731 18.9693 6.83294 19.3896C8.11915 21.1979 7.74985 23.5538 5.96699 24.8782C5.55948 25.1839 5.39392 25.5659 5.52127 26.0117C5.63588 26.4574 5.85239 26.8903 6.09434 27.2724C6.3363 27.6417 6.69287 27.9473 6.9985 28.2784C8.39932 29.7939 8.37387 31.2711 6.89664 32.7356C6.50186 33.1176 6.0816 33.4742 5.68682 33.869C4.92274 34.633 4.91002 35.0915 5.62317 35.8938C5.967 36.2759 6.33629 36.6452 6.68013 37.0399C7.99181 38.5172 8.06822 40.0581 6.88389 41.6499C6.45091 42.223 5.95426 42.7451 5.49581 43.3054C4.93548 43.9931 4.92276 44.2351 5.50856 44.9227C5.95427 45.4449 6.46364 45.916 6.92209 46.4254C7.80079 47.406 7.9536 48.5266 7.39327 49.6855C7.15131 50.1694 6.79477 50.6024 6.46366 51.0481C6.19623 51.4174 5.87786 51.7358 5.62317 52.1178C5.24112 52.7036 5.29203 53.0857 5.75048 53.6205C5.99244 53.9007 6.24717 54.1681 6.46366 54.461C7.48244 55.7854 8.03001 58.0522 6.19621 59.6186C6.09433 59.7077 6.01791 59.9624 6.06885 60.1025C6.59097 61.6816 7.69893 62.6495 9.36718 61.6689C9.82563 61.4015 10.2204 61.0194 10.6279 60.6756C11.8122 59.6441 12.6273 59.5804 13.9262 60.4973C14.4611 60.8666 14.9322 61.325 15.4416 61.7453C16.4731 62.5985 17.0971 62.573 18.0522 61.6561C18.5489 61.185 19.0328 60.6756 19.5932 60.2935C20.7011 59.5167 21.618 59.5676 22.6877 60.3827C23.248 60.8029 23.7574 61.2996 24.305 61.7325C25.4639 62.6494 26.1133 62.624 27.2213 61.6307C27.7561 61.1468 28.2782 60.6374 28.8386 60.2044C29.5644 59.6441 30.4049 59.5294 31.2072 59.9751C31.7803 60.2935 32.2897 60.752 32.7863 61.185C33.1429 61.4906 33.4231 61.8726 33.7542 62.2037C34.4291 62.8532 34.9257 62.8659 35.6389 62.2419C35.9827 61.949 36.2756 61.5797 36.6449 61.325C37.218 60.943 37.8165 60.51 38.466 60.319C39.5994 59.9879 40.7073 60.1407 41.5096 61.1595C42.5284 62.4585 43.7637 62.6367 45.0753 61.6179C45.4446 61.3378 45.8012 61.0194 46.1833 60.752C47.1002 60.1407 48.0425 60.0006 49.0741 60.51C49.5834 60.7647 50.1692 60.8793 50.7296 61.0576C51.5828 60.9812 52.2323 60.7011 52.6143 59.9242C52.9964 59.1474 52.6143 58.5743 52.1176 58.0267C51.8884 57.6956 51.6337 57.4028 51.3663 57.1353ZM42.2864 53.1748C42.3119 52.3853 42.9741 51.7485 43.7509 51.774C44.5405 51.7994 45.1645 52.4617 45.1517 53.2512C45.139 54.0408 44.4641 54.6775 43.6873 54.652C42.8977 54.6266 42.261 53.9644 42.2864 53.1748ZM43.7127 21.58C44.4896 21.5672 45.1517 22.2167 45.1645 23.0062C45.1772 23.7958 44.5278 24.458 43.7509 24.4708C42.9614 24.4835 42.2992 23.834 42.2992 23.0444C42.2737 22.2549 42.9232 21.5927 43.7127 21.58ZM43.7127 29.1316C44.4896 29.1189 45.1517 29.7684 45.1645 30.558C45.1772 31.3475 44.5278 32.0097 43.7382 32.0097C42.9486 32.0224 42.2992 31.373 42.2864 30.5834C42.2737 29.8066 42.9232 29.1444 43.7127 29.1316ZM43.7255 36.6834C44.515 36.6834 45.1645 37.3328 45.1645 38.1224C45.1645 38.9119 44.515 39.5614 43.7382 39.5614C42.9486 39.5614 42.2992 38.9119 42.2992 38.1224C42.2864 37.3328 42.9359 36.6834 43.7255 36.6834ZM43.7255 44.2223C44.515 44.2223 45.1517 44.8718 45.1517 45.6741C45.1517 46.4636 44.5023 47.1131 43.7127 47.1131C42.9232 47.1131 42.2737 46.4509 42.2737 45.6613C42.2864 44.8718 42.9486 44.2223 43.7255 44.2223ZM36.4412 53.837C36.352 53.646 36.3011 53.4422 36.3011 53.2258C36.2884 52.4362 36.9251 51.774 37.7274 51.774C38.0585 51.774 38.3641 51.8886 38.6061 52.0796C38.9499 52.3471 39.1664 52.7546 39.1664 53.213C39.1792 54.0026 38.5297 54.6521 37.7402 54.6648C37.1671 54.6648 36.6704 54.321 36.4412 53.837ZM37.7529 21.58C38.5424 21.5927 39.1792 22.2549 39.1664 23.0444C39.1537 23.834 38.5042 24.4835 37.7147 24.4708C36.9251 24.458 36.2884 23.8085 36.3011 23.0062C36.3011 22.2167 36.9633 21.5672 37.7529 21.58ZM37.7529 29.1316C38.5424 29.1444 39.1792 29.8066 39.1664 30.5962C39.1537 31.3857 38.5042 32.0224 37.7147 32.0097C36.9251 31.997 36.3011 31.3348 36.3138 30.5452C36.3138 29.7557 36.9633 29.1189 37.7529 29.1316ZM37.7147 36.6834C38.4915 36.6706 39.1537 37.3201 39.1664 38.1096C39.1792 38.8992 38.5424 39.5614 37.7529 39.5741C36.9633 39.5869 36.3139 38.9374 36.3011 38.1478C36.2884 37.3583 36.9251 36.6834 37.7147 36.6834ZM37.7402 44.2223C38.5297 44.2223 39.1792 44.8845 39.1664 45.6741C39.1664 46.4636 38.517 47.1131 37.7274 47.1131C36.9379 47.1131 36.3011 46.4636 36.3011 45.6613C36.3011 44.8718 36.9506 44.2223 37.7402 44.2223ZM31.7166 54.652C30.9398 54.6393 30.2776 53.9644 30.2903 53.1876C30.2903 52.8947 30.3922 52.6145 30.5705 52.3725C30.8379 51.9905 31.2836 51.7485 31.7548 51.7613C32.5316 51.774 33.1811 52.4489 33.1811 53.2258C33.1684 53.5823 33.041 53.9007 32.8118 54.1554C32.5444 54.4738 32.1496 54.6648 31.7166 54.652ZM31.7166 21.58C32.4934 21.5672 33.1684 22.2294 33.1684 23.0062C33.1811 23.7831 32.5316 24.458 31.7421 24.4708C30.9653 24.4835 30.2903 23.8213 30.2776 23.0444C30.2776 22.2676 30.9398 21.5927 31.7166 21.58ZM31.7421 29.1316C32.5189 29.1316 33.1811 29.7939 33.1811 30.5834C33.1811 31.373 32.5189 32.0224 31.7294 32.0224C30.9525 32.0224 30.2903 31.3602 30.2903 30.5707C30.2903 29.7939 30.9653 29.1316 31.7421 29.1316ZM31.7421 36.6706C32.5189 36.6706 33.1811 37.3328 33.1811 38.1224C33.1811 38.9119 32.5189 39.5614 31.7294 39.5614C30.9525 39.5614 30.2903 38.8992 30.2903 38.1096C30.2903 37.3328 30.9653 36.6706 31.7421 36.6706ZM31.7294 44.2223C32.5062 44.2223 33.1684 44.8845 33.1811 45.6613C33.1811 46.4509 32.5316 47.1004 31.7421 47.1131C30.9653 47.1131 30.2903 46.4509 30.2903 45.6741C30.2903 44.8973 30.9525 44.2223 31.7294 44.2223ZM25.7568 21.58C26.5463 21.5927 27.183 22.2422 27.1703 23.0317C27.1703 23.834 26.5208 24.4708 25.7313 24.458C24.9417 24.4453 24.305 23.7958 24.3177 23.0062C24.3177 22.2294 24.9672 21.58 25.7568 21.58ZM25.7568 29.1316C26.5463 29.1444 27.1703 29.7939 27.1576 30.5962C27.1449 31.3857 26.4954 32.0352 25.7058 32.0224C24.9163 32.0097 24.2923 31.3602 24.305 30.558C24.3177 29.7557 24.9799 29.1189 25.7568 29.1316ZM25.7186 36.6834C26.4954 36.6706 27.1576 37.3201 27.1703 38.1096C27.183 38.9119 26.5463 39.5614 25.7568 39.5741C24.9672 39.5869 24.3177 38.9501 24.305 38.1478C24.305 37.3328 24.929 36.6961 25.7186 36.6834ZM25.7568 44.2223C26.5463 44.235 27.183 44.8845 27.1703 45.6868C27.1703 46.4763 26.5208 47.1258 25.7313 47.1131C24.9417 47.1004 24.305 46.4509 24.3177 45.6613C24.3177 44.859 24.9672 44.2096 25.7568 44.2223ZM25.7568 51.774C26.5463 51.7867 27.1703 52.4362 27.1576 53.2385C27.1576 53.5951 27.0175 53.9262 26.801 54.1681C26.5336 54.4738 26.1388 54.6648 25.7058 54.652C25.553 54.652 25.4129 54.6266 25.2856 54.5756C24.7125 54.3846 24.2923 53.837 24.305 53.1876C24.3177 52.398 24.9799 51.7612 25.7568 51.774ZM19.746 21.58C20.5228 21.58 21.1977 22.2422 21.1977 23.019C21.1977 23.7958 20.5355 24.458 19.7587 24.4708C18.9819 24.4708 18.3069 23.8086 18.3069 23.0317C18.3069 22.2549 18.9692 21.5927 19.746 21.58ZM19.746 29.1316C20.5228 29.1316 21.1977 29.7939 21.1977 30.5707C21.1977 31.3475 20.5355 32.0224 19.7587 32.0224C18.9819 32.0224 18.3069 31.373 18.3069 30.5834C18.2942 29.8066 18.9564 29.1316 19.746 29.1316ZM19.746 36.6834C20.5228 36.6834 21.1977 37.3456 21.1977 38.1224C21.1977 38.8992 20.5355 39.5614 19.7587 39.5614C18.9819 39.5614 18.3197 38.8992 18.3069 38.1224C18.3069 37.3456 18.9692 36.6834 19.746 36.6834ZM19.7714 44.2223C20.561 44.235 21.2104 44.91 21.1977 45.6868C21.185 46.4636 20.51 47.1131 19.7332 47.1004C18.9564 47.0876 18.2942 46.4127 18.3069 45.6359C18.3197 44.8591 18.9946 44.2096 19.7714 44.2223ZM14.2955 46.9985C14.13 47.0749 13.9516 47.1131 13.7479 47.1131C12.9583 47.1131 12.3216 46.4636 12.3216 45.6741C12.3216 45.292 12.4617 44.9482 12.7037 44.6935C12.9584 44.4133 13.3404 44.2223 13.7479 44.2223C14.5374 44.2223 15.1742 44.8718 15.1742 45.6613C15.1869 46.2726 14.8176 46.782 14.2955 46.9985ZM13.7606 39.5614C12.9711 39.5741 12.3216 38.9247 12.3216 38.1224C12.3216 37.5366 12.6654 37.0272 13.1621 36.798C13.3404 36.7088 13.5314 36.6706 13.7479 36.6706C14.5374 36.6579 15.1869 37.3074 15.1869 38.1096C15.1869 38.5426 15.0086 38.9247 14.7157 39.1921C14.461 39.4213 14.1299 39.5614 13.7606 39.5614ZM13.7734 32.0224C13.7097 32.0224 13.646 32.0224 13.5824 32.0097C12.882 31.9206 12.3343 31.322 12.3216 30.5962V30.5834C12.3216 30.4051 12.3471 30.2396 12.4108 30.0867C12.6018 29.5392 13.1239 29.1444 13.7352 29.1316C14.0663 29.1189 14.3719 29.2335 14.6266 29.4373C14.9577 29.692 15.1869 30.0995 15.1869 30.558C15.1869 31.3475 14.5629 32.0097 13.7734 32.0224ZM12.3216 53.2258C12.3216 52.5508 12.7673 51.9905 13.3913 51.8249C13.5059 51.7867 13.6205 51.774 13.7479 51.774C14.5374 51.7612 15.1869 52.4107 15.1869 53.213C15.1869 53.404 15.1487 53.5951 15.0851 53.7606C14.8813 54.2828 14.3719 54.6521 13.7734 54.6648C12.9711 54.6648 12.3343 54.0153 12.3216 53.2258ZM13.7479 24.4708C13.3022 24.4708 12.8947 24.2542 12.64 23.9231C12.449 23.6684 12.3216 23.3628 12.3216 23.019C12.3216 22.2294 12.9711 21.58 13.7606 21.58C14.079 21.58 14.3846 21.6946 14.6266 21.8856C14.9704 22.153 15.1869 22.5733 15.1869 23.0317C15.1742 23.834 14.5374 24.4708 13.7479 24.4708ZM19.3385 54.5884C18.9819 54.4738 18.6635 54.2191 18.4852 53.888C18.3706 53.6842 18.3069 53.4422 18.3069 53.1876C18.3197 52.4107 18.9946 51.7485 19.7714 51.7613C20.1917 51.7613 20.5737 51.965 20.8411 52.2579C21.0704 52.5126 21.2105 52.8564 21.2105 53.213C21.1977 53.9898 20.5355 54.652 19.746 54.6393C19.7332 54.6393 19.7205 54.6393 19.7078 54.6393C19.5677 54.652 19.4531 54.6266 19.3385 54.5884Z" fill="white"/>
<path d="M54.9702 57.7592C54.6901 57.4408 54.5627 57.1861 54.5627 56.9187C54.5627 56.7022 54.6646 56.4602 54.8556 56.1673C55.174 55.6834 55.556 55.2632 55.8998 54.8047C56.4474 54.0788 56.7531 53.2638 56.8167 52.4743C56.9568 51.0225 56.3328 49.5835 55.0211 48.5902C54.4736 48.1827 54.4354 47.6351 54.6137 47.1002C54.7792 46.6036 55.0848 46.1451 55.4032 45.7249C55.798 45.2027 56.3201 44.757 56.7149 44.2222C57.5554 43.0888 57.5426 41.7389 56.6767 40.631C56.2946 40.147 55.8107 39.7268 55.365 39.2811C55.0848 38.9882 54.7664 38.7335 54.499 38.4279C53.9896 37.8421 53.9642 37.3964 54.4354 36.7851C54.8301 36.2757 55.3013 35.8172 55.7343 35.3461C57.3516 33.5632 57.4153 31.8186 55.9126 29.9211C55.4287 29.3098 54.9193 28.7367 54.4099 28.1509C54.0024 27.6925 53.9897 27.2086 54.3717 26.7629C54.7665 26.2917 55.174 25.846 55.607 25.413C57.3516 23.6429 57.4153 21.8982 55.7852 19.988C55.4159 19.555 55.0211 19.1347 54.7028 18.6636C54.2443 17.9886 54.2826 17.5302 54.8429 16.9189C55.6324 16.0529 56.2946 15.1233 56.5493 13.939C56.7531 13.0094 56.3965 12.3599 55.7725 11.7868C55.0721 11.1501 54.2062 10.8954 53.302 10.7681C52.0922 10.5898 50.997 10.8572 50.0164 11.5958C49.558 11.9396 49.0868 12.2707 48.6156 12.5891C47.8642 13.0985 47.1256 13.0603 46.4125 12.5C46.0687 12.2198 45.7248 11.9396 45.3682 11.6722C43.267 10.0804 40.6691 10.4242 39.0645 12.5255C38.6698 13.0476 38.1349 13.0858 37.6255 12.9075C37.1416 12.7547 36.6959 12.4618 36.2884 12.1689C35.8427 11.8378 35.4861 11.4175 35.0531 11.0482C33.716 9.88936 32.1751 9.88937 30.8507 11.061C30.2776 11.5704 29.7809 12.1816 29.2333 12.7292C28.3546 13.6079 27.858 13.6206 26.9156 12.7801C26.4572 12.3726 26.0369 11.9396 25.5658 11.5449C24.0503 10.2586 22.433 10.1695 20.8029 11.3156C20.1025 11.8123 19.4658 12.4236 18.7909 12.9712C18.065 13.5697 17.7721 13.5824 17.0462 12.9839C16.5623 12.5891 16.142 12.1179 15.6836 11.685C15.1105 11.1374 14.5247 10.7808 13.9389 10.6279C13.3914 10.4751 12.831 10.5006 12.2452 10.6916C11.8504 10.819 11.4557 11.0355 11.0354 11.3156C10.4878 11.6977 9.99115 12.1434 9.4563 12.5382C8.64127 13.1494 7.81353 13.2131 6.9603 12.6019C6.01793 11.9269 5.0119 11.6213 3.82757 11.9524C1.99377 12.4618 0.249115 14.9068 2.08292 17.1991C2.41402 17.6193 2.77058 18.0268 3.06348 18.4725C3.94217 19.746 3.68749 21.1596 2.43949 22.0637C1.3443 22.866 0.949509 24.3178 1.50984 25.8078C1.73906 26.419 2.15931 26.9539 2.54135 27.4888C2.80878 27.8581 3.17807 28.1637 3.4837 28.5075C4.27326 29.3989 4.26055 29.9083 3.43279 30.7488C3.2163 30.9781 2.98707 31.1945 2.74511 31.3983C1.85368 32.1496 1.11508 33.0029 0.77124 34.1363V35.0277C1.10234 36.021 1.80273 36.7596 2.50314 37.4855C4.10772 39.1283 4.12044 39.8287 2.60501 41.5606C1.86639 42.4011 1.06414 43.2034 0.77124 44.3368V44.8844C1.08961 46.0942 1.87915 46.9729 2.74511 47.8134C4.01858 49.0359 4.00585 49.7108 2.83426 51.0607C2.27393 51.6974 1.73905 52.3724 1.29333 53.0856C0.720267 53.9897 0.822162 54.9193 1.50984 55.7598C1.79 56.1037 2.12109 56.4093 2.37579 56.7659C2.70689 57.2498 3.03799 57.7465 3.24174 58.2941C3.53464 59.0709 3.38185 59.8477 2.6687 60.3189C1.90462 60.8155 1.81547 61.4777 1.86641 62.28C1.98102 63.9992 3.71293 65.9731 5.39391 66.2278C6.66739 66.4188 7.80078 66.0113 8.81956 65.26C9.17613 64.9925 9.49452 64.6869 9.83836 64.4067C10.3605 63.9737 10.7807 63.9101 11.3538 64.2921C11.8759 64.6359 12.3344 65.0562 12.831 65.451C13.8371 66.2787 14.945 66.9027 16.2821 66.4952C16.9189 66.3042 17.5046 65.8457 18.0522 65.4255C18.5744 65.0307 18.9946 64.4959 19.5168 64.0883C20.1535 63.5917 20.4209 63.6171 21.0449 64.1138C21.7453 64.6741 22.4075 65.2981 23.1334 65.833C24.0758 66.5334 25.1582 66.8773 26.3171 66.4952C26.9156 66.2915 27.476 65.9221 27.9853 65.5528C28.5202 65.1581 28.9532 64.6487 29.4626 64.2157C30.2139 63.579 30.6978 63.6044 31.3982 64.2667C31.6784 64.5341 31.9458 64.8142 32.2005 65.1071C32.8882 65.9221 33.6523 66.6098 34.6838 66.9664H35.9063C36.9124 66.6226 37.651 65.9094 38.4023 65.1963C38.9499 64.6614 39.5612 64.2284 40.3762 64.203C40.8347 64.1902 41.1785 64.3431 41.4587 64.7378C42.8595 66.6226 45.4192 67.0683 47.3676 65.7566C47.8897 65.4128 48.3609 64.9798 48.8575 64.6105C49.3542 64.2539 49.8381 64.1648 50.4494 64.4577C51.7101 65.0817 53.0345 65.3363 54.4226 64.8779C55.8871 64.3812 56.7021 63.286 57.0587 61.847C57.2625 61.032 57.0205 60.2679 56.5111 59.6057C56.0399 58.9435 55.4924 58.3705 54.9702 57.7592ZM54.499 59.6567C54.1679 60.9683 53.4421 61.9616 52.1049 62.4074C50.8569 62.8276 49.6471 62.5857 48.501 62.0253C47.9534 61.7579 47.5077 61.8343 47.0619 62.1654C46.6035 62.4965 46.1705 62.8785 45.6994 63.1969C43.9292 64.394 41.5987 63.9865 40.338 62.28C40.0833 61.9362 39.7777 61.7834 39.3574 61.7961C38.6188 61.8216 38.0585 62.2163 37.5618 62.7003C36.8869 63.3497 36.2247 63.9992 35.3078 64.3049H34.1999C33.2703 63.9865 32.5698 63.3497 31.9458 62.6239C31.7166 62.3564 31.4746 62.1017 31.2199 61.8598C30.5705 61.2612 30.1375 61.2358 29.4626 61.8088C29.0041 62.1909 28.5966 62.6621 28.1254 63.0186C27.667 63.3625 27.1576 63.6936 26.61 63.8846C25.5657 64.2412 24.5852 63.9228 23.7192 63.2861C23.057 62.8021 22.4585 62.2291 21.8217 61.7197C21.2614 61.2613 21.0067 61.2485 20.4464 61.6942C19.9752 62.0635 19.5932 62.5474 19.1092 62.9167C18.6126 63.2988 18.0777 63.7063 17.5047 63.8846C16.2949 64.2539 15.2888 63.6808 14.3719 62.9422C13.9262 62.5857 13.5059 62.1909 13.0348 61.8852C12.5126 61.5414 12.1433 61.5924 11.6594 61.9871C11.3538 62.2418 11.0609 62.522 10.7425 62.7639C9.82561 63.4516 8.78136 63.8209 7.63524 63.6426C6.09434 63.4134 4.54071 61.6178 4.4261 60.0642C4.37516 59.3383 4.45154 58.7398 5.15195 58.2941C5.80142 57.8738 5.94151 57.1607 5.67408 56.4603C5.48306 55.9763 5.17743 55.5179 4.88453 55.0849C4.65531 54.7538 4.36243 54.4736 4.10773 54.168C3.48373 53.4039 3.39458 52.5762 3.90397 51.7484C4.31148 51.0989 4.7954 50.4877 5.29205 49.9146C6.34904 48.6921 6.36176 48.0808 5.2029 46.9729C4.41335 46.2088 3.7002 45.4065 3.4073 44.3113V43.8019C3.67473 42.7704 4.4006 42.0445 5.07555 41.2804C6.4509 39.7141 6.43819 39.0773 4.98643 37.5746C4.3497 36.9124 3.7002 36.2502 3.4073 35.3461V34.5438C3.71293 33.5123 4.3879 32.7355 5.19019 32.0605C5.40668 31.8822 5.61043 31.6785 5.81418 31.4747C6.56553 30.7106 6.57828 30.2522 5.86513 29.4372C5.58497 29.1188 5.25385 28.8514 5.01189 28.5075C4.66805 28.0236 4.28599 27.527 4.08224 26.9794C3.56011 25.6295 3.92943 24.3051 4.92274 23.5792C6.04339 22.7514 6.27262 21.4652 5.48307 20.3191C5.2029 19.9243 4.88456 19.555 4.59166 19.173C2.93614 17.0972 4.51525 14.8686 6.1835 14.4102C7.25322 14.1173 8.17009 14.3847 9.02332 14.996C9.34169 15.2252 9.66008 15.3525 9.96572 15.378C10.4114 15.429 10.8444 15.2634 11.2901 14.945C11.774 14.5885 12.2197 14.181 12.7164 13.8371C13.3149 13.4169 13.888 13.1876 14.4356 13.1367C15.3015 13.0475 16.1166 13.4041 16.9316 14.1682C17.3518 14.563 17.7339 14.9832 18.1668 15.3398C18.8291 15.8874 19.0838 15.8747 19.746 15.3271C20.3572 14.8304 20.9303 14.2828 21.567 13.8244C23.0443 12.7801 24.5087 12.8565 25.8968 14.0281C26.3171 14.3847 26.7118 14.7795 27.1194 15.1488C27.9726 15.9129 28.4183 15.9001 29.2206 15.0979C29.7173 14.6012 30.163 14.0536 30.6851 13.5824C31.8949 12.5127 33.283 12.5254 34.5055 13.5697C34.8876 13.9008 35.2187 14.2828 35.6262 14.5885C35.9955 14.8559 36.403 15.1233 36.836 15.2634C37.3071 15.4162 37.7783 15.378 38.1476 14.9068C39.5994 12.9966 41.9553 12.691 43.8656 14.13C44.1839 14.372 44.4895 14.6267 44.8079 14.8814C45.4574 15.3908 46.1196 15.4162 46.8073 14.9578C47.2403 14.6649 47.6605 14.372 48.0807 14.0536C48.9722 13.3787 49.9655 13.1367 51.0607 13.3023C51.8884 13.4296 52.6653 13.6588 53.302 14.2319C53.8751 14.754 54.1934 15.3526 54.0151 16.1931C53.7732 17.2755 53.1874 18.116 52.4615 18.9055C51.9521 19.4531 51.9139 19.8734 52.3341 20.4847C52.627 20.9176 52.9836 21.2997 53.3147 21.6944C54.7919 23.4264 54.741 25.0055 53.1491 26.6228C52.7671 27.0175 52.3851 27.4251 52.0285 27.8453C51.6847 28.2656 51.6847 28.6986 52.054 29.1188C52.5124 29.6409 52.9836 30.1758 53.4166 30.7233C54.7792 32.4553 54.7155 34.0217 53.251 35.6517C52.8563 36.0847 52.436 36.5049 52.0794 36.9634C51.6465 37.5237 51.6719 37.9185 52.1304 38.4533C52.3723 38.7335 52.6525 38.9755 52.9072 39.2302C53.3147 39.6377 53.7477 40.007 54.0915 40.4527C54.8811 41.4587 54.8938 42.694 54.1297 43.7128C53.7732 44.1967 53.302 44.5915 52.9454 45.0754C52.6525 45.4575 52.3851 45.8777 52.2322 46.3234C52.0667 46.8073 52.0922 47.304 52.5888 47.6733C54.4481 49.0614 54.7792 51.4428 53.3911 53.3148C53.1109 53.6968 52.7926 54.0534 52.5252 54.4482C52.4997 54.4864 52.4742 54.5246 52.4487 54.5628C52.054 55.1613 52.0922 55.4669 52.5506 56.0018C52.8435 56.3584 53.1619 56.6895 53.4675 57.046C53.6331 57.2371 53.8114 57.4408 53.9642 57.6318C54.4736 58.2176 54.69 58.9053 54.499 59.6567Z" fill="white"/>
<path d="M63.6425 48.3356C63.1331 47.737 63.0949 47.4059 63.5279 46.7437C63.8463 46.2598 64.2283 45.8395 64.5721 45.3811C66.1003 43.3181 65.7437 40.6947 63.6934 39.1665C63.1458 38.759 63.1077 38.2115 63.286 37.6766C63.4515 37.1799 63.7571 36.7215 64.0755 36.3012C64.4703 35.7791 64.9924 35.3334 65.3872 34.7985C66.2277 33.6779 66.2149 32.3153 65.349 31.2073C64.9669 30.7107 64.483 30.3032 64.0373 29.8575C63.7444 29.5646 63.4388 29.3099 63.1713 29.0043C62.662 28.4185 62.6365 27.9727 63.1077 27.3615C63.5024 26.8521 63.9736 26.4064 64.4066 25.9224C66.0239 24.1396 66.0876 22.3949 64.5849 20.4974C64.101 19.8862 63.5916 19.3131 63.0822 18.7273C62.6747 18.2561 62.662 17.7849 63.044 17.3265C63.4388 16.8553 63.8463 16.4096 64.2793 15.9766C66.0239 14.2065 66.0876 12.4618 64.4575 10.5516C64.0882 10.1186 63.6934 9.69841 63.3751 9.22723C62.9166 8.55229 62.9548 8.0938 63.5152 7.48254C64.3047 6.61658 64.9669 5.68695 65.2216 4.50262C65.4254 3.58572 65.0688 2.92351 64.4448 2.35044C63.7444 1.71371 62.8784 1.45902 61.9743 1.31893C60.7645 1.14065 59.6693 1.40811 58.6887 2.14672C58.2302 2.49056 57.7591 2.82166 57.2879 3.14003C56.5365 3.64942 55.7979 3.61121 55.0848 3.05088C54.741 2.77071 54.3971 2.49056 54.0405 2.22313C51.9393 0.631287 49.3414 0.975103 47.7368 3.07633C47.342 3.59846 46.8072 3.63668 46.2978 3.4584C45.8139 3.30558 45.3682 3.01266 44.9607 2.71976C44.5149 2.38866 44.1456 1.96841 43.7254 1.5991C42.3882 0.452974 40.8474 0.440252 39.5229 1.61185C38.9499 2.12124 38.4532 2.7325 37.9056 3.28009C37.0269 4.17152 36.5303 4.17153 35.5879 3.33104C35.1295 2.92353 34.7092 2.49055 34.238 2.09577C32.7226 0.809565 31.1053 0.720432 29.4752 1.86656C28.7748 2.36321 28.1381 2.97446 27.4632 3.52206C26.7373 4.12059 26.4444 4.13333 25.7185 3.5348C25.2346 3.12729 24.8143 2.66882 24.3559 2.23584C22.8787 0.835016 21.3887 0.707697 19.7077 1.86656C19.1601 2.23586 18.6634 2.6943 18.1286 3.08908C17.3136 3.70035 16.4858 3.764 15.6326 3.15274C14.6902 2.4778 13.6842 2.17219 12.4999 2.50329C10.6661 3.01268 8.92139 5.45772 10.7425 7.7627C11.0736 8.18295 11.4301 8.59049 11.7358 9.02347C12.1051 9.55833 12.2706 10.1314 12.2451 10.679C12.2069 11.4176 11.8249 12.1053 11.1118 12.6274C10.2585 13.2514 9.83829 14.2574 9.94016 15.3653C10.3859 15.4163 10.8189 15.2507 11.2646 14.9324C11.7485 14.5758 12.1942 14.1683 12.6909 13.8244C13.2894 13.4042 13.8625 13.175 14.4101 13.1241C14.7157 12.4236 14.6265 11.6341 14.1172 10.8827C14.0535 10.7936 13.9898 10.7045 13.9261 10.6153C13.6969 10.3097 13.455 10.0295 13.2257 9.72386C11.5702 7.6481 13.1493 5.41954 14.8176 4.96109C15.8873 4.66819 16.8042 4.93561 17.6574 5.54687C18.4342 6.1072 19.1856 6.04352 19.9242 5.49592C20.4081 5.13935 20.8538 4.73185 21.3505 4.38801C22.8786 3.33103 24.2286 3.44565 25.5657 4.71912C25.9859 5.1139 26.368 5.53412 26.8009 5.8907C27.4631 6.43829 27.7179 6.42558 28.3801 5.87799C28.9913 5.38133 29.5644 4.83375 30.2011 4.3753C31.6783 3.33105 33.1428 3.40743 34.5309 4.57902C34.9512 4.93559 35.346 5.33038 35.7535 5.69968C36.6067 6.46377 37.0524 6.45106 37.8547 5.64877C38.3514 5.15212 38.7971 4.60452 39.3319 4.13334C40.5417 3.06362 41.9298 3.07634 43.1524 4.12059C43.5344 4.45169 43.8655 4.83372 44.273 5.13935C44.6423 5.41952 45.0498 5.67421 45.4828 5.81429C45.954 5.96711 46.4252 5.92891 46.7945 5.45772C48.2462 3.54751 50.6021 3.2419 52.5123 4.68092C52.8307 4.92288 53.1364 5.1903 53.4547 5.43226C54.1042 5.94165 54.7664 5.96712 55.4541 5.50867C55.887 5.21577 56.3073 4.92288 56.7275 4.60452C57.619 3.92957 58.6123 3.68762 59.7075 3.85317C60.5353 3.98052 61.312 4.20972 61.9488 4.78278C62.5219 5.3049 62.8402 5.90345 62.6619 6.74394C62.42 7.82639 61.8342 8.66689 61.1083 9.45644C60.5989 10.004 60.5607 10.4243 60.981 11.0355C61.2739 11.4685 61.6304 11.8506 61.9615 12.2326C63.4388 13.9645 63.3878 15.5436 61.796 17.1609C61.4139 17.5557 61.0319 17.9633 60.6753 18.3835C60.3315 18.8037 60.3315 19.224 60.7008 19.657C61.1593 20.1918 61.6304 20.7139 62.0634 21.2615C63.426 22.9934 63.3624 24.5598 61.8979 26.1899C61.5031 26.6228 61.0828 27.0431 60.7263 27.5015C60.2933 28.0491 60.3188 28.4567 60.7772 28.9915C61.0192 29.2717 61.2993 29.5136 61.5668 29.7683C61.9615 30.1758 62.4072 30.5452 62.7511 30.9909C63.5406 31.9969 63.5534 33.2322 62.7893 34.251C62.4327 34.7349 61.9615 35.1297 61.605 35.6136C61.3121 35.9956 61.0446 36.4158 60.8918 36.8616C60.7263 37.3455 60.7517 37.8421 61.2484 38.2114C63.1077 39.5995 63.4388 41.9809 62.0507 43.853C61.7451 44.2732 61.3885 44.6552 61.1083 45.0882C60.7135 45.6867 60.7517 45.9924 61.2102 46.5272C61.6814 47.0748 62.178 47.5969 62.6237 48.1573C63.0949 48.7431 63.3114 49.4435 63.1204 50.1821C62.7893 51.4937 62.0634 52.4871 60.7263 52.9328C59.4783 53.353 58.2685 53.1111 57.1224 52.5508C56.995 52.4871 56.8804 52.4489 56.7658 52.4234C56.371 52.3343 56.0271 52.4361 55.6706 52.6908C55.2121 53.0219 54.7791 53.404 54.3079 53.7224C53.7476 54.1044 53.1236 54.3209 52.4996 54.3846C52.4742 54.4228 52.4487 54.461 52.4232 54.4992C52.0285 55.0977 52.0666 55.4033 52.5251 55.9382C52.818 56.2948 53.1364 56.6259 53.442 56.9825C53.7986 56.9952 54.1551 56.957 54.5117 56.8806C55.0338 56.7659 55.5432 56.5494 56.0144 56.2311C56.5365 55.8745 57.0077 55.4543 57.5044 55.0849C58.001 54.7284 58.485 54.6392 59.0962 54.9321C60.357 55.5561 61.6814 55.8109 63.0695 55.3524C64.5339 54.8558 65.349 53.7606 65.7055 52.3215C65.9093 51.5065 65.6674 50.7424 65.158 50.0802C64.6995 49.5199 64.1519 48.9341 63.6425 48.3356Z" fill="white"/>
</svg>
