<svg width="72" height="70" viewBox="0 0 72 70" fill="none" xmlns="http://www.w3.org/2000/svg">
<path d="M40.9316 0.194336V1.79892H37.7098V13.0691H47.3754V1.79892H44.1535V0.194336H40.9316ZM50.5973 8.24269V14.6865H20.0084V11.4646H16.7866V32.4005H13.5647V14.6865H11.9601C7.43926 14.6865 3.91181 18.2267 3.91181 22.7348C3.91181 26.517 5.45265 38.5259 5.51632 39.0353L5.72012 40.4488H11.9601V42.0534H10.3556V45.2753H16.7994V42.0534H15.1948V40.4488H21.2819L22.5936 35.2148C22.7719 34.5017 23.4086 34.005 24.1472 34.005H32.654C34.2204 34.005 35.5703 35.0748 35.825 36.5775C36.0288 37.7491 36.1307 39.0734 36.1307 40.4488C36.1307 41.8369 36.0415 43.1486 35.825 44.3202C35.5703 45.8229 34.2331 46.8926 32.654 46.8926H8.75099C4.30657 46.8926 0.702637 50.4965 0.702637 54.9409V62.9893C0.702637 65.6508 2.86751 67.8158 5.52907 67.8158H8.75099V69.4203H16.7994V67.8158H49.0055V69.4203H57.0538V67.8158H60.2757C62.9372 67.8158 65.1022 65.6508 65.1022 62.9893V22.7348C65.1022 18.2904 61.4982 14.6865 57.0538 14.6865H53.8319V8.24269H50.5973ZM67.8528 19.5129C68.1585 20.5317 68.3113 21.6142 68.3113 22.7348V34.005H71.5332V19.5129H67.8528ZM50.5973 22.7348C53.2589 22.7348 55.4237 24.8997 55.4237 27.5613C55.4237 30.2228 53.2589 32.3877 50.5973 32.3877C47.9357 32.3877 45.7709 30.2228 45.7709 27.5613C45.7709 24.8997 47.9357 22.7348 50.5973 22.7348ZM50.5973 25.9567C49.7059 25.9567 48.9927 26.6826 48.9927 27.5613C48.9927 28.4399 49.7186 29.1658 50.5973 29.1658C51.4887 29.1658 52.2019 28.4399 52.2019 27.5613C52.2019 26.6826 51.476 25.9567 50.5973 25.9567ZM50.5973 38.8315C55.0417 38.8315 58.6456 42.4354 58.6456 46.8799C58.6456 51.3243 55.0417 54.9282 50.5973 54.9282C46.1529 54.9282 42.5489 51.3243 42.5489 46.8799C42.5489 42.4354 46.1529 38.8315 50.5973 38.8315ZM50.5973 42.0534C47.9357 42.0534 45.7709 44.2183 45.7709 46.8799C45.7709 49.5414 47.9357 51.7063 50.5973 51.7063C53.2589 51.7063 55.4237 49.5414 55.4237 46.8799C55.4237 44.2183 53.2589 42.0534 50.5973 42.0534Z" fill="white"/>
</svg>
