<svg width="67" height="67" viewBox="0 0 67 67" fill="none" xmlns="http://www.w3.org/2000/svg">
<path d="M38.2854 51.988C36.5407 53.7199 34.9106 55.3754 33.2424 56.9927C33.0896 57.1328 32.7075 57.1328 32.4656 57.0692C29.1546 56.1395 25.8562 55.1717 22.5579 54.2293C16.6617 52.5356 10.7529 50.8546 4.8567 49.1482C4.61474 49.0845 4.3091 48.9444 4.20722 48.7534C3.17571 46.805 2.22059 44.8311 2.28426 42.5389C2.28426 42.3733 2.27155 42.195 2.30976 42.0294C2.34796 41.813 2.43707 41.6092 2.51348 41.3418C14.4077 44.8821 26.2765 48.4223 38.2854 51.988Z" fill="white"/>
<path d="M37.9923 49.1099C36.5533 48.6897 35.2416 48.3331 33.9427 47.9384C32.5419 47.5181 31.1411 47.1106 29.753 46.6394C29.4474 46.5375 29.1035 46.2828 28.9634 46.0027C25.8562 40.0556 22.7743 34.083 19.6925 28.1231C19.285 27.3463 18.852 26.5822 18.5082 25.7799C18.4191 25.5634 18.47 25.1432 18.6229 24.9904C19.8963 23.666 21.208 22.3797 22.5833 21.0044C27.7027 30.3517 32.8093 39.6608 37.9923 49.1099Z" fill="white"/>
<path d="M27.2314 23.946C37.9414 26.3274 48.5112 28.6707 59.2848 31.0648C58.5971 31.727 58.0113 32.2619 57.451 32.8222C56.4704 33.79 55.4898 34.7451 54.5475 35.7384C54.2164 36.095 53.898 36.1459 53.465 36.0313C46.7666 34.3503 40.0809 32.5929 33.3569 31.052C31.383 30.5936 30.1223 29.7404 29.3582 27.8811C28.8106 26.5694 27.9955 25.3596 27.2314 23.946Z" fill="white"/>
<path d="M63.602 19.922C64.1878 21.5775 64.8627 23.1183 64.608 24.8375C64.3915 26.2638 63.6147 26.8878 62.1502 26.9261C60.2782 26.977 58.5972 26.3021 56.9672 25.5125C53.1467 23.6787 49.9121 21.0426 47.0595 17.9353C45.0984 15.7959 43.341 13.5163 41.9656 10.9567C41.0997 9.33934 40.3101 7.69661 40.0937 5.8246C39.788 3.1121 40.9723 1.91505 43.6466 2.3353C44.2706 2.43718 44.8819 2.61544 45.4932 2.79373C45.9261 2.92108 46.3464 3.11211 46.9959 3.36681C46.4737 3.83799 46.0662 4.24548 45.6205 4.61479C44.2961 5.69724 44.1178 7.03443 44.6527 8.5626C45.2894 10.3964 46.3846 11.95 47.5689 13.4399C50.1413 16.6618 53.0958 19.4889 56.7252 21.4883C57.6421 21.9977 58.7118 22.2524 59.7561 22.4943C60.4183 22.6471 61.0422 22.3416 61.5389 21.8449C62.1884 21.2209 62.8634 20.6224 63.602 19.922Z" fill="white"/>
<path d="M30.8738 59.374C29.2564 60.9913 27.7665 62.5832 26.1619 64.0604C25.1431 65.0028 23.8569 64.8372 22.6089 64.5443C19.5144 63.8312 16.9037 62.2012 14.3823 60.3546C11.5679 58.2916 9.18649 55.8338 7.04705 53.0958C6.93244 52.943 6.83058 52.7774 6.58862 52.4336C14.7898 54.7768 22.7872 57.069 30.8738 59.374Z" fill="white"/>
<path d="M54.3183 27.2446C53.0448 26.9644 51.7841 26.6842 50.5106 26.404C42.4623 24.6084 34.4139 22.8129 26.3656 21.0427C25.767 20.9154 25.3341 20.7116 25.1176 20.1131C24.9775 19.7565 24.7483 19.4254 24.5063 18.9797C25.436 18.0756 26.3656 17.1459 27.3334 16.2545C27.4862 16.1144 27.8683 16.1271 28.1102 16.1908C31.5104 17.0695 34.8979 17.9736 38.2853 18.8651C40.8323 19.54 43.3792 20.2022 45.9262 20.8772C46.1554 20.9409 46.4228 21.0172 46.5883 21.1701C48.9442 23.4623 51.4657 25.5381 54.3183 27.2446Z" fill="white"/>
<path d="M16.2669 27.2954C19.4124 33.3699 22.4942 39.3425 25.6651 45.4424C24.6973 45.175 23.8696 44.9457 23.0545 44.7038C21.45 44.2326 19.8326 43.7614 18.2408 43.2393C17.9351 43.1374 17.5913 42.8828 17.4512 42.6153C15.6811 39.1642 13.9365 35.7003 12.1791 32.2365C12.0136 31.9181 11.9117 31.6634 12.2428 31.3323C13.5672 30.0334 14.8661 28.6962 16.2669 27.2954Z" fill="white"/>
<path d="M50.4469 3.67236C52.9429 9.73409 57.1581 13.9875 63.258 16.4071C62.2138 17.4513 61.1823 18.5338 60.0744 19.5399C59.8706 19.7309 59.2848 19.7181 59.0046 19.5653C57.7311 18.8649 56.4195 18.1772 55.2733 17.2858C52.3316 15.019 49.7847 12.3447 47.8872 9.12279C46.8175 7.30172 46.843 7.28904 48.2947 5.83728C49.0079 5.1114 49.7338 4.38551 50.4469 3.67236Z" fill="white"/>
<path d="M66.3783 12.2811C66.3783 13.6819 66.0981 13.9366 65.0793 13.8475C63.2837 13.6946 61.781 12.816 60.3674 11.8099C57.8587 10.0143 55.6938 7.84943 54.2039 5.1242C53.6945 4.19457 53.3124 3.17575 53.0705 2.14424C52.7776 0.934441 53.4907 0.259497 54.7132 0.628804C55.9612 1.01085 57.222 1.46932 58.3172 2.16973C61.5008 4.18182 63.9841 6.88155 65.6778 10.2563C66.0598 11.0076 66.2382 11.8481 66.3783 12.2811Z" fill="white"/>
<path d="M51.9115 38.3617C50.5616 39.6989 49.3391 40.9596 48.0529 42.1694C47.8619 42.3477 47.4289 42.3986 47.1487 42.335C44.3216 41.6982 41.4945 41.0233 38.6674 40.3611C38.0052 40.2083 37.343 39.9918 36.6681 39.9154C36.0823 39.839 35.7766 39.5588 35.5092 39.0621C34.5286 37.2283 33.5099 35.42 32.4529 33.4971C38.9603 35.1271 45.3659 36.7317 51.9115 38.3617Z" fill="white"/>
<path d="M29.8167 13.9111C32.3763 11.3896 34.9105 8.89367 37.432 6.4104C38.1833 10.4855 40.412 13.9748 43.1245 17.4131C38.5909 16.2161 34.1974 15.0572 29.8167 13.9111Z" fill="white"/>
<path d="M15.3883 64.3408C14.9299 64.7738 14.5096 65.0921 14.1912 65.4996C13.7328 66.0599 13.2107 66.1491 12.6504 65.8052C11.2623 64.952 9.8105 64.1752 8.53702 63.1691C5.82453 61.0424 3.4941 58.521 1.72397 55.5538C0.488706 53.478 0.526929 53.4653 2.22065 51.7716C2.30979 51.6825 2.39892 51.6188 2.52627 51.5042C5.81183 56.7381 10.1289 60.9279 15.3883 64.3408Z" fill="white"/>
<path d="M4.53833 39.1897C6.38487 37.3687 8.18043 35.6112 10.0015 33.8284C11.3259 36.4517 12.6885 39.1642 14.153 42.0423C10.8547 41.0617 7.72201 40.1321 4.53833 39.1897Z" fill="white"/>
<path d="M40.9341 48.9316C39.9281 47.0978 38.7947 45.0475 37.5977 42.8699C40.2719 43.4811 42.8317 44.0669 45.264 44.6273C43.8377 46.0536 42.3732 47.5053 40.9341 48.9316Z" fill="white"/>
</svg>
