<svg width="65" height="70" viewBox="0 0 65 70" fill="none" xmlns="http://www.w3.org/2000/svg">
<path d="M63.7668 0.36792C64.6837 1.0556 64.6455 1.81968 64.0342 2.73658C61.4363 6.68434 56.2405 8.65823 50.9302 7.4739C45.1231 6.17496 39.367 5.88206 33.6109 7.71586C33.0888 7.88141 32.5667 8.07243 32.0446 8.50541C32.5285 8.56908 33.0251 8.64549 33.8401 8.74737C31.7898 12.1603 29.8287 15.4076 27.7784 18.8205C28.3133 19.4573 28.95 20.2214 29.8287 21.2529C31.6243 18.3493 33.3308 15.6241 35.0117 12.8734C35.4065 12.2239 35.7249 11.5235 36.0687 10.8486C37.062 8.86198 37.1766 8.82377 39.4944 9.93169C37.5969 15.0511 34.8207 19.6738 31.6371 24.1946C32.3375 24.9841 32.9869 25.7355 33.7383 26.576C37.4059 21.6731 40.2712 16.4901 42.5507 10.7722C43.3657 11.1415 44.1044 11.4853 45.0085 11.8929C38.1063 31.8736 23.5887 45.0159 6.54963 56.1842C6.11665 55.5602 5.76009 55.0763 5.45446 54.5669C5.13609 54.0575 4.8559 53.5227 4.55026 52.9878C8.67632 50.0588 12.7514 47.1553 17.0048 44.1372C16.1771 43.2203 15.5149 42.4817 14.8781 41.7813C10.9941 44.5574 7.19911 47.2826 3.17493 50.1607C2.65281 48.5306 2.2071 47.168 1.78685 45.8436C5.26343 43.3094 8.65086 40.8389 12.1656 38.2792C11.3506 37.375 10.7139 36.6746 10.0517 35.936C7.12269 38.0882 4.28287 40.1639 1.44303 42.2524C1.26474 42.1888 1.09918 42.1251 0.920898 42.0487C1.16286 38.4447 1.39208 34.8408 1.63404 31.2369C1.79959 31.1987 1.97787 31.1605 2.14342 31.135C3.22587 32.5486 4.32107 33.9621 5.49266 35.4903C6.33315 34.8536 7.10997 34.255 7.9632 33.6055C6.62606 31.7717 5.37804 29.9889 4.05363 28.2824C3.4551 27.5056 3.30229 26.8307 3.86262 25.9647C4.42295 25.086 4.85593 24.1309 5.45446 22.9721C9.77153 29.9889 14.5089 36.369 20.023 42.2779C20.7871 41.5775 21.4875 40.9408 22.277 40.2276C20.3668 37.9354 18.3675 35.7832 16.6355 33.4273C13.7702 29.5559 11.0832 25.5317 8.26882 21.6222C7.51747 20.5779 7.51748 19.7629 8.47258 18.897C9.07111 18.3621 9.59324 17.7381 10.23 17.0631C14.6235 24.3856 19.6282 31.0841 25.4989 37.3878C26.2121 36.6237 26.887 35.9105 27.6511 35.0955C21.9969 28.8937 16.9794 22.3353 12.6241 14.9874C13.7575 14.1978 14.8527 13.421 16.088 12.5678C20.3668 19.3809 25.0022 25.8246 30.5801 31.7208C31.2677 30.8676 31.8663 30.1417 32.3502 29.5559C27.7657 23.4814 23.2576 17.5089 18.6476 11.4089C19.5136 11.0141 19.9466 10.7849 20.4178 10.5939C20.7871 10.4411 21.1818 10.3392 21.6785 10.1737C23.0411 12.0966 24.4037 14.0195 25.8809 16.0953C26.6323 15.2293 27.2945 14.4653 28.0077 13.663C26.9889 12.224 25.9956 10.8231 24.7985 9.12942C26.8106 8.19978 28.6699 7.20647 30.631 6.45512C37.1257 3.98458 43.7478 3.60253 50.5608 5.05429C52.5857 5.48727 54.827 5.46182 56.8773 5.13071C59.6153 4.685 61.5509 2.82573 62.8881 0.393395C63.1555 0.367925 63.4611 0.36792 63.7668 0.36792Z" fill="white"/>
<path d="M29.2683 69.059C33.8528 65.2896 38.6029 61.7111 42.9709 57.6997C50.2424 51.0012 56.2023 43.2457 60.392 34.2296C60.4939 34.0131 60.6467 33.822 61.1306 33.6565C61.1306 36.3945 61.1306 39.1324 61.1306 41.8704C59.5133 41.7303 59.6407 43.4113 58.7365 44.3027C59.4114 44.672 59.9718 44.9777 60.7359 45.3979C60.3411 46.7351 59.9463 48.1104 59.5006 49.6131C59.0931 49.4858 58.8129 49.4348 58.5582 49.3202C55.9985 48.2378 55.9985 48.225 54.2411 50.721C55.4764 51.3068 56.6734 51.8799 58.0743 52.5548C57.5903 53.459 57.1064 54.3631 56.5461 55.3947C55.0052 54.7707 53.5662 54.1849 52.038 53.5609C51.3885 54.325 50.7391 55.0763 49.9877 55.9677C51.5414 56.6554 52.9676 57.2794 54.585 58.0053C53.7063 58.9222 52.9167 59.8263 52.0253 60.6286C51.7706 60.8579 51.2357 60.8579 50.8409 60.8069C50.4462 60.756 50.0769 60.5268 49.7076 60.3867C47.046 59.3297 47.046 59.3297 45.0594 61.6984C46.2692 62.2587 47.4408 62.8063 48.8416 63.4685C47.2243 64.3854 45.8362 65.3532 44.308 65.9645C43.684 66.2192 42.6907 65.8244 41.9776 65.4806C40.615 64.8184 40.2457 66.1301 39.4816 66.614C39.176 66.805 39.0486 67.2762 38.8449 67.6327C38.9467 67.7601 39.0358 67.9002 39.1377 68.0275C37.2657 68.3714 35.3937 68.7279 33.5217 69.0718C32.1209 69.059 30.6946 69.059 29.2683 69.059Z" fill="white"/>
<path d="M52.5347 17.5598C52.7639 17.6744 52.8149 17.6872 52.8658 17.7126C55.4382 19.4828 55.209 21.6477 54.1902 24.2965C50.9174 32.7523 46.0145 40.1512 39.9401 46.7987C33.56 53.7774 26.263 59.6481 18.3674 64.8184C17.4887 65.3914 16.7883 65.5315 15.9224 64.8439C15.222 64.2835 14.4069 63.8505 13.4391 63.2265C22.2388 57.6487 30.1598 51.2941 37.0365 43.6915C43.9642 36.0506 49.4147 27.5184 52.5347 17.5598Z" fill="white"/>
<path d="M47.6828 13.5483C50.1279 14.8473 50.1534 14.8982 49.3511 17.3433C45.416 29.3649 38.0044 39.0178 28.8864 47.5246C23.6397 52.4275 17.909 56.7191 11.8218 60.5268C11.5289 60.7178 11.2106 60.8833 10.7521 61.1508C10.0135 60.3103 9.2876 59.4825 8.49805 58.5783C25.83 47.3208 40.5641 33.7329 47.6828 13.5483Z" fill="white"/>
<path d="M20.7616 67.0341C36.9856 56.0695 50.6118 43.0547 57.565 24.0544C58.7238 26.2321 59.8572 27.9513 58.6856 30.6128C54.5596 40.0365 48.5742 48.1104 41.1244 55.0508C36.7564 59.1259 31.8535 62.6152 27.32 66.5375C25.1678 68.384 23.1175 68.3076 20.7616 67.0341Z" fill="white"/>
</svg>
